<svg xmlns="http://www.w3.org/2000/svg" xmlns:xlink="http://www.w3.org/1999/xlink" width="500" zoomAndPan="magnify" viewBox="0 0 375 374.999991" height="500" preserveAspectRatio="xMidYMid meet" version="1.0"><defs><g/><clipPath id="7c2a37216f"><rect x="0" width="347" y="0" height="110"/></clipPath></defs><g fill="#000000" fill-opacity="1"><g transform="translate(40.427611, 217.585063)"><g><path d="M 3.6875 0 L 3.21875 0 C 2.707031 0.09375 2.265625 0.351562 1.890625 0.78125 C 1.523438 1.207031 1.34375 1.734375 1.34375 2.359375 C 1.34375 2.734375 1.414062 2.992188 1.5625 3.140625 C 1.707031 3.285156 1.925781 3.359375 2.21875 3.359375 C 2.613281 3.359375 2.984375 3.222656 3.328125 2.953125 L 3.328125 3.921875 C 2.835938 4.253906 2.25 4.421875 1.5625 4.421875 C 1.019531 4.421875 0.578125 4.296875 0.234375 4.046875 C -0.109375 3.796875 -0.28125 3.359375 -0.28125 2.734375 C -0.28125 1.984375 -0.0507812 1.351562 0.40625 0.84375 C 0.863281 0.34375 1.382812 -0.0078125 1.96875 -0.21875 L 1.984375 -0.21875 L 1.984375 -13.6875 L 3.6875 -13.6875 Z M 3.6875 0 "/></g></g></g><g fill="#000000" fill-opacity="1"><g transform="translate(50.741072, 217.585063)"><g><path d="M 6.234375 -13.96875 C 7.179688 -13.96875 7.976562 -13.789062 8.625 -13.4375 C 9.28125 -13.09375 9.789062 -12.613281 10.15625 -12 C 10.519531 -11.382812 10.738281 -10.6875 10.8125 -9.90625 L 8.984375 -9.90625 C 8.910156 -10.757812 8.625 -11.425781 8.125 -11.90625 C 7.625 -12.382812 6.945312 -12.625 6.09375 -12.625 C 5.363281 -12.625 4.75 -12.453125 4.25 -12.109375 C 3.75 -11.765625 3.5 -11.234375 3.5 -10.515625 C 3.5 -9.773438 3.722656 -9.21875 4.171875 -8.84375 C 4.628906 -8.46875 5.378906 -8.160156 6.421875 -7.921875 C 7.929688 -7.578125 9.0625 -7.070312 9.8125 -6.40625 C 10.570312 -5.75 10.953125 -4.835938 10.953125 -3.671875 C 10.953125 -2.859375 10.742188 -2.15625 10.328125 -1.5625 C 9.910156 -0.976562 9.347656 -0.523438 8.640625 -0.203125 C 7.929688 0.117188 7.132812 0.28125 6.25 0.28125 C 4.738281 0.28125 3.523438 -0.0820312 2.609375 -0.8125 C 1.703125 -1.539062 1.175781 -2.566406 1.03125 -3.890625 L 2.859375 -3.890625 C 3.054688 -2.992188 3.457031 -2.300781 4.0625 -1.8125 C 4.664062 -1.320312 5.410156 -1.078125 6.296875 -1.078125 C 7.078125 -1.078125 7.742188 -1.273438 8.296875 -1.671875 C 8.847656 -2.078125 9.125 -2.640625 9.125 -3.359375 C 9.125 -4.191406 8.863281 -4.820312 8.34375 -5.25 C 7.832031 -5.6875 6.976562 -6.046875 5.78125 -6.328125 C 4.96875 -6.515625 4.253906 -6.757812 3.640625 -7.0625 C 3.023438 -7.363281 2.539062 -7.757812 2.1875 -8.25 C 1.84375 -8.738281 1.671875 -9.363281 1.671875 -10.125 C 1.671875 -10.914062 1.875 -11.597656 2.28125 -12.171875 C 2.6875 -12.742188 3.238281 -13.1875 3.9375 -13.5 C 4.632812 -13.8125 5.398438 -13.96875 6.234375 -13.96875 Z M 6.234375 -13.96875 "/></g></g></g><g fill="#000000" fill-opacity="1"><g transform="translate(67.419358, 217.585063)"><g><path d="M 3.6875 0 L 1.984375 0 L 1.984375 -13.6875 L 3.6875 -13.6875 Z M 3.6875 0 "/></g></g></g><g fill="#000000" fill-opacity="1"><g transform="translate(77.732819, 217.585063)"><g><path d="M 6.234375 -13.96875 C 7.179688 -13.96875 7.976562 -13.789062 8.625 -13.4375 C 9.28125 -13.09375 9.789062 -12.613281 10.15625 -12 C 10.519531 -11.382812 10.738281 -10.6875 10.8125 -9.90625 L 8.984375 -9.90625 C 8.910156 -10.757812 8.625 -11.425781 8.125 -11.90625 C 7.625 -12.382812 6.945312 -12.625 6.09375 -12.625 C 5.363281 -12.625 4.75 -12.453125 4.25 -12.109375 C 3.75 -11.765625 3.5 -11.234375 3.5 -10.515625 C 3.5 -9.773438 3.722656 -9.21875 4.171875 -8.84375 C 4.628906 -8.46875 5.378906 -8.160156 6.421875 -7.921875 C 7.929688 -7.578125 9.0625 -7.070312 9.8125 -6.40625 C 10.570312 -5.75 10.953125 -4.835938 10.953125 -3.671875 C 10.953125 -2.859375 10.742188 -2.15625 10.328125 -1.5625 C 9.910156 -0.976562 9.347656 -0.523438 8.640625 -0.203125 C 7.929688 0.117188 7.132812 0.28125 6.25 0.28125 C 4.738281 0.28125 3.523438 -0.0820312 2.609375 -0.8125 C 1.703125 -1.539062 1.175781 -2.566406 1.03125 -3.890625 L 2.859375 -3.890625 C 3.054688 -2.992188 3.457031 -2.300781 4.0625 -1.8125 C 4.664062 -1.320312 5.410156 -1.078125 6.296875 -1.078125 C 7.078125 -1.078125 7.742188 -1.273438 8.296875 -1.671875 C 8.847656 -2.078125 9.125 -2.640625 9.125 -3.359375 C 9.125 -4.191406 8.863281 -4.820312 8.34375 -5.25 C 7.832031 -5.6875 6.976562 -6.046875 5.78125 -6.328125 C 4.96875 -6.515625 4.253906 -6.757812 3.640625 -7.0625 C 3.023438 -7.363281 2.539062 -7.757812 2.1875 -8.25 C 1.84375 -8.738281 1.671875 -9.363281 1.671875 -10.125 C 1.671875 -10.914062 1.875 -11.597656 2.28125 -12.171875 C 2.6875 -12.742188 3.238281 -13.1875 3.9375 -13.5 C 4.632812 -13.8125 5.398438 -13.96875 6.234375 -13.96875 Z M 6.234375 -13.96875 "/></g></g></g><g fill="#000000" fill-opacity="1"><g transform="translate(94.411106, 217.585063)"><g><path d="M 10 2.359375 C 10 2.734375 10.070312 2.992188 10.21875 3.140625 C 10.363281 3.285156 10.582031 3.359375 10.875 3.359375 C 11.269531 3.359375 11.640625 3.222656 11.984375 2.953125 L 11.984375 3.921875 C 11.492188 4.253906 10.90625 4.421875 10.21875 4.421875 C 9.675781 4.421875 9.234375 4.296875 8.890625 4.046875 C 8.546875 3.796875 8.375 3.359375 8.375 2.734375 C 8.375 1.984375 8.601562 1.351562 9.0625 0.84375 C 9.519531 0.34375 10.03125 -0.0078125 10.59375 -0.21875 L 9.046875 -4.84375 L 4.015625 -4.84375 L 2.40625 0 L 0.578125 0 L 5.5 -13.6875 L 7.796875 -13.6875 L 12.515625 0 L 11.859375 0 C 11.359375 0.09375 10.921875 0.351562 10.546875 0.78125 C 10.179688 1.207031 10 1.734375 10 2.359375 Z M 4.484375 -6.234375 L 8.59375 -6.234375 L 6.609375 -12.34375 Z M 4.484375 -6.234375 "/></g></g></g><g fill="#000000" fill-opacity="1"><g transform="translate(112.160113, 217.585063)"><g><path d="M 15.640625 -13.6875 L 15.640625 0 L 13.9375 0 L 13.9375 -7.046875 C 13.9375 -7.898438 13.9375 -8.773438 13.9375 -9.671875 C 13.945312 -10.578125 13.957031 -11.398438 13.96875 -12.140625 C 13.738281 -11.398438 13.472656 -10.578125 13.171875 -9.671875 C 12.878906 -8.765625 12.585938 -7.894531 12.296875 -7.0625 L 9.875 0 L 7.734375 0 L 5.28125 -7.109375 C 5 -7.921875 4.710938 -8.773438 4.421875 -9.671875 C 4.128906 -10.566406 3.875 -11.378906 3.65625 -12.109375 C 3.675781 -11.367188 3.6875 -10.550781 3.6875 -9.65625 C 3.6875 -8.757812 3.6875 -7.890625 3.6875 -7.046875 L 3.6875 0 L 1.984375 0 L 1.984375 -13.6875 L 4.796875 -13.6875 L 8.84375 -1.453125 L 12.875 -13.6875 Z M 15.640625 -13.6875 "/></g></g></g><g fill="#000000" fill-opacity="1"><g transform="translate(134.410115, 217.585063)"><g><path d="M 7.40625 -13.96875 C 8.789062 -13.96875 9.960938 -13.660156 10.921875 -13.046875 C 11.890625 -12.441406 12.625 -11.609375 13.125 -10.546875 C 13.625 -9.484375 13.875 -8.25 13.875 -6.84375 C 13.875 -5.457031 13.625 -4.226562 13.125 -3.15625 C 12.625 -2.082031 11.890625 -1.238281 10.921875 -0.625 C 9.960938 -0.0195312 8.789062 0.28125 7.40625 0.28125 C 6.007812 0.28125 4.832031 -0.0195312 3.875 -0.625 C 2.914062 -1.238281 2.1875 -2.082031 1.6875 -3.15625 C 1.1875 -4.226562 0.9375 -5.457031 0.9375 -6.84375 C 0.9375 -8.25 1.1875 -9.484375 1.6875 -10.546875 C 2.1875 -11.609375 2.914062 -12.441406 3.875 -13.046875 C 4.832031 -13.660156 6.007812 -13.96875 7.40625 -13.96875 Z M 7.40625 -1.078125 C 8.84375 -1.078125 9.960938 -1.59375 10.765625 -2.625 C 11.566406 -3.664062 11.96875 -5.070312 11.96875 -6.84375 C 11.96875 -8.632812 11.566406 -10.046875 10.765625 -11.078125 C 9.960938 -12.109375 8.84375 -12.625 7.40625 -12.625 C 5.957031 -12.625 4.832031 -12.109375 4.03125 -11.078125 C 3.238281 -10.046875 2.84375 -8.632812 2.84375 -6.84375 C 2.84375 -5.070312 3.238281 -3.664062 4.03125 -2.625 C 4.832031 -1.59375 5.957031 -1.078125 7.40625 -1.078125 Z M 7.40625 -1.078125 "/></g></g></g><g fill="#000000" fill-opacity="1"><g transform="translate(154.102283, 217.585063)"><g><path d="M 12.703125 0 L 10.078125 0 L 3.625 -12.03125 C 3.65625 -11.21875 3.671875 -10.351562 3.671875 -9.4375 C 3.679688 -8.519531 3.6875 -7.65625 3.6875 -6.84375 L 3.6875 0 L 1.984375 0 L 1.984375 -13.6875 L 4.609375 -13.6875 L 11.046875 -1.671875 C 11.035156 -2.472656 11.023438 -3.332031 11.015625 -4.25 C 11.003906 -5.175781 11 -6.039062 11 -6.84375 L 11 -13.6875 L 12.65625 -13.6875 Z M 12.703125 0 "/></g></g></g><g fill="#000000" fill-opacity="1"><g transform="translate(173.417724, 217.585063)"><g><path d="M 3.6875 0 L 1.984375 0 L 1.984375 -13.6875 L 3.6875 -13.6875 Z M 3.6875 0 "/></g></g></g><g fill="#000000" fill-opacity="1"><g transform="translate(183.731184, 217.585063)"><g><path d="M 12.703125 0 L 10.078125 0 L 3.625 -12.03125 C 3.65625 -11.21875 3.671875 -10.351562 3.671875 -9.4375 C 3.679688 -8.519531 3.6875 -7.65625 3.6875 -6.84375 L 3.6875 0 L 1.984375 0 L 1.984375 -13.6875 L 4.609375 -13.6875 L 11.046875 -1.671875 C 11.035156 -2.472656 11.023438 -3.332031 11.015625 -4.25 C 11.003906 -5.175781 11 -6.039062 11 -6.84375 L 11 -13.6875 L 12.65625 -13.6875 Z M 12.703125 0 "/></g></g></g><g fill="#000000" fill-opacity="1"><g transform="translate(203.046624, 217.585063)"><g><path d="M 12.140625 -12.296875 L 7.265625 -12.296875 L 7.265625 0 L 5.5625 0 L 5.5625 -12.296875 L 0.671875 -12.296875 L 0.671875 -13.6875 L 12.140625 -13.6875 Z M 12.140625 -12.296875 "/></g></g></g><g fill="#000000" fill-opacity="1"><g transform="translate(220.260277, 217.585063)"><g><path d="M 9.046875 -4.84375 L 4.015625 -4.84375 L 2.40625 0 L 0.578125 0 L 5.5 -13.6875 L 7.796875 -13.6875 L 12.515625 0 L 10.671875 0 Z M 4.484375 -6.234375 L 8.59375 -6.234375 L 6.609375 -12.34375 Z M 4.484375 -6.234375 "/></g></g></g><g fill="#000000" fill-opacity="1"><g transform="translate(238.009295, 217.585063)"><g/></g></g><g fill="#000000" fill-opacity="1"><g transform="translate(247.370996, 217.585063)"><g><path d="M 15.640625 -13.6875 L 15.640625 0 L 13.9375 0 L 13.9375 -7.046875 C 13.9375 -7.898438 13.9375 -8.773438 13.9375 -9.671875 C 13.945312 -10.578125 13.957031 -11.398438 13.96875 -12.140625 C 13.738281 -11.398438 13.472656 -10.578125 13.171875 -9.671875 C 12.878906 -8.765625 12.585938 -7.894531 12.296875 -7.0625 L 9.875 0 L 7.734375 0 L 5.28125 -7.109375 C 5 -7.921875 4.710938 -8.773438 4.421875 -9.671875 C 4.128906 -10.566406 3.875 -11.378906 3.65625 -12.109375 C 3.675781 -11.367188 3.6875 -10.550781 3.6875 -9.65625 C 3.6875 -8.757812 3.6875 -7.890625 3.6875 -7.046875 L 3.6875 0 L 1.984375 0 L 1.984375 -13.6875 L 4.796875 -13.6875 L 8.84375 -1.453125 L 12.875 -13.6875 Z M 15.640625 -13.6875 "/></g></g></g><g fill="#000000" fill-opacity="1"><g transform="translate(269.620987, 217.585063)"><g><path d="M 3.6875 0 L 1.984375 0 L 1.984375 -13.6875 L 3.6875 -13.6875 Z M 3.6875 0 "/></g></g></g><g fill="#000000" fill-opacity="1"><g transform="translate(279.934447, 217.585063)"><g><path d="M 12.140625 -12.296875 L 7.265625 -12.296875 L 7.265625 0 L 5.5625 0 L 5.5625 -12.296875 L 0.671875 -12.296875 L 0.671875 -13.6875 L 12.140625 -13.6875 Z M 12.140625 -12.296875 "/></g></g></g><g fill="#000000" fill-opacity="1"><g transform="translate(297.1481, 217.585063)"><g><path d="M 6.921875 -5.390625 L 6.921875 0 L 5.21875 0 L 5.21875 -5.390625 L 0.375 -13.6875 L 2.34375 -13.6875 L 6.15625 -7.046875 L 9.84375 -13.6875 L 11.765625 -13.6875 Z M 6.921875 -5.390625 "/></g></g></g><g fill="#000000" fill-opacity="1"><g transform="translate(313.74709, 217.585063)"><g><path d="M 8.84375 -7.28125 C 9.75 -7.070312 10.445312 -6.710938 10.9375 -6.203125 C 11.425781 -5.691406 11.671875 -4.96875 11.671875 -4.03125 C 11.671875 -3.195312 11.5 -2.503906 11.15625 -1.953125 C 10.820312 -1.398438 10.382812 -0.972656 9.84375 -0.671875 C 9.3125 -0.378906 8.742188 -0.1875 8.140625 -0.09375 C 7.804688 -0.0390625 7.507812 -0.0078125 7.25 0 C 6.988281 0 6.703125 0 6.390625 0 L 1.984375 0 L 1.984375 -13.6875 L 6.015625 -13.6875 C 6.347656 -13.6875 6.644531 -13.679688 6.90625 -13.671875 C 7.164062 -13.671875 7.460938 -13.648438 7.796875 -13.609375 C 8.878906 -13.460938 9.710938 -13.113281 10.296875 -12.5625 C 10.878906 -12.019531 11.171875 -11.257812 11.171875 -10.28125 C 11.171875 -9.457031 10.957031 -8.8125 10.53125 -8.34375 C 10.113281 -7.875 9.550781 -7.519531 8.84375 -7.28125 Z M 3.6875 -12.296875 L 3.6875 -7.796875 L 6.328125 -7.796875 C 6.515625 -7.796875 6.691406 -7.800781 6.859375 -7.8125 C 7.035156 -7.832031 7.222656 -7.851562 7.421875 -7.875 C 8.117188 -7.976562 8.613281 -8.226562 8.90625 -8.625 C 9.195312 -9.03125 9.34375 -9.535156 9.34375 -10.140625 C 9.34375 -10.816406 9.144531 -11.320312 8.75 -11.65625 C 8.363281 -12 7.863281 -12.203125 7.25 -12.265625 C 7.070312 -12.285156 6.882812 -12.296875 6.6875 -12.296875 C 6.488281 -12.296875 6.3125 -12.296875 6.15625 -12.296875 Z M 7.59375 -1.421875 C 8.257812 -1.492188 8.800781 -1.726562 9.21875 -2.125 C 9.632812 -2.53125 9.84375 -3.101562 9.84375 -3.84375 C 9.84375 -4.695312 9.632812 -5.300781 9.21875 -5.65625 C 8.8125 -6.007812 8.28125 -6.234375 7.625 -6.328125 C 7.394531 -6.359375 7.191406 -6.378906 7.015625 -6.390625 C 6.847656 -6.398438 6.6875 -6.40625 6.53125 -6.40625 L 3.6875 -6.40625 L 3.6875 -1.390625 L 6.640625 -1.390625 C 6.804688 -1.390625 6.972656 -1.390625 7.140625 -1.390625 C 7.316406 -1.398438 7.46875 -1.410156 7.59375 -1.421875 Z M 7.59375 -1.421875 "/></g></g></g><g fill="#000000" fill-opacity="1"><g transform="translate(331.258175, 217.585063)"><g><path d="M 9.046875 -4.84375 L 4.015625 -4.84375 L 2.40625 0 L 0.578125 0 L 5.5 -13.6875 L 7.796875 -13.6875 L 12.515625 0 L 10.671875 0 Z M 4.484375 -6.234375 L 8.59375 -6.234375 L 6.609375 -12.34375 Z M 4.484375 -6.234375 "/></g></g></g><g transform="matrix(1, 0, 0, 1, 18, 85)"><g clip-path="url(#7c2a37216f)"><g fill="#000000" fill-opacity="1"><g transform="translate(2.003665, 87.78001)"><g><path d="M 5.1875 -52.640625 L 26.625 -52.640625 C 30.082031 -52.640625 32.925781 -51.988281 35.15625 -50.6875 C 37.382812 -49.382812 39 -47.71875 40 -45.6875 C 41.007812 -43.65625 41.515625 -41.507812 41.515625 -39.25 C 41.515625 -37.050781 41.0625 -35.148438 40.15625 -33.546875 C 39.257812 -31.941406 38.144531 -30.675781 36.8125 -29.75 C 35.476562 -28.820312 34.210938 -28.226562 33.015625 -27.96875 L 33.015625 -27.53125 C 34.421875 -27.375 35.972656 -26.859375 37.671875 -25.984375 C 39.378906 -25.109375 40.867188 -23.765625 42.140625 -21.953125 C 43.421875 -20.148438 44.0625 -17.867188 44.0625 -15.109375 C 44.0625 -12.609375 43.5 -10.203125 42.375 -7.890625 C 41.25 -5.585938 39.484375 -3.695312 37.078125 -2.21875 C 34.671875 -0.738281 31.632812 0 27.96875 0 L 5.1875 0 Z M 24.359375 -29.9375 C 26.972656 -29.9375 29.242188 -30.625 31.171875 -32 C 33.097656 -33.375 34.0625 -35.492188 34.0625 -38.359375 C 34.0625 -41.109375 33.132812 -43.109375 31.28125 -44.359375 C 29.425781 -45.617188 27.117188 -46.25 24.359375 -46.25 L 12.78125 -46.25 L 12.78125 -29.9375 Z M 26.09375 -6.390625 C 29 -6.390625 31.46875 -7.078125 33.5 -8.453125 C 35.53125 -9.835938 36.546875 -12.132812 36.546875 -15.34375 C 36.546875 -18.445312 35.53125 -20.675781 33.5 -22.03125 C 31.46875 -23.382812 29 -24.0625 26.09375 -24.0625 L 12.78125 -24.0625 L 12.78125 -6.390625 Z M 26.09375 -6.390625 "/></g></g></g><g fill="#000000" fill-opacity="1"><g transform="translate(48.928791, 87.78001)"><g><path d="M 13.078125 -45.71875 L 13.078125 -29.9375 L 35.125 -29.9375 L 35.125 -23.6875 L 13.078125 -23.6875 L 13.078125 -6.921875 L 38.421875 -6.921875 L 38.421875 0 L 5.1875 0 L 5.1875 -52.640625 L 38.421875 -52.640625 L 38.421875 -45.71875 Z M 13.078125 -45.71875 "/></g></g></g><g fill="#000000" fill-opacity="1"><g transform="translate(91.642704, 87.78001)"><g/></g></g><g fill="#000000" fill-opacity="1"><g transform="translate(108.938836, 87.78001)"><g><path d="M 3.765625 -7.140625 L 32.265625 -45.34375 L 32.265625 -45.5 L 3.765625 -45.5 L 3.765625 -52.640625 L 41.65625 -52.640625 L 41.65625 -45.5 L 13.078125 -7.296875 L 13.078125 -7.140625 L 41.65625 -7.140625 L 41.65625 0 L 3.765625 0 Z M 17.296875 -68.890625 L 22.9375 -62.578125 L 23.234375 -62.578125 L 29.015625 -68.890625 L 36.546875 -68.890625 L 26.3125 -57.609375 L 20 -57.609375 L 9.84375 -68.890625 Z M 17.296875 -68.890625 "/></g></g></g><g fill="#000000" fill-opacity="1"><g transform="translate(155.262374, 87.78001)"><g><path d="M 35.71875 -14.515625 L 15.34375 -14.515625 L 10.296875 0 L 2.40625 0 L 21.890625 -52.640625 L 29.25 -52.640625 L 48.8125 0 L 40.90625 0 Z M 33.546875 -20.6875 L 25.640625 -42.796875 L 25.265625 -42.796875 L 17.515625 -20.6875 Z M 33.546875 -20.6875 "/></g></g></g><g fill="#000000" fill-opacity="1"><g transform="translate(206.248342, 87.78001)"><g><path d="M 37 -6.921875 L 37 0 L 5.1875 0 L 5.1875 -52.640625 L 13.078125 -52.640625 L 13.015625 -6.921875 Z M 37 -6.921875 "/></g></g></g><g fill="#000000" fill-opacity="1"><g transform="translate(246.104623, 87.78001)"><g><path d="M 27.53125 0.53125 C 22.457031 0.53125 18.128906 -0.632812 14.546875 -2.96875 C 10.960938 -5.300781 8.242188 -8.507812 6.390625 -12.59375 C 4.535156 -16.675781 3.609375 -21.300781 3.609375 -26.46875 C 3.609375 -31.632812 4.535156 -36.285156 6.390625 -40.421875 C 8.242188 -44.554688 10.972656 -47.8125 14.578125 -50.1875 C 18.191406 -52.570312 22.507812 -53.765625 27.53125 -53.765625 C 32.488281 -53.765625 36.757812 -52.585938 40.34375 -50.234375 C 43.925781 -47.878906 46.644531 -44.632812 48.5 -40.5 C 50.351562 -36.363281 51.28125 -31.660156 51.28125 -26.390625 C 51.28125 -21.179688 50.351562 -16.546875 48.5 -12.484375 C 46.644531 -8.421875 43.925781 -5.234375 40.34375 -2.921875 C 36.757812 -0.617188 32.488281 0.53125 27.53125 0.53125 Z M 27.453125 -6.546875 C 30.660156 -6.546875 33.441406 -7.394531 35.796875 -9.09375 C 38.148438 -10.800781 39.953125 -13.171875 41.203125 -16.203125 C 42.460938 -19.234375 43.09375 -22.679688 43.09375 -26.546875 C 43.09375 -30.410156 42.460938 -33.859375 41.203125 -36.890625 C 39.953125 -39.921875 38.148438 -42.3125 35.796875 -44.0625 C 33.441406 -45.820312 30.660156 -46.703125 27.453125 -46.703125 C 24.242188 -46.703125 21.457031 -45.820312 19.09375 -44.0625 C 16.738281 -42.3125 14.9375 -39.90625 13.6875 -36.84375 C 12.4375 -33.789062 11.8125 -30.359375 11.8125 -26.546875 C 11.8125 -22.734375 12.4375 -19.3125 13.6875 -16.28125 C 14.9375 -13.25 16.738281 -10.867188 19.09375 -9.140625 C 21.457031 -7.410156 24.242188 -6.546875 27.453125 -6.546875 Z M 27.453125 -6.546875 "/></g></g></g><g fill="#000000" fill-opacity="1"><g transform="translate(301.151398, 87.78001)"><g><path d="M 23.09375 0.609375 C 18.976562 0.609375 15.453125 -0.226562 12.515625 -1.90625 C 9.585938 -3.59375 7.382812 -5.765625 5.90625 -8.421875 C 4.425781 -11.078125 3.6875 -13.859375 3.6875 -16.765625 L 3.6875 -17.140625 L 12.265625 -17.140625 L 12.265625 -16.765625 C 12.265625 -15.160156 12.640625 -13.566406 13.390625 -11.984375 C 14.140625 -10.410156 15.34375 -9.082031 17 -8 C 18.65625 -6.925781 20.734375 -6.390625 23.234375 -6.390625 C 26.296875 -6.390625 28.789062 -7.164062 30.71875 -8.71875 C 32.644531 -10.28125 33.609375 -12.390625 33.609375 -15.046875 C 33.609375 -17.242188 32.867188 -18.992188 31.390625 -20.296875 C 29.910156 -21.609375 28.046875 -22.488281 25.796875 -22.9375 L 18.578125 -24.359375 C 15.421875 -25.015625 12.375 -26.359375 9.4375 -28.390625 C 6.5 -30.421875 5.03125 -33.816406 5.03125 -38.578125 C 5.03125 -41.640625 5.769531 -44.320312 7.25 -46.625 C 8.726562 -48.925781 10.796875 -50.691406 13.453125 -51.921875 C 16.117188 -53.148438 19.15625 -53.765625 22.5625 -53.765625 C 26.46875 -53.765625 29.820312 -52.988281 32.625 -51.4375 C 35.4375 -49.882812 37.554688 -47.863281 38.984375 -45.375 C 40.421875 -42.894531 41.140625 -40.304688 41.140625 -37.609375 L 41.140625 -37.296875 L 32.5625 -37.296875 L 32.5625 -37.53125 C 32.5625 -38.882812 32.234375 -40.285156 31.578125 -41.734375 C 30.929688 -43.191406 29.84375 -44.429688 28.3125 -45.453125 C 26.78125 -46.484375 24.785156 -47 22.328125 -47 C 19.421875 -47 17.128906 -46.207031 15.453125 -44.625 C 13.773438 -43.050781 12.9375 -41.085938 12.9375 -38.734375 C 12.9375 -36.671875 13.648438 -34.988281 15.078125 -33.6875 C 16.503906 -32.382812 18.375 -31.507812 20.6875 -31.0625 L 27.375 -29.703125 C 31.238281 -28.898438 34.609375 -27.421875 37.484375 -25.265625 C 40.367188 -23.109375 41.8125 -19.773438 41.8125 -15.265625 C 41.8125 -12.160156 41.019531 -9.40625 39.4375 -7 C 37.863281 -4.59375 35.660156 -2.722656 32.828125 -1.390625 C 29.992188 -0.0546875 26.75 0.609375 23.09375 0.609375 Z M 23.09375 0.609375 "/></g></g></g></g></g><path stroke-linecap="butt" transform="matrix(0.75, 0, 0, 0.75, 24.113717, 191.506276)" fill="none" stroke-linejoin="miter" d="M -0.000580782 1.002048 L 448.207782 1.002048 " stroke="#000000" stroke-width="2" stroke-opacity="1" stroke-miterlimit="4"/></svg>