<svg xmlns="http://www.w3.org/2000/svg" xmlns:xlink="http://www.w3.org/1999/xlink" width="500" zoomAndPan="magnify" viewBox="0 0 375 374.999991" height="500" preserveAspectRatio="xMidYMid meet" version="1.0"><defs><g/><clipPath id="d47c2a3214"><rect x="0" width="347" y="0" height="110"/></clipPath></defs><g fill="#000000" fill-opacity="1"><g transform="translate(25.109386, 220.214986)"><g><path d="M 4.0625 0 L 3.53125 0 C 2.976562 0.101562 2.5 0.390625 2.09375 0.859375 C 1.6875 1.335938 1.484375 1.914062 1.484375 2.59375 C 1.484375 3 1.5625 3.28125 1.71875 3.4375 C 1.882812 3.601562 2.125 3.6875 2.4375 3.6875 C 2.875 3.6875 3.285156 3.539062 3.671875 3.25 L 3.671875 4.328125 C 3.128906 4.691406 2.476562 4.875 1.71875 4.875 C 1.125 4.875 0.632812 4.734375 0.25 4.453125 C -0.125 4.171875 -0.3125 3.691406 -0.3125 3.015625 C -0.3125 2.179688 -0.0625 1.488281 0.4375 0.9375 C 0.945312 0.382812 1.519531 -0.00390625 2.15625 -0.234375 L 2.1875 -0.234375 L 2.1875 -15.0625 L 4.0625 -15.0625 Z M 4.0625 0 "/></g></g></g><g fill="#000000" fill-opacity="1"><g transform="translate(36.463893, 220.214986)"><g><path d="M 6.859375 -15.359375 C 7.898438 -15.359375 8.773438 -15.164062 9.484375 -14.78125 C 10.203125 -14.394531 10.757812 -13.863281 11.15625 -13.1875 C 11.5625 -12.519531 11.804688 -11.753906 11.890625 -10.890625 L 9.890625 -10.890625 C 9.796875 -11.835938 9.476562 -12.570312 8.9375 -13.09375 C 8.394531 -13.613281 7.648438 -13.875 6.703125 -13.875 C 5.898438 -13.875 5.222656 -13.6875 4.671875 -13.3125 C 4.117188 -12.9375 3.84375 -12.351562 3.84375 -11.5625 C 3.84375 -10.75 4.09375 -10.132812 4.59375 -9.71875 C 5.09375 -9.3125 5.921875 -8.972656 7.078125 -8.703125 C 8.734375 -8.328125 9.972656 -7.773438 10.796875 -7.046875 C 11.628906 -6.316406 12.046875 -5.3125 12.046875 -4.03125 C 12.046875 -3.144531 11.816406 -2.378906 11.359375 -1.734375 C 10.898438 -1.085938 10.28125 -0.582031 9.5 -0.21875 C 8.726562 0.132812 7.851562 0.3125 6.875 0.3125 C 5.21875 0.3125 3.882812 -0.0859375 2.875 -0.890625 C 1.875 -1.691406 1.296875 -2.820312 1.140625 -4.28125 L 3.140625 -4.28125 C 3.359375 -3.289062 3.796875 -2.523438 4.453125 -1.984375 C 5.117188 -1.441406 5.941406 -1.171875 6.921875 -1.171875 C 7.773438 -1.171875 8.507812 -1.394531 9.125 -1.84375 C 9.738281 -2.289062 10.046875 -2.90625 10.046875 -3.6875 C 10.046875 -4.601562 9.757812 -5.300781 9.1875 -5.78125 C 8.625 -6.257812 7.679688 -6.65625 6.359375 -6.96875 C 5.460938 -7.164062 4.675781 -7.429688 4 -7.765625 C 3.320312 -8.097656 2.789062 -8.535156 2.40625 -9.078125 C 2.019531 -9.617188 1.828125 -10.300781 1.828125 -11.125 C 1.828125 -12 2.050781 -12.753906 2.5 -13.390625 C 2.957031 -14.023438 3.566406 -14.507812 4.328125 -14.84375 C 5.097656 -15.1875 5.941406 -15.359375 6.859375 -15.359375 Z M 6.859375 -15.359375 "/></g></g></g><g fill="#000000" fill-opacity="1"><g transform="translate(54.826498, 220.214986)"><g><path d="M 4.0625 0 L 2.1875 0 L 2.1875 -15.0625 L 4.0625 -15.0625 Z M 4.0625 0 "/></g></g></g><g fill="#000000" fill-opacity="1"><g transform="translate(66.181004, 220.214986)"><g><path d="M 6.859375 -15.359375 C 7.898438 -15.359375 8.773438 -15.164062 9.484375 -14.78125 C 10.203125 -14.394531 10.757812 -13.863281 11.15625 -13.1875 C 11.5625 -12.519531 11.804688 -11.753906 11.890625 -10.890625 L 9.890625 -10.890625 C 9.796875 -11.835938 9.476562 -12.570312 8.9375 -13.09375 C 8.394531 -13.613281 7.648438 -13.875 6.703125 -13.875 C 5.898438 -13.875 5.222656 -13.6875 4.671875 -13.3125 C 4.117188 -12.9375 3.84375 -12.351562 3.84375 -11.5625 C 3.84375 -10.75 4.09375 -10.132812 4.59375 -9.71875 C 5.09375 -9.3125 5.921875 -8.972656 7.078125 -8.703125 C 8.734375 -8.328125 9.972656 -7.773438 10.796875 -7.046875 C 11.628906 -6.316406 12.046875 -5.3125 12.046875 -4.03125 C 12.046875 -3.144531 11.816406 -2.378906 11.359375 -1.734375 C 10.898438 -1.085938 10.28125 -0.582031 9.5 -0.21875 C 8.726562 0.132812 7.851562 0.3125 6.875 0.3125 C 5.21875 0.3125 3.882812 -0.0859375 2.875 -0.890625 C 1.875 -1.691406 1.296875 -2.820312 1.140625 -4.28125 L 3.140625 -4.28125 C 3.359375 -3.289062 3.796875 -2.523438 4.453125 -1.984375 C 5.117188 -1.441406 5.941406 -1.171875 6.921875 -1.171875 C 7.773438 -1.171875 8.507812 -1.394531 9.125 -1.84375 C 9.738281 -2.289062 10.046875 -2.90625 10.046875 -3.6875 C 10.046875 -4.601562 9.757812 -5.300781 9.1875 -5.78125 C 8.625 -6.257812 7.679688 -6.65625 6.359375 -6.96875 C 5.460938 -7.164062 4.675781 -7.429688 4 -7.765625 C 3.320312 -8.097656 2.789062 -8.535156 2.40625 -9.078125 C 2.019531 -9.617188 1.828125 -10.300781 1.828125 -11.125 C 1.828125 -12 2.050781 -12.753906 2.5 -13.390625 C 2.957031 -14.023438 3.566406 -14.507812 4.328125 -14.84375 C 5.097656 -15.1875 5.941406 -15.359375 6.859375 -15.359375 Z M 6.859375 -15.359375 "/></g></g></g><g fill="#000000" fill-opacity="1"><g transform="translate(84.543609, 220.214986)"><g><path d="M 11 2.59375 C 11 3 11.078125 3.28125 11.234375 3.4375 C 11.398438 3.601562 11.644531 3.6875 11.96875 3.6875 C 12.394531 3.6875 12.800781 3.539062 13.1875 3.25 L 13.1875 4.328125 C 12.644531 4.691406 11.992188 4.875 11.234375 4.875 C 10.640625 4.875 10.15625 4.734375 9.78125 4.453125 C 9.40625 4.171875 9.21875 3.691406 9.21875 3.015625 C 9.21875 2.179688 9.46875 1.488281 9.96875 0.9375 C 10.46875 0.382812 11.03125 -0.00390625 11.65625 -0.234375 L 9.953125 -5.328125 L 4.40625 -5.328125 L 2.640625 0 L 0.640625 0 L 6.046875 -15.0625 L 8.578125 -15.0625 L 13.78125 0 L 13.046875 0 C 12.492188 0.101562 12.015625 0.390625 11.609375 0.859375 C 11.203125 1.335938 11 1.914062 11 2.59375 Z M 4.9375 -6.859375 L 9.453125 -6.859375 L 7.265625 -13.578125 Z M 4.9375 -6.859375 "/></g></g></g><g fill="#000000" fill-opacity="1"><g transform="translate(104.08515, 220.214986)"><g><path d="M 17.203125 -15.0625 L 17.203125 0 L 15.328125 0 L 15.328125 -7.75 C 15.328125 -8.695312 15.328125 -9.664062 15.328125 -10.65625 C 15.335938 -11.644531 15.347656 -12.546875 15.359375 -13.359375 C 15.117188 -12.546875 14.832031 -11.640625 14.5 -10.640625 C 14.175781 -9.640625 13.851562 -8.679688 13.53125 -7.765625 L 10.875 0 L 8.515625 0 L 5.8125 -7.8125 C 5.5 -8.71875 5.179688 -9.660156 4.859375 -10.640625 C 4.546875 -11.617188 4.265625 -12.507812 4.015625 -13.3125 C 4.046875 -12.5 4.0625 -11.597656 4.0625 -10.609375 C 4.0625 -9.628906 4.0625 -8.675781 4.0625 -7.75 L 4.0625 0 L 2.1875 0 L 2.1875 -15.0625 L 5.28125 -15.0625 L 9.734375 -1.59375 L 14.171875 -15.0625 Z M 17.203125 -15.0625 "/></g></g></g><g fill="#000000" fill-opacity="1"><g transform="translate(128.582578, 220.214986)"><g><path d="M 8.140625 -15.359375 C 9.671875 -15.359375 10.96875 -15.023438 12.03125 -14.359375 C 13.09375 -13.691406 13.894531 -12.769531 14.4375 -11.59375 C 14.988281 -10.425781 15.265625 -9.070312 15.265625 -7.53125 C 15.265625 -6 14.988281 -4.644531 14.4375 -3.46875 C 13.894531 -2.289062 13.09375 -1.363281 12.03125 -0.6875 C 10.96875 -0.0195312 9.671875 0.3125 8.140625 0.3125 C 6.609375 0.3125 5.316406 -0.0195312 4.265625 -0.6875 C 3.210938 -1.363281 2.410156 -2.289062 1.859375 -3.46875 C 1.304688 -4.644531 1.03125 -6 1.03125 -7.53125 C 1.03125 -9.070312 1.304688 -10.425781 1.859375 -11.59375 C 2.410156 -12.769531 3.210938 -13.691406 4.265625 -14.359375 C 5.316406 -15.023438 6.609375 -15.359375 8.140625 -15.359375 Z M 8.140625 -1.171875 C 9.722656 -1.171875 10.953125 -1.742188 11.828125 -2.890625 C 12.710938 -4.035156 13.15625 -5.582031 13.15625 -7.53125 C 13.15625 -9.5 12.710938 -11.046875 11.828125 -12.171875 C 10.953125 -13.304688 9.722656 -13.875 8.140625 -13.875 C 6.554688 -13.875 5.320312 -13.304688 4.4375 -12.171875 C 3.5625 -11.046875 3.125 -9.5 3.125 -7.53125 C 3.125 -5.582031 3.5625 -4.035156 4.4375 -2.890625 C 5.320312 -1.742188 6.554688 -1.171875 8.140625 -1.171875 Z M 8.140625 -1.171875 "/></g></g></g><g fill="#000000" fill-opacity="1"><g transform="translate(150.263671, 220.214986)"><g><path d="M 13.96875 0 L 11.09375 0 L 4 -13.234375 C 4.019531 -12.335938 4.035156 -11.382812 4.046875 -10.375 C 4.054688 -9.363281 4.0625 -8.414062 4.0625 -7.53125 L 4.0625 0 L 2.1875 0 L 2.1875 -15.0625 L 5.0625 -15.0625 L 12.15625 -1.828125 C 12.144531 -2.722656 12.128906 -3.675781 12.109375 -4.6875 C 12.097656 -5.695312 12.09375 -6.644531 12.09375 -7.53125 L 12.09375 -15.0625 L 13.921875 -15.0625 Z M 13.96875 0 "/></g></g></g><g fill="#000000" fill-opacity="1"><g transform="translate(171.529951, 220.214986)"><g><path d="M 4.0625 0 L 2.1875 0 L 2.1875 -15.0625 L 4.0625 -15.0625 Z M 4.0625 0 "/></g></g></g><g fill="#000000" fill-opacity="1"><g transform="translate(182.884458, 220.214986)"><g><path d="M 13.96875 0 L 11.09375 0 L 4 -13.234375 C 4.019531 -12.335938 4.035156 -11.382812 4.046875 -10.375 C 4.054688 -9.363281 4.0625 -8.414062 4.0625 -7.53125 L 4.0625 0 L 2.1875 0 L 2.1875 -15.0625 L 5.0625 -15.0625 L 12.15625 -1.828125 C 12.144531 -2.722656 12.128906 -3.675781 12.109375 -4.6875 C 12.097656 -5.695312 12.09375 -6.644531 12.09375 -7.53125 L 12.09375 -15.0625 L 13.921875 -15.0625 Z M 13.96875 0 "/></g></g></g><g fill="#000000" fill-opacity="1"><g transform="translate(204.150738, 220.214986)"><g><path d="M 13.359375 -13.53125 L 7.984375 -13.53125 L 7.984375 0 L 6.109375 0 L 6.109375 -13.53125 L 0.734375 -13.53125 L 0.734375 -15.0625 L 13.359375 -15.0625 Z M 13.359375 -13.53125 "/></g></g></g><g fill="#000000" fill-opacity="1"><g transform="translate(223.102828, 220.214986)"><g><path d="M 9.953125 -5.328125 L 4.40625 -5.328125 L 2.640625 0 L 0.640625 0 L 6.046875 -15.0625 L 8.578125 -15.0625 L 13.78125 0 L 11.75 0 Z M 4.9375 -6.859375 L 9.453125 -6.859375 L 7.265625 -13.578125 Z M 4.9375 -6.859375 "/></g></g></g><g fill="#000000" fill-opacity="1"><g transform="translate(242.644346, 220.214986)"><g/></g></g><g fill="#000000" fill-opacity="1"><g transform="translate(252.950918, 220.214986)"><g><path d="M 17.203125 -15.0625 L 17.203125 0 L 15.328125 0 L 15.328125 -7.75 C 15.328125 -8.695312 15.328125 -9.664062 15.328125 -10.65625 C 15.335938 -11.644531 15.347656 -12.546875 15.359375 -13.359375 C 15.117188 -12.546875 14.832031 -11.640625 14.5 -10.640625 C 14.175781 -9.640625 13.851562 -8.679688 13.53125 -7.765625 L 10.875 0 L 8.515625 0 L 5.8125 -7.8125 C 5.5 -8.71875 5.179688 -9.660156 4.859375 -10.640625 C 4.546875 -11.617188 4.265625 -12.507812 4.015625 -13.3125 C 4.046875 -12.5 4.0625 -11.597656 4.0625 -10.609375 C 4.0625 -9.628906 4.0625 -8.675781 4.0625 -7.75 L 4.0625 0 L 2.1875 0 L 2.1875 -15.0625 L 5.28125 -15.0625 L 9.734375 -1.59375 L 14.171875 -15.0625 Z M 17.203125 -15.0625 "/></g></g></g><g fill="#000000" fill-opacity="1"><g transform="translate(277.448345, 220.214986)"><g><path d="M 4.0625 0 L 2.1875 0 L 2.1875 -15.0625 L 4.0625 -15.0625 Z M 4.0625 0 "/></g></g></g><g fill="#000000" fill-opacity="1"><g transform="translate(288.802852, 220.214986)"><g><path d="M 13.359375 -13.53125 L 7.984375 -13.53125 L 7.984375 0 L 6.109375 0 L 6.109375 -13.53125 L 0.734375 -13.53125 L 0.734375 -15.0625 L 13.359375 -15.0625 Z M 13.359375 -13.53125 "/></g></g></g><g fill="#000000" fill-opacity="1"><g transform="translate(307.754931, 220.214986)"><g><path d="M 7.625 -5.9375 L 7.625 0 L 5.734375 0 L 5.734375 -5.9375 L 0.421875 -15.0625 L 2.578125 -15.0625 L 6.765625 -7.75 L 10.828125 -15.0625 L 12.9375 -15.0625 Z M 7.625 -5.9375 "/></g></g></g><g fill="#000000" fill-opacity="1"><g transform="translate(326.030206, 220.214986)"><g><path d="M 9.734375 -8.015625 C 10.722656 -7.773438 11.484375 -7.375 12.015625 -6.8125 C 12.554688 -6.257812 12.828125 -5.46875 12.828125 -4.4375 C 12.828125 -3.519531 12.640625 -2.757812 12.265625 -2.15625 C 11.898438 -1.550781 11.421875 -1.082031 10.828125 -0.75 C 10.242188 -0.425781 9.617188 -0.210938 8.953125 -0.109375 C 8.585938 -0.046875 8.257812 -0.0078125 7.96875 0 C 7.6875 0 7.375 0 7.03125 0 L 2.1875 0 L 2.1875 -15.0625 L 6.609375 -15.0625 C 6.972656 -15.0625 7.300781 -15.054688 7.59375 -15.046875 C 7.882812 -15.046875 8.210938 -15.019531 8.578125 -14.96875 C 9.773438 -14.8125 10.691406 -14.429688 11.328125 -13.828125 C 11.972656 -13.222656 12.296875 -12.382812 12.296875 -11.3125 C 12.296875 -10.40625 12.0625 -9.691406 11.59375 -9.171875 C 11.125 -8.660156 10.503906 -8.273438 9.734375 -8.015625 Z M 4.0625 -13.53125 L 4.0625 -8.578125 L 6.96875 -8.578125 C 7.164062 -8.578125 7.359375 -8.582031 7.546875 -8.59375 C 7.742188 -8.613281 7.945312 -8.640625 8.15625 -8.671875 C 8.9375 -8.785156 9.484375 -9.0625 9.796875 -9.5 C 10.117188 -9.9375 10.28125 -10.488281 10.28125 -11.15625 C 10.28125 -11.894531 10.066406 -12.445312 9.640625 -12.8125 C 9.210938 -13.1875 8.65625 -13.410156 7.96875 -13.484375 C 7.78125 -13.515625 7.578125 -13.53125 7.359375 -13.53125 C 7.140625 -13.53125 6.941406 -13.53125 6.765625 -13.53125 Z M 8.359375 -1.578125 C 9.085938 -1.648438 9.679688 -1.90625 10.140625 -2.34375 C 10.597656 -2.789062 10.828125 -3.421875 10.828125 -4.234375 C 10.828125 -5.160156 10.597656 -5.820312 10.140625 -6.21875 C 9.691406 -6.613281 9.101562 -6.863281 8.375 -6.96875 C 8.132812 -6.988281 7.914062 -7.003906 7.71875 -7.015625 C 7.53125 -7.035156 7.351562 -7.046875 7.1875 -7.046875 L 4.0625 -7.046875 L 4.0625 -1.53125 L 7.3125 -1.53125 C 7.488281 -1.53125 7.671875 -1.53125 7.859375 -1.53125 C 8.046875 -1.539062 8.210938 -1.554688 8.359375 -1.578125 Z M 8.359375 -1.578125 "/></g></g></g><g fill="#000000" fill-opacity="1"><g transform="translate(345.309791, 220.214986)"><g><path d="M 9.953125 -5.328125 L 4.40625 -5.328125 L 2.640625 0 L 0.640625 0 L 6.046875 -15.0625 L 8.578125 -15.0625 L 13.78125 0 L 11.75 0 Z M 4.9375 -6.859375 L 9.453125 -6.859375 L 7.265625 -13.578125 Z M 4.9375 -6.859375 "/></g></g></g><g transform="matrix(1, 0, 0, 1, 18, 85)"><g clip-path="url(#d47c2a3214)"><g fill="#000000" fill-opacity="1"><g transform="translate(2.003665, 87.78001)"><g><path d="M 5.1875 -52.640625 L 26.625 -52.640625 C 30.082031 -52.640625 32.925781 -51.988281 35.15625 -50.6875 C 37.382812 -49.382812 39 -47.71875 40 -45.6875 C 41.007812 -43.65625 41.515625 -41.507812 41.515625 -39.25 C 41.515625 -37.050781 41.0625 -35.148438 40.15625 -33.546875 C 39.257812 -31.941406 38.144531 -30.675781 36.8125 -29.75 C 35.476562 -28.820312 34.210938 -28.226562 33.015625 -27.96875 L 33.015625 -27.53125 C 34.421875 -27.375 35.972656 -26.859375 37.671875 -25.984375 C 39.378906 -25.109375 40.867188 -23.765625 42.140625 -21.953125 C 43.421875 -20.148438 44.0625 -17.867188 44.0625 -15.109375 C 44.0625 -12.609375 43.5 -10.203125 42.375 -7.890625 C 41.25 -5.585938 39.484375 -3.695312 37.078125 -2.21875 C 34.671875 -0.738281 31.632812 0 27.96875 0 L 5.1875 0 Z M 24.359375 -29.9375 C 26.972656 -29.9375 29.242188 -30.625 31.171875 -32 C 33.097656 -33.375 34.0625 -35.492188 34.0625 -38.359375 C 34.0625 -41.109375 33.132812 -43.109375 31.28125 -44.359375 C 29.425781 -45.617188 27.117188 -46.25 24.359375 -46.25 L 12.78125 -46.25 L 12.78125 -29.9375 Z M 26.09375 -6.390625 C 29 -6.390625 31.46875 -7.078125 33.5 -8.453125 C 35.53125 -9.835938 36.546875 -12.132812 36.546875 -15.34375 C 36.546875 -18.445312 35.53125 -20.675781 33.5 -22.03125 C 31.46875 -23.382812 29 -24.0625 26.09375 -24.0625 L 12.78125 -24.0625 L 12.78125 -6.390625 Z M 26.09375 -6.390625 "/></g></g></g><g fill="#000000" fill-opacity="1"><g transform="translate(48.928791, 87.78001)"><g><path d="M 13.078125 -45.71875 L 13.078125 -29.9375 L 35.125 -29.9375 L 35.125 -23.6875 L 13.078125 -23.6875 L 13.078125 -6.921875 L 38.421875 -6.921875 L 38.421875 0 L 5.1875 0 L 5.1875 -52.640625 L 38.421875 -52.640625 L 38.421875 -45.71875 Z M 13.078125 -45.71875 "/></g></g></g><g fill="#000000" fill-opacity="1"><g transform="translate(91.642704, 87.78001)"><g/></g></g><g fill="#000000" fill-opacity="1"><g transform="translate(108.938836, 87.78001)"><g><path d="M 3.765625 -7.140625 L 32.265625 -45.34375 L 32.265625 -45.5 L 3.765625 -45.5 L 3.765625 -52.640625 L 41.65625 -52.640625 L 41.65625 -45.5 L 13.078125 -7.296875 L 13.078125 -7.140625 L 41.65625 -7.140625 L 41.65625 0 L 3.765625 0 Z M 17.296875 -68.890625 L 22.9375 -62.578125 L 23.234375 -62.578125 L 29.015625 -68.890625 L 36.546875 -68.890625 L 26.3125 -57.609375 L 20 -57.609375 L 9.84375 -68.890625 Z M 17.296875 -68.890625 "/></g></g></g><g fill="#000000" fill-opacity="1"><g transform="translate(155.262374, 87.78001)"><g><path d="M 35.71875 -14.515625 L 15.34375 -14.515625 L 10.296875 0 L 2.40625 0 L 21.890625 -52.640625 L 29.25 -52.640625 L 48.8125 0 L 40.90625 0 Z M 33.546875 -20.6875 L 25.640625 -42.796875 L 25.265625 -42.796875 L 17.515625 -20.6875 Z M 33.546875 -20.6875 "/></g></g></g><g fill="#000000" fill-opacity="1"><g transform="translate(206.248342, 87.78001)"><g><path d="M 37 -6.921875 L 37 0 L 5.1875 0 L 5.1875 -52.640625 L 13.078125 -52.640625 L 13.015625 -6.921875 Z M 37 -6.921875 "/></g></g></g><g fill="#000000" fill-opacity="1"><g transform="translate(246.104623, 87.78001)"><g><path d="M 27.53125 0.53125 C 22.457031 0.53125 18.128906 -0.632812 14.546875 -2.96875 C 10.960938 -5.300781 8.242188 -8.507812 6.390625 -12.59375 C 4.535156 -16.675781 3.609375 -21.300781 3.609375 -26.46875 C 3.609375 -31.632812 4.535156 -36.285156 6.390625 -40.421875 C 8.242188 -44.554688 10.972656 -47.8125 14.578125 -50.1875 C 18.191406 -52.570312 22.507812 -53.765625 27.53125 -53.765625 C 32.488281 -53.765625 36.757812 -52.585938 40.34375 -50.234375 C 43.925781 -47.878906 46.644531 -44.632812 48.5 -40.5 C 50.351562 -36.363281 51.28125 -31.660156 51.28125 -26.390625 C 51.28125 -21.179688 50.351562 -16.546875 48.5 -12.484375 C 46.644531 -8.421875 43.925781 -5.234375 40.34375 -2.921875 C 36.757812 -0.617188 32.488281 0.53125 27.53125 0.53125 Z M 27.453125 -6.546875 C 30.660156 -6.546875 33.441406 -7.394531 35.796875 -9.09375 C 38.148438 -10.800781 39.953125 -13.171875 41.203125 -16.203125 C 42.460938 -19.234375 43.09375 -22.679688 43.09375 -26.546875 C 43.09375 -30.410156 42.460938 -33.859375 41.203125 -36.890625 C 39.953125 -39.921875 38.148438 -42.3125 35.796875 -44.0625 C 33.441406 -45.820312 30.660156 -46.703125 27.453125 -46.703125 C 24.242188 -46.703125 21.457031 -45.820312 19.09375 -44.0625 C 16.738281 -42.3125 14.9375 -39.90625 13.6875 -36.84375 C 12.4375 -33.789062 11.8125 -30.359375 11.8125 -26.546875 C 11.8125 -22.734375 12.4375 -19.3125 13.6875 -16.28125 C 14.9375 -13.25 16.738281 -10.867188 19.09375 -9.140625 C 21.457031 -7.410156 24.242188 -6.546875 27.453125 -6.546875 Z M 27.453125 -6.546875 "/></g></g></g><g fill="#000000" fill-opacity="1"><g transform="translate(301.151398, 87.78001)"><g><path d="M 23.09375 0.609375 C 18.976562 0.609375 15.453125 -0.226562 12.515625 -1.90625 C 9.585938 -3.59375 7.382812 -5.765625 5.90625 -8.421875 C 4.425781 -11.078125 3.6875 -13.859375 3.6875 -16.765625 L 3.6875 -17.140625 L 12.265625 -17.140625 L 12.265625 -16.765625 C 12.265625 -15.160156 12.640625 -13.566406 13.390625 -11.984375 C 14.140625 -10.410156 15.34375 -9.082031 17 -8 C 18.65625 -6.925781 20.734375 -6.390625 23.234375 -6.390625 C 26.296875 -6.390625 28.789062 -7.164062 30.71875 -8.71875 C 32.644531 -10.28125 33.609375 -12.390625 33.609375 -15.046875 C 33.609375 -17.242188 32.867188 -18.992188 31.390625 -20.296875 C 29.910156 -21.609375 28.046875 -22.488281 25.796875 -22.9375 L 18.578125 -24.359375 C 15.421875 -25.015625 12.375 -26.359375 9.4375 -28.390625 C 6.5 -30.421875 5.03125 -33.816406 5.03125 -38.578125 C 5.03125 -41.640625 5.769531 -44.320312 7.25 -46.625 C 8.726562 -48.925781 10.796875 -50.691406 13.453125 -51.921875 C 16.117188 -53.148438 19.15625 -53.765625 22.5625 -53.765625 C 26.46875 -53.765625 29.820312 -52.988281 32.625 -51.4375 C 35.4375 -49.882812 37.554688 -47.863281 38.984375 -45.375 C 40.421875 -42.894531 41.140625 -40.304688 41.140625 -37.609375 L 41.140625 -37.296875 L 32.5625 -37.296875 L 32.5625 -37.53125 C 32.5625 -38.882812 32.234375 -40.285156 31.578125 -41.734375 C 30.929688 -43.191406 29.84375 -44.429688 28.3125 -45.453125 C 26.78125 -46.484375 24.785156 -47 22.328125 -47 C 19.421875 -47 17.128906 -46.207031 15.453125 -44.625 C 13.773438 -43.050781 12.9375 -41.085938 12.9375 -38.734375 C 12.9375 -36.671875 13.648438 -34.988281 15.078125 -33.6875 C 16.503906 -32.382812 18.375 -31.507812 20.6875 -31.0625 L 27.375 -29.703125 C 31.238281 -28.898438 34.609375 -27.421875 37.484375 -25.265625 C 40.367188 -23.109375 41.8125 -19.773438 41.8125 -15.265625 C 41.8125 -12.160156 41.019531 -9.40625 39.4375 -7 C 37.863281 -4.59375 35.660156 -2.722656 32.828125 -1.390625 C 29.992188 -0.0546875 26.75 0.609375 23.09375 0.609375 Z M 23.09375 0.609375 "/></g></g></g></g></g><path stroke-linecap="butt" transform="matrix(0.75, 0, 0, 0.75, 24.113717, 191.506336)" fill="none" stroke-linejoin="miter" d="M -0.000580782 1.001968 L 448.207782 1.001968 " stroke="#000000" stroke-width="2" stroke-opacity="1" stroke-miterlimit="4"/></svg>