<svg xmlns="http://www.w3.org/2000/svg" xmlns:xlink="http://www.w3.org/1999/xlink" width="500" zoomAndPan="magnify" viewBox="0 0 375 374.999991" height="500" preserveAspectRatio="xMidYMid meet" version="1.0"><defs><g/><clipPath id="e0d0164163"><rect x="0" width="347" y="0" height="110"/></clipPath></defs><g fill="#000000" fill-opacity="1"><g transform="translate(35.294799, 217.585063)"><g><path d="M 4.5 0 L 3.671875 0 C 3.296875 0.0390625 2.976562 0.234375 2.71875 0.578125 C 2.46875 0.929688 2.34375 1.347656 2.34375 1.828125 C 2.34375 2.503906 2.617188 2.84375 3.171875 2.84375 C 3.515625 2.84375 3.847656 2.703125 4.171875 2.421875 L 4.171875 3.65625 C 3.585938 4.164062 2.828125 4.421875 1.890625 4.421875 C 0.515625 4.421875 -0.171875 3.851562 -0.171875 2.71875 C -0.171875 2.082031 0.015625 1.503906 0.390625 0.984375 C 0.765625 0.472656 1.222656 0.09375 1.765625 -0.15625 L 1.765625 -13.6875 L 4.5 -13.6875 Z M 4.5 0 "/></g></g></g><g fill="#000000" fill-opacity="1"><g transform="translate(46.163447, 217.585063)"><g><path d="M 6.3125 -13.96875 C 7.875 -13.96875 9.066406 -13.578125 9.890625 -12.796875 C 10.710938 -12.015625 11.207031 -10.96875 11.375 -9.65625 L 8.578125 -9.65625 C 8.492188 -10.375 8.253906 -10.929688 7.859375 -11.328125 C 7.460938 -11.722656 6.914062 -11.921875 6.21875 -11.921875 C 5.644531 -11.921875 5.175781 -11.78125 4.8125 -11.5 C 4.457031 -11.226562 4.28125 -10.828125 4.28125 -10.296875 C 4.28125 -9.710938 4.492188 -9.253906 4.921875 -8.921875 C 5.359375 -8.597656 6.117188 -8.3125 7.203125 -8.0625 C 8.703125 -7.71875 9.800781 -7.191406 10.5 -6.484375 C 11.207031 -5.785156 11.5625 -4.878906 11.5625 -3.765625 C 11.5625 -2.523438 11.070312 -1.539062 10.09375 -0.8125 C 9.113281 -0.0820312 7.921875 0.28125 6.515625 0.28125 C 4.847656 0.28125 3.515625 -0.0820312 2.515625 -0.8125 C 1.523438 -1.550781 0.960938 -2.628906 0.828125 -4.046875 L 3.625 -4.046875 C 3.769531 -3.316406 4.097656 -2.753906 4.609375 -2.359375 C 5.128906 -1.960938 5.75 -1.765625 6.46875 -1.765625 C 7.101562 -1.765625 7.632812 -1.921875 8.0625 -2.234375 C 8.5 -2.554688 8.71875 -2.976562 8.71875 -3.5 C 8.71875 -4.070312 8.507812 -4.535156 8.09375 -4.890625 C 7.675781 -5.253906 6.96875 -5.554688 5.96875 -5.796875 C 4.4375 -6.160156 3.289062 -6.648438 2.53125 -7.265625 C 1.78125 -7.890625 1.40625 -8.789062 1.40625 -9.96875 C 1.40625 -11.175781 1.878906 -12.144531 2.828125 -12.875 C 3.785156 -13.601562 4.945312 -13.96875 6.3125 -13.96875 Z M 6.3125 -13.96875 "/></g></g></g><g fill="#000000" fill-opacity="1"><g transform="translate(63.297792, 217.585063)"><g><path d="M 4.5 0 L 1.765625 0 L 1.765625 -13.6875 L 4.5 -13.6875 Z M 4.5 0 "/></g></g></g><g fill="#000000" fill-opacity="1"><g transform="translate(74.16644, 217.585063)"><g><path d="M 6.3125 -13.96875 C 7.875 -13.96875 9.066406 -13.578125 9.890625 -12.796875 C 10.710938 -12.015625 11.207031 -10.96875 11.375 -9.65625 L 8.578125 -9.65625 C 8.492188 -10.375 8.253906 -10.929688 7.859375 -11.328125 C 7.460938 -11.722656 6.914062 -11.921875 6.21875 -11.921875 C 5.644531 -11.921875 5.175781 -11.78125 4.8125 -11.5 C 4.457031 -11.226562 4.28125 -10.828125 4.28125 -10.296875 C 4.28125 -9.710938 4.492188 -9.253906 4.921875 -8.921875 C 5.359375 -8.597656 6.117188 -8.3125 7.203125 -8.0625 C 8.703125 -7.71875 9.800781 -7.191406 10.5 -6.484375 C 11.207031 -5.785156 11.5625 -4.878906 11.5625 -3.765625 C 11.5625 -2.523438 11.070312 -1.539062 10.09375 -0.8125 C 9.113281 -0.0820312 7.921875 0.28125 6.515625 0.28125 C 4.847656 0.28125 3.515625 -0.0820312 2.515625 -0.8125 C 1.523438 -1.550781 0.960938 -2.628906 0.828125 -4.046875 L 3.625 -4.046875 C 3.769531 -3.316406 4.097656 -2.753906 4.609375 -2.359375 C 5.128906 -1.960938 5.75 -1.765625 6.46875 -1.765625 C 7.101562 -1.765625 7.632812 -1.921875 8.0625 -2.234375 C 8.5 -2.554688 8.71875 -2.976562 8.71875 -3.5 C 8.71875 -4.070312 8.507812 -4.535156 8.09375 -4.890625 C 7.675781 -5.253906 6.96875 -5.554688 5.96875 -5.796875 C 4.4375 -6.160156 3.289062 -6.648438 2.53125 -7.265625 C 1.78125 -7.890625 1.40625 -8.789062 1.40625 -9.96875 C 1.40625 -11.175781 1.878906 -12.144531 2.828125 -12.875 C 3.785156 -13.601562 4.945312 -13.96875 6.3125 -13.96875 Z M 6.3125 -13.96875 "/></g></g></g><g fill="#000000" fill-opacity="1"><g transform="translate(91.300785, 217.585063)"><g><path d="M 11.09375 1.828125 C 11.09375 2.503906 11.367188 2.84375 11.921875 2.84375 C 12.265625 2.84375 12.597656 2.703125 12.921875 2.421875 L 12.921875 3.65625 C 12.335938 4.164062 11.578125 4.421875 10.640625 4.421875 C 9.265625 4.421875 8.578125 3.851562 8.578125 2.71875 C 8.578125 2.09375 8.757812 1.519531 9.125 1 C 9.5 0.488281 9.957031 0.109375 10.5 -0.140625 L 9.1875 -4.125 L 4.578125 -4.125 L 3.21875 0 L 0.296875 0 L 5.234375 -13.6875 L 8.671875 -13.6875 L 13.515625 0 L 12.421875 0 C 12.046875 0.0390625 11.726562 0.234375 11.46875 0.578125 C 11.21875 0.929688 11.09375 1.347656 11.09375 1.828125 Z M 6.90625 -11.34375 L 5.28125 -6.296875 L 8.5 -6.296875 Z M 6.90625 -11.34375 "/></g></g></g><g fill="#000000" fill-opacity="1"><g transform="translate(109.783438, 217.585063)"><g><path d="M 16.53125 -13.6875 L 16.53125 0 L 13.796875 0 L 13.796875 -6.328125 C 13.796875 -8.492188 13.804688 -10.054688 13.828125 -11.015625 C 13.460938 -9.421875 13.039062 -7.863281 12.5625 -6.34375 L 10.640625 0 L 7.65625 0 L 5.6875 -6.375 C 5.1875 -8.050781 4.78125 -9.59375 4.46875 -11 C 4.488281 -10.039062 4.5 -8.484375 4.5 -6.328125 L 4.5 0 L 1.765625 0 L 1.765625 -13.6875 L 6.09375 -13.6875 L 9.1875 -2.515625 L 12.28125 -13.6875 Z M 16.53125 -13.6875 "/></g></g></g><g fill="#000000" fill-opacity="1"><g transform="translate(132.648114, 217.585063)"><g><path d="M 7.78125 -13.96875 C 9.875 -13.96875 11.523438 -13.320312 12.734375 -12.03125 C 13.941406 -10.738281 14.546875 -9.007812 14.546875 -6.84375 C 14.546875 -4.6875 13.941406 -2.957031 12.734375 -1.65625 C 11.523438 -0.363281 9.875 0.28125 7.78125 0.28125 C 5.6875 0.28125 4.035156 -0.363281 2.828125 -1.65625 C 1.617188 -2.957031 1.015625 -4.6875 1.015625 -6.84375 C 1.015625 -9.007812 1.613281 -10.738281 2.8125 -12.03125 C 4.019531 -13.320312 5.675781 -13.96875 7.78125 -13.96875 Z M 4.90625 -3.09375 C 5.601562 -2.207031 6.5625 -1.765625 7.78125 -1.765625 C 9 -1.765625 9.953125 -2.210938 10.640625 -3.109375 C 11.328125 -4.015625 11.671875 -5.257812 11.671875 -6.84375 C 11.671875 -8.445312 11.328125 -9.691406 10.640625 -10.578125 C 9.953125 -11.472656 9 -11.921875 7.78125 -11.921875 C 6.550781 -11.921875 5.59375 -11.472656 4.90625 -10.578125 C 4.21875 -9.691406 3.875 -8.445312 3.875 -6.84375 C 3.875 -5.238281 4.21875 -3.988281 4.90625 -3.09375 Z M 4.90625 -3.09375 "/></g></g></g><g fill="#000000" fill-opacity="1"><g transform="translate(152.895469, 217.585063)"><g><path d="M 13.796875 0 L 10.046875 0 L 4.40625 -10.390625 C 4.46875 -9.148438 4.5 -7.75 4.5 -6.1875 L 4.5 0 L 1.765625 0 L 1.765625 -13.6875 L 5.390625 -13.6875 L 11.15625 -3.09375 C 11.082031 -4.320312 11.046875 -5.757812 11.046875 -7.40625 L 11.046875 -13.6875 L 13.765625 -13.6875 Z M 13.796875 0 "/></g></g></g><g fill="#000000" fill-opacity="1"><g transform="translate(173.043684, 217.585063)"><g><path d="M 4.5 0 L 1.765625 0 L 1.765625 -13.6875 L 4.5 -13.6875 Z M 4.5 0 "/></g></g></g><g fill="#000000" fill-opacity="1"><g transform="translate(183.912332, 217.585063)"><g><path d="M 13.796875 0 L 10.046875 0 L 4.40625 -10.390625 C 4.46875 -9.148438 4.5 -7.75 4.5 -6.1875 L 4.5 0 L 1.765625 0 L 1.765625 -13.6875 L 5.390625 -13.6875 L 11.15625 -3.09375 C 11.082031 -4.320312 11.046875 -5.757812 11.046875 -7.40625 L 11.046875 -13.6875 L 13.765625 -13.6875 Z M 13.796875 0 "/></g></g></g><g fill="#000000" fill-opacity="1"><g transform="translate(204.060546, 217.585063)"><g><path d="M 12.484375 -11.546875 L 7.84375 -11.546875 L 7.84375 0 L 5.09375 0 L 5.09375 -11.546875 L 0.453125 -11.546875 L 0.453125 -13.6875 L 12.484375 -13.6875 Z M 12.484375 -11.546875 "/></g></g></g><g fill="#000000" fill-opacity="1"><g transform="translate(221.492311, 217.585063)"><g><path d="M 9.1875 -4.125 L 4.578125 -4.125 L 3.21875 0 L 0.296875 0 L 5.234375 -13.6875 L 8.671875 -13.6875 L 13.515625 0 L 10.53125 0 Z M 6.90625 -11.34375 L 5.28125 -6.296875 L 8.5 -6.296875 Z M 6.90625 -11.34375 "/></g></g></g><g fill="#000000" fill-opacity="1"><g transform="translate(239.974977, 217.585063)"><g/></g></g><g fill="#000000" fill-opacity="1"><g transform="translate(248.900452, 217.585063)"><g><path d="M 16.53125 -13.6875 L 16.53125 0 L 13.796875 0 L 13.796875 -6.328125 C 13.796875 -8.492188 13.804688 -10.054688 13.828125 -11.015625 C 13.460938 -9.421875 13.039062 -7.863281 12.5625 -6.34375 L 10.640625 0 L 7.65625 0 L 5.6875 -6.375 C 5.1875 -8.050781 4.78125 -9.59375 4.46875 -11 C 4.488281 -10.039062 4.5 -8.484375 4.5 -6.328125 L 4.5 0 L 1.765625 0 L 1.765625 -13.6875 L 6.09375 -13.6875 L 9.1875 -2.515625 L 12.28125 -13.6875 Z M 16.53125 -13.6875 "/></g></g></g><g fill="#000000" fill-opacity="1"><g transform="translate(271.765128, 217.585063)"><g><path d="M 4.5 0 L 1.765625 0 L 1.765625 -13.6875 L 4.5 -13.6875 Z M 4.5 0 "/></g></g></g><g fill="#000000" fill-opacity="1"><g transform="translate(282.633788, 217.585063)"><g><path d="M 12.484375 -11.546875 L 7.84375 -11.546875 L 7.84375 0 L 5.09375 0 L 5.09375 -11.546875 L 0.453125 -11.546875 L 0.453125 -13.6875 L 12.484375 -13.6875 Z M 12.484375 -11.546875 "/></g></g></g><g fill="#000000" fill-opacity="1"><g transform="translate(300.065541, 217.585063)"><g><path d="M 7.875 -5.296875 L 7.875 0 L 5.15625 0 L 5.15625 -5.296875 L 0.3125 -13.6875 L 3.40625 -13.6875 L 6.609375 -7.71875 L 9.703125 -13.6875 L 12.71875 -13.6875 Z M 7.875 -5.296875 "/></g></g></g><g fill="#000000" fill-opacity="1"><g transform="translate(317.556781, 217.585063)"><g><path d="M 9.765625 -7.375 C 11.523438 -6.925781 12.40625 -5.832031 12.40625 -4.09375 C 12.40625 -2.914062 12.035156 -1.988281 11.296875 -1.3125 C 10.566406 -0.632812 9.6875 -0.222656 8.65625 -0.078125 C 8.1875 -0.0234375 7.550781 0 6.75 0 L 1.765625 0 L 1.765625 -13.6875 L 6.671875 -13.6875 C 7.398438 -13.6875 7.988281 -13.660156 8.4375 -13.609375 C 9.53125 -13.484375 10.378906 -13.113281 10.984375 -12.5 C 11.585938 -11.894531 11.890625 -11.128906 11.890625 -10.203125 C 11.890625 -8.804688 11.179688 -7.863281 9.765625 -7.375 Z M 4.5 -11.546875 L 4.5 -8.078125 L 6.5625 -8.078125 C 6.894531 -8.078125 7.222656 -8.097656 7.546875 -8.140625 C 8.535156 -8.296875 9.03125 -8.863281 9.03125 -9.84375 C 9.03125 -10.8125 8.515625 -11.359375 7.484375 -11.484375 C 7.160156 -11.523438 6.828125 -11.546875 6.484375 -11.546875 Z M 7.796875 -2.1875 C 8.296875 -2.226562 8.707031 -2.410156 9.03125 -2.734375 C 9.363281 -3.066406 9.53125 -3.507812 9.53125 -4.0625 C 9.53125 -5.21875 8.941406 -5.851562 7.765625 -5.96875 C 7.429688 -6.007812 7.101562 -6.03125 6.78125 -6.03125 L 4.5 -6.03125 L 4.5 -2.15625 L 6.890625 -2.15625 C 7.328125 -2.15625 7.628906 -2.164062 7.796875 -2.1875 Z M 7.796875 -2.1875 "/></g></g></g><g fill="#000000" fill-opacity="1"><g transform="translate(335.662684, 217.585063)"><g><path d="M 9.1875 -4.125 L 4.578125 -4.125 L 3.21875 0 L 0.296875 0 L 5.234375 -13.6875 L 8.671875 -13.6875 L 13.515625 0 L 10.53125 0 Z M 6.90625 -11.34375 L 5.28125 -6.296875 L 8.5 -6.296875 Z M 6.90625 -11.34375 "/></g></g></g><g transform="matrix(1, 0, 0, 1, 18, 85)"><g clip-path="url(#e0d0164163)"><g fill="#000000" fill-opacity="1"><g transform="translate(2.003665, 87.779952)"><g><path d="M 5.1875 -52.640625 L 26.625 -52.640625 C 30.082031 -52.640625 32.925781 -51.988281 35.15625 -50.6875 C 37.382812 -49.382812 39 -47.71875 40 -45.6875 C 41.007812 -43.65625 41.515625 -41.507812 41.515625 -39.25 C 41.515625 -37.050781 41.0625 -35.148438 40.15625 -33.546875 C 39.257812 -31.941406 38.144531 -30.675781 36.8125 -29.75 C 35.476562 -28.820312 34.210938 -28.226562 33.015625 -27.96875 L 33.015625 -27.53125 C 34.421875 -27.375 35.972656 -26.859375 37.671875 -25.984375 C 39.378906 -25.109375 40.867188 -23.765625 42.140625 -21.953125 C 43.421875 -20.148438 44.0625 -17.867188 44.0625 -15.109375 C 44.0625 -12.609375 43.5 -10.203125 42.375 -7.890625 C 41.25 -5.585938 39.484375 -3.695312 37.078125 -2.21875 C 34.671875 -0.738281 31.632812 0 27.96875 0 L 5.1875 0 Z M 24.359375 -29.9375 C 26.972656 -29.9375 29.242188 -30.625 31.171875 -32 C 33.097656 -33.375 34.0625 -35.492188 34.0625 -38.359375 C 34.0625 -41.109375 33.132812 -43.109375 31.28125 -44.359375 C 29.425781 -45.617188 27.117188 -46.25 24.359375 -46.25 L 12.78125 -46.25 L 12.78125 -29.9375 Z M 26.09375 -6.390625 C 29 -6.390625 31.46875 -7.078125 33.5 -8.453125 C 35.53125 -9.835938 36.546875 -12.132812 36.546875 -15.34375 C 36.546875 -18.445312 35.53125 -20.675781 33.5 -22.03125 C 31.46875 -23.382812 29 -24.0625 26.09375 -24.0625 L 12.78125 -24.0625 L 12.78125 -6.390625 Z M 26.09375 -6.390625 "/></g></g></g><g fill="#000000" fill-opacity="1"><g transform="translate(48.928791, 87.779952)"><g><path d="M 13.078125 -45.71875 L 13.078125 -29.9375 L 35.125 -29.9375 L 35.125 -23.6875 L 13.078125 -23.6875 L 13.078125 -6.921875 L 38.421875 -6.921875 L 38.421875 0 L 5.1875 0 L 5.1875 -52.640625 L 38.421875 -52.640625 L 38.421875 -45.71875 Z M 13.078125 -45.71875 "/></g></g></g><g fill="#000000" fill-opacity="1"><g transform="translate(91.642704, 87.779952)"><g/></g></g><g fill="#000000" fill-opacity="1"><g transform="translate(108.938836, 87.779952)"><g><path d="M 3.765625 -7.140625 L 32.265625 -45.34375 L 32.265625 -45.5 L 3.765625 -45.5 L 3.765625 -52.640625 L 41.65625 -52.640625 L 41.65625 -45.5 L 13.078125 -7.296875 L 13.078125 -7.140625 L 41.65625 -7.140625 L 41.65625 0 L 3.765625 0 Z M 17.296875 -68.890625 L 22.9375 -62.578125 L 23.234375 -62.578125 L 29.015625 -68.890625 L 36.546875 -68.890625 L 26.3125 -57.609375 L 20 -57.609375 L 9.84375 -68.890625 Z M 17.296875 -68.890625 "/></g></g></g><g fill="#000000" fill-opacity="1"><g transform="translate(155.262374, 87.779952)"><g><path d="M 35.71875 -14.515625 L 15.34375 -14.515625 L 10.296875 0 L 2.40625 0 L 21.890625 -52.640625 L 29.25 -52.640625 L 48.8125 0 L 40.90625 0 Z M 33.546875 -20.6875 L 25.640625 -42.796875 L 25.265625 -42.796875 L 17.515625 -20.6875 Z M 33.546875 -20.6875 "/></g></g></g><g fill="#000000" fill-opacity="1"><g transform="translate(206.248342, 87.779952)"><g><path d="M 37 -6.921875 L 37 0 L 5.1875 0 L 5.1875 -52.640625 L 13.078125 -52.640625 L 13.015625 -6.921875 Z M 37 -6.921875 "/></g></g></g><g fill="#000000" fill-opacity="1"><g transform="translate(246.104623, 87.779952)"><g><path d="M 27.53125 0.53125 C 22.457031 0.53125 18.128906 -0.632812 14.546875 -2.96875 C 10.960938 -5.300781 8.242188 -8.507812 6.390625 -12.59375 C 4.535156 -16.675781 3.609375 -21.300781 3.609375 -26.46875 C 3.609375 -31.632812 4.535156 -36.285156 6.390625 -40.421875 C 8.242188 -44.554688 10.972656 -47.8125 14.578125 -50.1875 C 18.191406 -52.570312 22.507812 -53.765625 27.53125 -53.765625 C 32.488281 -53.765625 36.757812 -52.585938 40.34375 -50.234375 C 43.925781 -47.878906 46.644531 -44.632812 48.5 -40.5 C 50.351562 -36.363281 51.28125 -31.660156 51.28125 -26.390625 C 51.28125 -21.179688 50.351562 -16.546875 48.5 -12.484375 C 46.644531 -8.421875 43.925781 -5.234375 40.34375 -2.921875 C 36.757812 -0.617188 32.488281 0.53125 27.53125 0.53125 Z M 27.453125 -6.546875 C 30.660156 -6.546875 33.441406 -7.394531 35.796875 -9.09375 C 38.148438 -10.800781 39.953125 -13.171875 41.203125 -16.203125 C 42.460938 -19.234375 43.09375 -22.679688 43.09375 -26.546875 C 43.09375 -30.410156 42.460938 -33.859375 41.203125 -36.890625 C 39.953125 -39.921875 38.148438 -42.3125 35.796875 -44.0625 C 33.441406 -45.820312 30.660156 -46.703125 27.453125 -46.703125 C 24.242188 -46.703125 21.457031 -45.820312 19.09375 -44.0625 C 16.738281 -42.3125 14.9375 -39.90625 13.6875 -36.84375 C 12.4375 -33.789062 11.8125 -30.359375 11.8125 -26.546875 C 11.8125 -22.734375 12.4375 -19.3125 13.6875 -16.28125 C 14.9375 -13.25 16.738281 -10.867188 19.09375 -9.140625 C 21.457031 -7.410156 24.242188 -6.546875 27.453125 -6.546875 Z M 27.453125 -6.546875 "/></g></g></g><g fill="#000000" fill-opacity="1"><g transform="translate(301.151398, 87.779952)"><g><path d="M 23.09375 0.609375 C 18.976562 0.609375 15.453125 -0.226562 12.515625 -1.90625 C 9.585938 -3.59375 7.382812 -5.765625 5.90625 -8.421875 C 4.425781 -11.078125 3.6875 -13.859375 3.6875 -16.765625 L 3.6875 -17.140625 L 12.265625 -17.140625 L 12.265625 -16.765625 C 12.265625 -15.160156 12.640625 -13.566406 13.390625 -11.984375 C 14.140625 -10.410156 15.34375 -9.082031 17 -8 C 18.65625 -6.925781 20.734375 -6.390625 23.234375 -6.390625 C 26.296875 -6.390625 28.789062 -7.164062 30.71875 -8.71875 C 32.644531 -10.28125 33.609375 -12.390625 33.609375 -15.046875 C 33.609375 -17.242188 32.867188 -18.992188 31.390625 -20.296875 C 29.910156 -21.609375 28.046875 -22.488281 25.796875 -22.9375 L 18.578125 -24.359375 C 15.421875 -25.015625 12.375 -26.359375 9.4375 -28.390625 C 6.5 -30.421875 5.03125 -33.816406 5.03125 -38.578125 C 5.03125 -41.640625 5.769531 -44.320312 7.25 -46.625 C 8.726562 -48.925781 10.796875 -50.691406 13.453125 -51.921875 C 16.117188 -53.148438 19.15625 -53.765625 22.5625 -53.765625 C 26.46875 -53.765625 29.820312 -52.988281 32.625 -51.4375 C 35.4375 -49.882812 37.554688 -47.863281 38.984375 -45.375 C 40.421875 -42.894531 41.140625 -40.304688 41.140625 -37.609375 L 41.140625 -37.296875 L 32.5625 -37.296875 L 32.5625 -37.53125 C 32.5625 -38.882812 32.234375 -40.285156 31.578125 -41.734375 C 30.929688 -43.191406 29.84375 -44.429688 28.3125 -45.453125 C 26.78125 -46.484375 24.785156 -47 22.328125 -47 C 19.421875 -47 17.128906 -46.207031 15.453125 -44.625 C 13.773438 -43.050781 12.9375 -41.085938 12.9375 -38.734375 C 12.9375 -36.671875 13.648438 -34.988281 15.078125 -33.6875 C 16.503906 -32.382812 18.375 -31.507812 20.6875 -31.0625 L 27.375 -29.703125 C 31.238281 -28.898438 34.609375 -27.421875 37.484375 -25.265625 C 40.367188 -23.109375 41.8125 -19.773438 41.8125 -15.265625 C 41.8125 -12.160156 41.019531 -9.40625 39.4375 -7 C 37.863281 -4.59375 35.660156 -2.722656 32.828125 -1.390625 C 29.992188 -0.0546875 26.75 0.609375 23.09375 0.609375 Z M 23.09375 0.609375 "/></g></g></g></g></g><path stroke-linecap="butt" transform="matrix(0.75, 0, 0, 0.75, 24.113717, 191.506394)" fill="none" stroke-linejoin="miter" d="M -0.000580782 1.001892 L 448.207782 1.001892 " stroke="#000000" stroke-width="2" stroke-opacity="1" stroke-miterlimit="4"/></svg>