<svg xmlns="http://www.w3.org/2000/svg" xmlns:xlink="http://www.w3.org/1999/xlink" width="500" zoomAndPan="magnify" viewBox="0 0 375 374.999991" height="500" preserveAspectRatio="xMidYMid meet" version="1.0"><defs><g/><clipPath id="090ae80fcc"><rect x="0" width="347" y="0" height="110"/></clipPath></defs><g fill="#000000" fill-opacity="1"><g transform="translate(19.44923, 220.215103)"><g><path d="M 4.953125 0 L 4.03125 0 C 3.625 0.0390625 3.28125 0.253906 3 0.640625 C 2.71875 1.023438 2.578125 1.484375 2.578125 2.015625 C 2.578125 2.753906 2.882812 3.125 3.5 3.125 C 3.875 3.125 4.234375 2.96875 4.578125 2.65625 L 4.578125 4.015625 C 3.941406 4.585938 3.109375 4.875 2.078125 4.875 C 0.554688 4.875 -0.203125 4.242188 -0.203125 2.984375 C -0.203125 2.285156 0.00390625 1.648438 0.421875 1.078125 C 0.835938 0.515625 1.34375 0.0976562 1.9375 -0.171875 L 1.9375 -15.0625 L 4.953125 -15.0625 Z M 4.953125 0 "/></g></g></g><g fill="#000000" fill-opacity="1"><g transform="translate(31.415034, 220.215103)"><g><path d="M 6.9375 -15.359375 C 8.65625 -15.359375 9.96875 -14.929688 10.875 -14.078125 C 11.789062 -13.222656 12.332031 -12.070312 12.5 -10.625 L 9.4375 -10.625 C 9.34375 -11.414062 9.078125 -12.03125 8.640625 -12.46875 C 8.203125 -12.90625 7.597656 -13.125 6.828125 -13.125 C 6.203125 -13.125 5.691406 -12.96875 5.296875 -12.65625 C 4.910156 -12.351562 4.71875 -11.910156 4.71875 -11.328125 C 4.71875 -10.691406 4.953125 -10.191406 5.421875 -9.828125 C 5.898438 -9.460938 6.734375 -9.140625 7.921875 -8.859375 C 9.566406 -8.484375 10.773438 -7.910156 11.546875 -7.140625 C 12.328125 -6.367188 12.71875 -5.367188 12.71875 -4.140625 C 12.71875 -2.773438 12.179688 -1.691406 11.109375 -0.890625 C 10.035156 -0.0859375 8.71875 0.3125 7.15625 0.3125 C 5.320312 0.3125 3.859375 -0.09375 2.765625 -0.90625 C 1.679688 -1.71875 1.066406 -2.898438 0.921875 -4.453125 L 4 -4.453125 C 4.15625 -3.648438 4.515625 -3.03125 5.078125 -2.59375 C 5.648438 -2.15625 6.328125 -1.9375 7.109375 -1.9375 C 7.804688 -1.9375 8.390625 -2.109375 8.859375 -2.453125 C 9.335938 -2.804688 9.578125 -3.269531 9.578125 -3.84375 C 9.578125 -4.476562 9.347656 -4.992188 8.890625 -5.390625 C 8.429688 -5.785156 7.65625 -6.113281 6.5625 -6.375 C 4.875 -6.78125 3.613281 -7.320312 2.78125 -8 C 1.957031 -8.675781 1.546875 -9.660156 1.546875 -10.953125 C 1.546875 -12.296875 2.066406 -13.363281 3.109375 -14.15625 C 4.160156 -14.957031 5.4375 -15.359375 6.9375 -15.359375 Z M 6.9375 -15.359375 "/></g></g></g><g fill="#000000" fill-opacity="1"><g transform="translate(50.279783, 220.215103)"><g><path d="M 4.953125 0 L 1.9375 0 L 1.9375 -15.0625 L 4.953125 -15.0625 Z M 4.953125 0 "/></g></g></g><g fill="#000000" fill-opacity="1"><g transform="translate(62.245587, 220.215103)"><g><path d="M 6.9375 -15.359375 C 8.65625 -15.359375 9.96875 -14.929688 10.875 -14.078125 C 11.789062 -13.222656 12.332031 -12.070312 12.5 -10.625 L 9.4375 -10.625 C 9.34375 -11.414062 9.078125 -12.03125 8.640625 -12.46875 C 8.203125 -12.90625 7.597656 -13.125 6.828125 -13.125 C 6.203125 -13.125 5.691406 -12.96875 5.296875 -12.65625 C 4.910156 -12.351562 4.71875 -11.910156 4.71875 -11.328125 C 4.71875 -10.691406 4.953125 -10.191406 5.421875 -9.828125 C 5.898438 -9.460938 6.734375 -9.140625 7.921875 -8.859375 C 9.566406 -8.484375 10.773438 -7.910156 11.546875 -7.140625 C 12.328125 -6.367188 12.71875 -5.367188 12.71875 -4.140625 C 12.71875 -2.773438 12.179688 -1.691406 11.109375 -0.890625 C 10.035156 -0.0859375 8.71875 0.3125 7.15625 0.3125 C 5.320312 0.3125 3.859375 -0.09375 2.765625 -0.90625 C 1.679688 -1.71875 1.066406 -2.898438 0.921875 -4.453125 L 4 -4.453125 C 4.15625 -3.648438 4.515625 -3.03125 5.078125 -2.59375 C 5.648438 -2.15625 6.328125 -1.9375 7.109375 -1.9375 C 7.804688 -1.9375 8.390625 -2.109375 8.859375 -2.453125 C 9.335938 -2.804688 9.578125 -3.269531 9.578125 -3.84375 C 9.578125 -4.476562 9.347656 -4.992188 8.890625 -5.390625 C 8.429688 -5.785156 7.65625 -6.113281 6.5625 -6.375 C 4.875 -6.78125 3.613281 -7.320312 2.78125 -8 C 1.957031 -8.675781 1.546875 -9.660156 1.546875 -10.953125 C 1.546875 -12.296875 2.066406 -13.363281 3.109375 -14.15625 C 4.160156 -14.957031 5.4375 -15.359375 6.9375 -15.359375 Z M 6.9375 -15.359375 "/></g></g></g><g fill="#000000" fill-opacity="1"><g transform="translate(81.110336, 220.215103)"><g><path d="M 12.203125 2.015625 C 12.203125 2.753906 12.507812 3.125 13.125 3.125 C 13.5 3.125 13.859375 2.96875 14.203125 2.65625 L 14.203125 4.015625 C 13.566406 4.585938 12.734375 4.875 11.703125 4.875 C 10.191406 4.875 9.4375 4.242188 9.4375 2.984375 C 9.4375 2.304688 9.640625 1.679688 10.046875 1.109375 C 10.453125 0.546875 10.953125 0.125 11.546875 -0.15625 L 10.109375 -4.546875 L 5.046875 -4.546875 L 3.53125 0 L 0.328125 0 L 5.765625 -15.0625 L 9.53125 -15.0625 L 14.859375 0 L 13.671875 0 C 13.253906 0.0390625 12.90625 0.253906 12.625 0.640625 C 12.34375 1.023438 12.203125 1.484375 12.203125 2.015625 Z M 7.59375 -12.484375 L 5.8125 -6.921875 L 9.34375 -6.921875 Z M 7.59375 -12.484375 "/></g></g></g><g fill="#000000" fill-opacity="1"><g transform="translate(101.459669, 220.215103)"><g><path d="M 18.1875 -15.0625 L 18.1875 0 L 15.171875 0 L 15.171875 -6.96875 C 15.171875 -9.351562 15.1875 -11.066406 15.21875 -12.109375 C 14.8125 -10.367188 14.34375 -8.660156 13.8125 -6.984375 L 11.703125 0 L 8.421875 0 L 6.265625 -7 C 5.710938 -8.851562 5.257812 -10.550781 4.90625 -12.09375 C 4.9375 -11.039062 4.953125 -9.332031 4.953125 -6.96875 L 4.953125 0 L 1.9375 0 L 1.9375 -15.0625 L 6.703125 -15.0625 L 10.109375 -2.765625 L 13.515625 -15.0625 Z M 18.1875 -15.0625 "/></g></g></g><g fill="#000000" fill-opacity="1"><g transform="translate(126.6339, 220.215103)"><g><path d="M 8.5625 -15.359375 C 10.851562 -15.359375 12.664062 -14.648438 14 -13.234375 C 15.332031 -11.816406 16 -9.914062 16 -7.53125 C 16 -5.15625 15.332031 -3.253906 14 -1.828125 C 12.664062 -0.398438 10.847656 0.3125 8.546875 0.3125 C 6.253906 0.3125 4.441406 -0.398438 3.109375 -1.828125 C 1.773438 -3.253906 1.109375 -5.15625 1.109375 -7.53125 C 1.109375 -9.914062 1.769531 -11.816406 3.09375 -13.234375 C 4.425781 -14.648438 6.25 -15.359375 8.5625 -15.359375 Z M 5.390625 -3.40625 C 6.160156 -2.425781 7.210938 -1.9375 8.546875 -1.9375 C 9.890625 -1.9375 10.9375 -2.429688 11.6875 -3.421875 C 12.445312 -4.410156 12.828125 -5.78125 12.828125 -7.53125 C 12.828125 -9.289062 12.445312 -10.660156 11.6875 -11.640625 C 10.9375 -12.628906 9.894531 -13.125 8.5625 -13.125 C 7.207031 -13.125 6.148438 -12.628906 5.390625 -11.640625 C 4.628906 -10.660156 4.25 -9.289062 4.25 -7.53125 C 4.25 -5.769531 4.628906 -4.394531 5.390625 -3.40625 Z M 5.390625 -3.40625 "/></g></g></g><g fill="#000000" fill-opacity="1"><g transform="translate(148.926291, 220.215103)"><g><path d="M 15.171875 0 L 11.046875 0 L 4.84375 -11.4375 C 4.914062 -10.070312 4.953125 -8.53125 4.953125 -6.8125 L 4.953125 0 L 1.9375 0 L 1.9375 -15.0625 L 5.9375 -15.0625 L 12.265625 -3.40625 C 12.191406 -4.757812 12.15625 -6.335938 12.15625 -8.140625 L 12.15625 -15.0625 L 15.15625 -15.0625 Z M 15.171875 0 "/></g></g></g><g fill="#000000" fill-opacity="1"><g transform="translate(171.109517, 220.215103)"><g><path d="M 4.953125 0 L 1.9375 0 L 1.9375 -15.0625 L 4.953125 -15.0625 Z M 4.953125 0 "/></g></g></g><g fill="#000000" fill-opacity="1"><g transform="translate(183.075321, 220.215103)"><g><path d="M 15.171875 0 L 11.046875 0 L 4.84375 -11.4375 C 4.914062 -10.070312 4.953125 -8.53125 4.953125 -6.8125 L 4.953125 0 L 1.9375 0 L 1.9375 -15.0625 L 5.9375 -15.0625 L 12.265625 -3.40625 C 12.191406 -4.757812 12.15625 -6.335938 12.15625 -8.140625 L 12.15625 -15.0625 L 15.15625 -15.0625 Z M 15.171875 0 "/></g></g></g><g fill="#000000" fill-opacity="1"><g transform="translate(205.258548, 220.215103)"><g><path d="M 13.734375 -12.703125 L 8.625 -12.703125 L 8.625 0 L 5.609375 0 L 5.609375 -12.703125 L 0.5 -12.703125 L 0.5 -15.0625 L 13.734375 -15.0625 Z M 13.734375 -12.703125 "/></g></g></g><g fill="#000000" fill-opacity="1"><g transform="translate(224.45078, 220.215103)"><g><path d="M 10.109375 -4.546875 L 5.046875 -4.546875 L 3.53125 0 L 0.328125 0 L 5.765625 -15.0625 L 9.53125 -15.0625 L 14.859375 0 L 11.59375 0 Z M 7.59375 -12.484375 L 5.8125 -6.921875 L 9.34375 -6.921875 Z M 7.59375 -12.484375 "/></g></g></g><g fill="#000000" fill-opacity="1"><g transform="translate(244.800113, 220.215103)"><g/></g></g><g fill="#000000" fill-opacity="1"><g transform="translate(254.626353, 220.215103)"><g><path d="M 18.1875 -15.0625 L 18.1875 0 L 15.171875 0 L 15.171875 -6.96875 C 15.171875 -9.351562 15.1875 -11.066406 15.21875 -12.109375 C 14.8125 -10.367188 14.34375 -8.660156 13.8125 -6.984375 L 11.703125 0 L 8.421875 0 L 6.265625 -7 C 5.710938 -8.851562 5.257812 -10.550781 4.90625 -12.09375 C 4.9375 -11.039062 4.953125 -9.332031 4.953125 -6.96875 L 4.953125 0 L 1.9375 0 L 1.9375 -15.0625 L 6.703125 -15.0625 L 10.109375 -2.765625 L 13.515625 -15.0625 Z M 18.1875 -15.0625 "/></g></g></g><g fill="#000000" fill-opacity="1"><g transform="translate(279.800607, 220.215103)"><g><path d="M 4.953125 0 L 1.9375 0 L 1.9375 -15.0625 L 4.953125 -15.0625 Z M 4.953125 0 "/></g></g></g><g fill="#000000" fill-opacity="1"><g transform="translate(291.766411, 220.215103)"><g><path d="M 13.734375 -12.703125 L 8.625 -12.703125 L 8.625 0 L 5.609375 0 L 5.609375 -12.703125 L 0.5 -12.703125 L 0.5 -15.0625 L 13.734375 -15.0625 Z M 13.734375 -12.703125 "/></g></g></g><g fill="#000000" fill-opacity="1"><g transform="translate(310.958633, 220.215103)"><g><path d="M 8.671875 -5.828125 L 8.671875 0 L 5.671875 0 L 5.671875 -5.828125 L 0.34375 -15.0625 L 3.75 -15.0625 L 7.265625 -8.484375 L 10.671875 -15.0625 L 13.984375 -15.0625 Z M 8.671875 -5.828125 "/></g></g></g><g fill="#000000" fill-opacity="1"><g transform="translate(330.21636, 220.215103)"><g><path d="M 10.734375 -8.125 C 12.671875 -7.625 13.640625 -6.414062 13.640625 -4.5 C 13.640625 -3.195312 13.234375 -2.175781 12.421875 -1.4375 C 11.617188 -0.695312 10.648438 -0.25 9.515625 -0.09375 C 9.003906 -0.03125 8.304688 0 7.421875 0 L 1.9375 0 L 1.9375 -15.0625 L 7.328125 -15.0625 C 8.128906 -15.0625 8.78125 -15.03125 9.28125 -14.96875 C 10.488281 -14.820312 11.421875 -14.414062 12.078125 -13.75 C 12.742188 -13.082031 13.078125 -12.238281 13.078125 -11.21875 C 13.078125 -9.6875 12.296875 -8.65625 10.734375 -8.125 Z M 4.953125 -12.703125 L 4.953125 -8.890625 L 7.21875 -8.890625 C 7.582031 -8.890625 7.941406 -8.910156 8.296875 -8.953125 C 9.390625 -9.128906 9.9375 -9.753906 9.9375 -10.828125 C 9.9375 -11.890625 9.367188 -12.492188 8.234375 -12.640625 C 7.878906 -12.679688 7.515625 -12.703125 7.140625 -12.703125 Z M 8.578125 -2.40625 C 9.128906 -2.445312 9.582031 -2.648438 9.9375 -3.015625 C 10.300781 -3.378906 10.484375 -3.863281 10.484375 -4.46875 C 10.484375 -5.738281 9.832031 -6.4375 8.53125 -6.5625 C 8.164062 -6.613281 7.8125 -6.640625 7.46875 -6.640625 L 4.953125 -6.640625 L 4.953125 -2.375 L 7.578125 -2.375 C 8.054688 -2.375 8.390625 -2.382812 8.578125 -2.40625 Z M 8.578125 -2.40625 "/></g></g></g><g fill="#000000" fill-opacity="1"><g transform="translate(350.150868, 220.215103)"><g><path d="M 10.109375 -4.546875 L 5.046875 -4.546875 L 3.53125 0 L 0.328125 0 L 5.765625 -15.0625 L 9.53125 -15.0625 L 14.859375 0 L 11.59375 0 Z M 7.59375 -12.484375 L 5.8125 -6.921875 L 9.34375 -6.921875 Z M 7.59375 -12.484375 "/></g></g></g><g transform="matrix(1, 0, 0, 1, 18, 85)"><g clip-path="url(#090ae80fcc)"><g fill="#000000" fill-opacity="1"><g transform="translate(2.003665, 87.779952)"><g><path d="M 5.1875 -52.640625 L 26.625 -52.640625 C 30.082031 -52.640625 32.925781 -51.988281 35.15625 -50.6875 C 37.382812 -49.382812 39 -47.71875 40 -45.6875 C 41.007812 -43.65625 41.515625 -41.507812 41.515625 -39.25 C 41.515625 -37.050781 41.0625 -35.148438 40.15625 -33.546875 C 39.257812 -31.941406 38.144531 -30.675781 36.8125 -29.75 C 35.476562 -28.820312 34.210938 -28.226562 33.015625 -27.96875 L 33.015625 -27.53125 C 34.421875 -27.375 35.972656 -26.859375 37.671875 -25.984375 C 39.378906 -25.109375 40.867188 -23.765625 42.140625 -21.953125 C 43.421875 -20.148438 44.0625 -17.867188 44.0625 -15.109375 C 44.0625 -12.609375 43.5 -10.203125 42.375 -7.890625 C 41.25 -5.585938 39.484375 -3.695312 37.078125 -2.21875 C 34.671875 -0.738281 31.632812 0 27.96875 0 L 5.1875 0 Z M 24.359375 -29.9375 C 26.972656 -29.9375 29.242188 -30.625 31.171875 -32 C 33.097656 -33.375 34.0625 -35.492188 34.0625 -38.359375 C 34.0625 -41.109375 33.132812 -43.109375 31.28125 -44.359375 C 29.425781 -45.617188 27.117188 -46.25 24.359375 -46.25 L 12.78125 -46.25 L 12.78125 -29.9375 Z M 26.09375 -6.390625 C 29 -6.390625 31.46875 -7.078125 33.5 -8.453125 C 35.53125 -9.835938 36.546875 -12.132812 36.546875 -15.34375 C 36.546875 -18.445312 35.53125 -20.675781 33.5 -22.03125 C 31.46875 -23.382812 29 -24.0625 26.09375 -24.0625 L 12.78125 -24.0625 L 12.78125 -6.390625 Z M 26.09375 -6.390625 "/></g></g></g><g fill="#000000" fill-opacity="1"><g transform="translate(48.928791, 87.779952)"><g><path d="M 13.078125 -45.71875 L 13.078125 -29.9375 L 35.125 -29.9375 L 35.125 -23.6875 L 13.078125 -23.6875 L 13.078125 -6.921875 L 38.421875 -6.921875 L 38.421875 0 L 5.1875 0 L 5.1875 -52.640625 L 38.421875 -52.640625 L 38.421875 -45.71875 Z M 13.078125 -45.71875 "/></g></g></g><g fill="#000000" fill-opacity="1"><g transform="translate(91.642704, 87.779952)"><g/></g></g><g fill="#000000" fill-opacity="1"><g transform="translate(108.938836, 87.779952)"><g><path d="M 3.765625 -7.140625 L 32.265625 -45.34375 L 32.265625 -45.5 L 3.765625 -45.5 L 3.765625 -52.640625 L 41.65625 -52.640625 L 41.65625 -45.5 L 13.078125 -7.296875 L 13.078125 -7.140625 L 41.65625 -7.140625 L 41.65625 0 L 3.765625 0 Z M 17.296875 -68.890625 L 22.9375 -62.578125 L 23.234375 -62.578125 L 29.015625 -68.890625 L 36.546875 -68.890625 L 26.3125 -57.609375 L 20 -57.609375 L 9.84375 -68.890625 Z M 17.296875 -68.890625 "/></g></g></g><g fill="#000000" fill-opacity="1"><g transform="translate(155.262374, 87.779952)"><g><path d="M 35.71875 -14.515625 L 15.34375 -14.515625 L 10.296875 0 L 2.40625 0 L 21.890625 -52.640625 L 29.25 -52.640625 L 48.8125 0 L 40.90625 0 Z M 33.546875 -20.6875 L 25.640625 -42.796875 L 25.265625 -42.796875 L 17.515625 -20.6875 Z M 33.546875 -20.6875 "/></g></g></g><g fill="#000000" fill-opacity="1"><g transform="translate(206.248342, 87.779952)"><g><path d="M 37 -6.921875 L 37 0 L 5.1875 0 L 5.1875 -52.640625 L 13.078125 -52.640625 L 13.015625 -6.921875 Z M 37 -6.921875 "/></g></g></g><g fill="#000000" fill-opacity="1"><g transform="translate(246.104623, 87.779952)"><g><path d="M 27.53125 0.53125 C 22.457031 0.53125 18.128906 -0.632812 14.546875 -2.96875 C 10.960938 -5.300781 8.242188 -8.507812 6.390625 -12.59375 C 4.535156 -16.675781 3.609375 -21.300781 3.609375 -26.46875 C 3.609375 -31.632812 4.535156 -36.285156 6.390625 -40.421875 C 8.242188 -44.554688 10.972656 -47.8125 14.578125 -50.1875 C 18.191406 -52.570312 22.507812 -53.765625 27.53125 -53.765625 C 32.488281 -53.765625 36.757812 -52.585938 40.34375 -50.234375 C 43.925781 -47.878906 46.644531 -44.632812 48.5 -40.5 C 50.351562 -36.363281 51.28125 -31.660156 51.28125 -26.390625 C 51.28125 -21.179688 50.351562 -16.546875 48.5 -12.484375 C 46.644531 -8.421875 43.925781 -5.234375 40.34375 -2.921875 C 36.757812 -0.617188 32.488281 0.53125 27.53125 0.53125 Z M 27.453125 -6.546875 C 30.660156 -6.546875 33.441406 -7.394531 35.796875 -9.09375 C 38.148438 -10.800781 39.953125 -13.171875 41.203125 -16.203125 C 42.460938 -19.234375 43.09375 -22.679688 43.09375 -26.546875 C 43.09375 -30.410156 42.460938 -33.859375 41.203125 -36.890625 C 39.953125 -39.921875 38.148438 -42.3125 35.796875 -44.0625 C 33.441406 -45.820312 30.660156 -46.703125 27.453125 -46.703125 C 24.242188 -46.703125 21.457031 -45.820312 19.09375 -44.0625 C 16.738281 -42.3125 14.9375 -39.90625 13.6875 -36.84375 C 12.4375 -33.789062 11.8125 -30.359375 11.8125 -26.546875 C 11.8125 -22.734375 12.4375 -19.3125 13.6875 -16.28125 C 14.9375 -13.25 16.738281 -10.867188 19.09375 -9.140625 C 21.457031 -7.410156 24.242188 -6.546875 27.453125 -6.546875 Z M 27.453125 -6.546875 "/></g></g></g><g fill="#000000" fill-opacity="1"><g transform="translate(301.151398, 87.779952)"><g><path d="M 23.09375 0.609375 C 18.976562 0.609375 15.453125 -0.226562 12.515625 -1.90625 C 9.585938 -3.59375 7.382812 -5.765625 5.90625 -8.421875 C 4.425781 -11.078125 3.6875 -13.859375 3.6875 -16.765625 L 3.6875 -17.140625 L 12.265625 -17.140625 L 12.265625 -16.765625 C 12.265625 -15.160156 12.640625 -13.566406 13.390625 -11.984375 C 14.140625 -10.410156 15.34375 -9.082031 17 -8 C 18.65625 -6.925781 20.734375 -6.390625 23.234375 -6.390625 C 26.296875 -6.390625 28.789062 -7.164062 30.71875 -8.71875 C 32.644531 -10.28125 33.609375 -12.390625 33.609375 -15.046875 C 33.609375 -17.242188 32.867188 -18.992188 31.390625 -20.296875 C 29.910156 -21.609375 28.046875 -22.488281 25.796875 -22.9375 L 18.578125 -24.359375 C 15.421875 -25.015625 12.375 -26.359375 9.4375 -28.390625 C 6.5 -30.421875 5.03125 -33.816406 5.03125 -38.578125 C 5.03125 -41.640625 5.769531 -44.320312 7.25 -46.625 C 8.726562 -48.925781 10.796875 -50.691406 13.453125 -51.921875 C 16.117188 -53.148438 19.15625 -53.765625 22.5625 -53.765625 C 26.46875 -53.765625 29.820312 -52.988281 32.625 -51.4375 C 35.4375 -49.882812 37.554688 -47.863281 38.984375 -45.375 C 40.421875 -42.894531 41.140625 -40.304688 41.140625 -37.609375 L 41.140625 -37.296875 L 32.5625 -37.296875 L 32.5625 -37.53125 C 32.5625 -38.882812 32.234375 -40.285156 31.578125 -41.734375 C 30.929688 -43.191406 29.84375 -44.429688 28.3125 -45.453125 C 26.78125 -46.484375 24.785156 -47 22.328125 -47 C 19.421875 -47 17.128906 -46.207031 15.453125 -44.625 C 13.773438 -43.050781 12.9375 -41.085938 12.9375 -38.734375 C 12.9375 -36.671875 13.648438 -34.988281 15.078125 -33.6875 C 16.503906 -32.382812 18.375 -31.507812 20.6875 -31.0625 L 27.375 -29.703125 C 31.238281 -28.898438 34.609375 -27.421875 37.484375 -25.265625 C 40.367188 -23.109375 41.8125 -19.773438 41.8125 -15.265625 C 41.8125 -12.160156 41.019531 -9.40625 39.4375 -7 C 37.863281 -4.59375 35.660156 -2.722656 32.828125 -1.390625 C 29.992188 -0.0546875 26.75 0.609375 23.09375 0.609375 Z M 23.09375 0.609375 "/></g></g></g></g></g><path stroke-linecap="butt" transform="matrix(0.75, 0, 0, 0.75, 24.113717, 191.506394)" fill="none" stroke-linejoin="miter" d="M -0.000580782 1.001892 L 448.207782 1.001892 " stroke="#000000" stroke-width="2" stroke-opacity="1" stroke-miterlimit="4"/></svg>