<svg width="500" height="142" viewBox="0 0 500 142" fill="none" xmlns="http://www.w3.org/2000/svg">
<path d="M28.4844 134.596H27.7881C27.0279 134.723 26.3722 135.071 25.8151 135.652C25.2697 136.227 25.0028 136.939 25.0028 137.783C25.0028 138.29 25.1072 138.638 25.3277 138.839C25.5424 139.034 25.8674 139.134 26.3026 139.134C26.8886 139.134 27.4399 138.949 27.9505 138.585V139.894C27.2194 140.342 26.349 140.569 25.3277 140.569C24.5211 140.569 23.8654 140.4 23.3548 140.063C22.8442 139.725 22.5888 139.134 22.5888 138.29C22.5888 137.277 22.9312 136.422 23.6101 135.736C24.289 135.061 25.0608 134.586 25.9312 134.301H25.9544V116.109H28.4844V134.596Z" fill="black"/>
<path d="M47.5882 115.729C48.9925 115.729 50.1762 115.971 51.1395 116.446C52.1143 116.911 52.8687 117.56 53.4141 118.388C53.9538 119.222 54.2787 120.161 54.389 121.216H51.6733C51.5631 120.066 51.1395 119.164 50.3967 118.515C49.654 117.871 48.6443 117.544 47.3793 117.544C46.2942 117.544 45.3832 117.776 44.6405 118.24C43.8977 118.705 43.5264 119.422 43.5264 120.393C43.5264 121.395 43.8571 122.145 44.5244 122.651C45.2033 123.158 46.3175 123.574 47.8668 123.896C50.1066 124.361 51.7894 125.047 52.9035 125.943C54.0292 126.83 54.5979 128.065 54.5979 129.637C54.5979 130.734 54.2845 131.684 53.6695 132.486C53.0486 133.277 52.213 133.889 51.1627 134.322C50.1066 134.755 48.9229 134.976 47.6115 134.976C45.3658 134.976 43.5612 134.486 42.2033 133.499C40.8571 132.518 40.0738 131.13 39.8591 129.341H42.5747C42.8649 130.555 43.4625 131.489 44.3619 132.148C45.2556 132.813 46.3639 133.14 47.6811 133.14C48.8416 133.14 49.8281 132.876 50.6521 132.338C51.4702 131.79 51.8822 131.03 51.8822 130.059C51.8822 128.935 51.4934 128.086 50.7217 127.505C49.9615 126.914 48.6907 126.429 46.9151 126.049C45.7082 125.796 44.6463 125.469 43.7353 125.057C42.8184 124.651 42.0989 124.118 41.5767 123.453C41.066 122.794 40.8107 121.949 40.8107 120.921C40.8107 119.855 41.1124 118.931 41.7159 118.156C42.3194 117.385 43.1376 116.784 44.1763 116.362C45.2091 115.94 46.3465 115.729 47.5882 115.729Z" fill="black"/>
<path d="M68.5802 134.596H66.0503V116.109H68.5802V134.596Z" fill="black"/>
<path d="M87.6841 115.729C89.0884 115.729 90.2721 115.971 91.2354 116.446C92.2102 116.911 92.9646 117.56 93.51 118.388C94.0497 119.222 94.3746 120.161 94.4849 121.216H91.7692C91.659 120.066 91.2354 119.164 90.4926 118.515C89.7499 117.871 88.7402 117.544 87.4752 117.544C86.3901 117.544 85.4791 117.776 84.7364 118.24C83.9936 118.705 83.6222 119.422 83.6222 120.393C83.6222 121.395 83.953 122.145 84.6203 122.651C85.2992 123.158 86.4133 123.574 87.9627 123.896C90.2025 124.361 91.8853 125.047 92.9994 125.943C94.1251 126.83 94.6938 128.065 94.6938 129.637C94.6938 130.734 94.3804 131.684 93.7653 132.486C93.1444 133.277 92.3089 133.889 91.2586 134.322C90.2025 134.755 89.0187 134.976 87.7073 134.976C85.4617 134.976 83.6571 134.486 82.2992 133.499C80.953 132.518 80.1696 131.13 79.9549 129.341H82.6706C82.9607 130.555 83.5584 131.489 84.4578 132.148C85.3514 132.813 86.4598 133.14 87.777 133.14C88.9375 133.14 89.924 132.876 90.7479 132.338C91.5661 131.79 91.9781 131.03 91.9781 130.059C91.9781 128.935 91.5893 128.086 90.8176 127.505C90.0574 126.914 88.7866 126.429 87.011 126.049C85.8041 125.796 84.7422 125.469 83.8311 125.057C82.9143 124.651 82.1948 124.118 81.6725 123.453C81.1619 122.794 80.9066 121.949 80.9066 120.921C80.9066 119.855 81.2083 118.931 81.8118 118.156C82.4153 117.385 83.2335 116.784 84.2721 116.362C85.305 115.94 86.4423 115.729 87.6841 115.729Z" fill="black"/>
<path d="M118.053 137.783C118.053 138.29 118.158 138.638 118.378 138.839C118.593 139.034 118.918 139.134 119.353 139.134C119.939 139.134 120.49 138.949 121.001 138.585V139.894C120.27 140.342 119.399 140.569 118.378 140.569C117.572 140.569 116.916 140.4 116.405 140.063C115.895 139.725 115.639 139.134 115.639 138.29C115.639 137.277 115.976 136.422 116.661 135.736C117.34 135.061 118.1 134.586 118.935 134.301L116.637 128.054H109.164L106.773 134.596H104.057L111.369 116.109H114.781L121.79 134.596H120.815C120.073 134.723 119.423 135.071 118.866 135.652C118.32 136.227 118.053 136.939 118.053 137.783ZM109.86 126.176H115.964L113.017 117.924L109.86 126.176Z" fill="black"/>
<path d="M152.798 116.109V134.596H150.268V125.078C150.268 123.928 150.268 122.746 150.268 121.533C150.28 120.308 150.297 119.2 150.315 118.198C149.972 119.2 149.578 120.308 149.131 121.533C148.696 122.757 148.261 123.933 147.831 125.057L144.234 134.596H141.054L137.41 124.994C136.992 123.896 136.562 122.746 136.133 121.533C135.698 120.324 135.321 119.227 134.996 118.24C135.025 119.243 135.042 120.345 135.042 121.554C135.042 122.767 135.042 123.939 135.042 125.078V134.596H132.512V116.109H136.69L142.702 132.634L148.69 116.109H152.798Z" fill="black"/>
<path d="M173.618 115.729C175.672 115.729 177.413 116.146 178.841 116.974C180.28 117.792 181.371 118.916 182.113 120.351C182.856 121.786 183.228 123.453 183.228 125.353C183.228 127.226 182.856 128.888 182.113 130.333C181.371 131.784 180.28 132.924 178.841 133.752C177.413 134.57 175.672 134.976 173.618 134.976C171.541 134.976 169.794 134.57 168.373 133.752C166.945 132.924 165.866 131.784 165.123 130.333C164.38 128.888 164.009 127.226 164.009 125.353C164.009 123.453 164.38 121.786 165.123 120.351C165.866 118.916 166.945 117.792 168.373 116.974C169.794 116.146 171.541 115.729 173.618 115.729ZM173.618 133.14C175.754 133.14 177.413 132.444 178.609 131.051C179.798 129.647 180.396 127.748 180.396 125.353C180.396 122.936 179.798 121.026 178.609 119.633C177.413 118.24 175.754 117.544 173.618 117.544C171.466 117.544 169.794 118.24 168.605 119.633C167.427 121.026 166.841 122.936 166.841 125.353C166.841 127.748 167.427 129.647 168.605 131.051C169.794 132.444 171.466 133.14 173.618 133.14Z" fill="black"/>
<path d="M210.739 134.596H206.84L197.254 118.346C197.3 119.443 197.323 120.615 197.323 121.849C197.335 123.089 197.347 124.255 197.347 125.353V134.596H194.817V116.109H198.716L208.279 132.338C208.261 131.257 208.244 130.096 208.232 128.856C208.215 127.605 208.209 126.439 208.209 125.353V116.109H210.67L210.739 134.596Z" fill="black"/>
<path d="M226.039 134.596H223.509V116.109H226.039V134.596Z" fill="black"/>
<path d="M254.753 134.596H250.853L241.267 118.346C241.314 119.443 241.337 120.615 241.337 121.849C241.348 123.089 241.36 124.255 241.36 125.353V134.596H238.83V116.109H242.729L252.292 132.338C252.275 131.257 252.257 130.096 252.246 128.856C252.228 127.605 252.223 126.439 252.223 125.353V116.109H254.683L254.753 134.596Z" fill="black"/>
<path d="M282.61 117.987H275.368V134.596H272.838V117.987H265.573V116.109H282.61V117.987Z" fill="black"/>
<path d="M303.585 128.054H296.111L293.72 134.596H291.004L298.316 116.109H301.728L308.737 134.596H305.999L303.585 128.054ZM296.807 126.176H302.912L299.964 117.924L296.807 126.176Z" fill="black"/>
<path d="M353.652 116.109V134.596H351.122V125.078C351.122 123.928 351.122 122.746 351.122 121.533C351.134 120.308 351.151 119.2 351.169 118.198C350.826 119.2 350.432 120.308 349.985 121.533C349.55 122.757 349.115 123.933 348.685 125.057L345.087 134.596H341.908L338.264 124.994C337.846 123.896 337.416 122.746 336.987 121.533C336.552 120.324 336.175 119.227 335.85 118.24C335.879 119.243 335.896 120.345 335.896 121.554C335.896 122.767 335.896 123.939 335.896 125.078V134.596H333.366V116.109H337.544L343.556 132.634L349.544 116.109H353.652Z" fill="black"/>
<path d="M368.948 134.596H366.418V116.109H368.948V134.596Z" fill="black"/>
<path d="M396.826 117.987H389.584V134.596H387.054V117.987H379.789V116.109H396.826V117.987Z" fill="black"/>
<path d="M414.644 127.315V134.596H412.114V127.315L404.919 116.109H407.843L413.507 125.078L418.984 116.109H421.839L414.644 127.315Z" fill="black"/>
<path d="M442.156 124.762C443.503 125.047 444.535 125.532 445.267 126.218C445.992 126.909 446.358 127.885 446.358 129.151C446.358 130.281 446.102 131.214 445.592 131.958C445.093 132.708 444.443 133.283 443.642 133.689C442.853 134.085 442.006 134.343 441.112 134.47C440.613 134.544 440.172 134.586 439.789 134.596C439.4 134.596 438.977 134.596 438.512 134.596H431.967V116.109H437.955C438.448 116.109 438.889 116.119 439.278 116.13C439.661 116.13 440.102 116.161 440.601 116.214C442.209 116.415 443.445 116.884 444.315 117.628C445.18 118.362 445.615 119.39 445.615 120.709C445.615 121.823 445.296 122.693 444.663 123.326C444.042 123.96 443.207 124.44 442.156 124.762ZM434.497 117.987V124.065H438.419C438.698 124.065 438.959 124.06 439.209 124.044C439.47 124.018 439.748 123.991 440.044 123.96C441.077 123.822 441.814 123.485 442.249 122.947C442.679 122.398 442.899 121.717 442.899 120.899C442.899 119.987 442.603 119.306 442.017 118.852C441.443 118.388 440.7 118.114 439.789 118.029C439.522 118.003 439.243 117.987 438.953 117.987C438.657 117.987 438.396 117.987 438.164 117.987H434.497ZM440.3 132.676C441.286 132.581 442.093 132.264 442.713 131.726C443.329 131.177 443.642 130.407 443.642 129.405C443.642 128.254 443.329 127.437 442.713 126.957C442.11 126.482 441.321 126.176 440.346 126.049C440.004 126.007 439.702 125.98 439.441 125.965C439.191 125.954 438.953 125.943 438.721 125.943H434.497V132.718H438.884C439.127 132.718 439.377 132.718 439.626 132.718C439.888 132.708 440.114 132.692 440.3 132.676Z" fill="black"/>
<path d="M468.471 129.067H460.997L458.606 135.61H455.89L463.202 117.122H466.614L473.623 135.61H470.885L468.471 129.067ZM461.693 127.189H467.797L464.85 118.937L461.693 127.189Z" fill="black"/>
<mask id="mask0_2_115" style="mask-type:luminance" maskUnits="userSpaceOnUse" x="0" y="0" width="500" height="142">
<path d="M500 0H0V141.237H500V0Z" fill="white"/>
</mask>
<g mask="url(#mask0_2_115)">
<path d="M0.373106 22.7209H32.2182C37.3536 22.7209 41.578 23.602 44.8913 25.359C48.1988 27.1213 50.6011 29.3689 52.0866 32.1126C53.5837 34.8562 54.3381 37.7581 54.3381 40.8078C54.3381 43.7783 53.6649 46.3478 52.3187 48.5111C50.9841 50.6796 49.3303 52.3891 47.3516 53.6395C45.3671 54.8953 43.487 55.6973 41.7114 56.0455V56.6364C43.8004 56.8475 46.104 57.5439 48.6282 58.7258C51.164 59.9077 53.3748 61.7227 55.2665 64.1709C57.1698 66.6085 58.1214 69.6898 58.1214 73.4148C58.1214 76.7916 57.2858 80.0417 55.6146 83.1653C53.9435 86.2782 51.3207 88.8319 47.7462 90.8263C44.1718 92.826 39.6573 93.8232 34.2144 93.8232H0.373106V22.7209ZM28.8527 53.3863C32.7347 53.3863 36.106 52.4577 38.9726 50.6004C41.8333 48.7432 43.2665 45.8835 43.2665 42.0107C43.2665 38.2963 41.8855 35.5949 39.135 33.9065C36.3788 32.2075 32.9494 31.3528 28.8527 31.3528H11.6535V53.3863H28.8527ZM31.4291 85.1913C35.7463 85.1913 39.4136 84.2627 42.4309 82.4055C45.4483 80.5377 46.957 77.4353 46.957 73.0982C46.957 68.9089 45.4483 65.8962 42.4309 64.0653C39.4136 62.2398 35.7463 61.3217 31.4291 61.3217H11.6535V85.1913H31.4291Z" fill="black"/>
<path d="M81.8012 32.0704V53.3863H114.551V61.8282H81.8012V84.4738H119.449V93.8232H70.0797V22.7209H119.449V32.0704H81.8012Z" fill="black"/>
<path d="M157.112 84.1783L199.448 32.5769V32.3659H157.112V22.7209H213.398V32.3659L170.945 83.9673V84.1783H213.398V93.8233H157.112V84.1783ZM177.212 0.771866L185.591 9.29824H186.032L194.62 0.771866H205.808L190.605 16.0096H181.228L166.141 0.771866H177.212Z" fill="black"/>
<path d="M273.391 74.2168H243.124L235.627 93.8232H223.905L252.849 22.7209H263.781L292.841 93.8232H281.097L273.391 74.2168ZM270.164 65.8804L258.42 36.017H257.863L246.35 65.8804H270.164Z" fill="black"/>
<path d="M351.033 84.4738V93.8232H303.776V22.7209H315.497L315.404 84.4738H351.033Z" fill="black"/>
<path d="M396.173 94.5408C388.635 94.5408 382.206 92.9685 376.885 89.8133C371.558 86.6634 367.52 82.3316 364.769 76.8127C362.013 71.2991 360.638 65.052 360.638 58.0716C360.638 51.0964 362.013 44.8124 364.769 39.2249C367.52 33.6427 371.576 29.2423 376.931 26.0344C382.299 22.8159 388.711 21.2013 396.173 21.2013C403.537 21.2013 409.879 22.7948 415.206 25.971C420.527 29.1526 424.566 33.5371 427.322 39.1194C430.072 44.7069 431.453 51.0595 431.453 58.1771C431.453 65.2156 430.072 71.4732 427.322 76.9604C424.566 82.4477 420.527 86.7531 415.206 89.8766C409.879 92.9896 403.537 94.5408 396.173 94.5408ZM396.057 84.9803C400.821 84.9803 404.953 83.8354 408.452 81.5402C411.945 79.2345 414.626 76.0318 416.483 71.9375C418.351 67.8431 419.291 63.1895 419.291 57.966C419.291 52.7479 418.351 48.089 416.483 43.9946C414.626 39.9003 411.945 36.6712 408.452 34.3075C404.953 31.9332 400.821 30.7407 396.057 30.7407C391.287 30.7407 387.15 31.9332 383.639 34.3075C380.14 36.6712 377.465 39.9214 375.608 44.0579C373.752 48.1839 372.823 52.8165 372.823 57.966C372.823 63.1156 373.752 67.7376 375.608 71.8319C377.465 75.9263 380.14 79.1448 383.639 81.4769C387.15 83.8142 391.287 84.9803 396.057 84.9803Z" fill="black"/>
<path d="M471.353 94.6463C465.237 94.6463 460.003 93.5172 455.639 91.2484C451.287 88.9691 448.014 86.0355 445.821 82.4477C443.622 78.8599 442.525 75.1032 442.525 71.1777V70.6712H455.268V71.1777C455.268 73.3462 455.825 75.4989 456.939 77.6358C458.053 79.7621 459.84 81.556 462.3 83.0175C464.761 84.4685 467.848 85.1913 471.561 85.1913C476.111 85.1913 479.813 84.1466 482.679 82.0467C485.54 79.9362 486.973 77.0871 486.973 73.4992C486.973 70.534 485.871 68.1702 483.677 66.408C481.478 64.6352 478.71 63.448 475.368 62.8413L464.645 60.9207C459.956 60.0343 455.43 58.2193 451.066 55.4757C446.703 52.732 444.521 48.147 444.521 41.7153C444.521 37.5787 445.618 33.9592 447.817 30.8463C450.01 27.7386 453.086 25.3537 457.032 23.6917C460.989 22.035 465.503 21.2013 470.563 21.2013C476.366 21.2013 481.345 22.2513 485.511 24.346C489.689 26.4459 492.834 29.1737 494.958 32.5347C497.093 35.8851 498.161 39.3832 498.161 43.0238V43.4459H485.418V43.1293C485.418 41.3037 484.931 39.4096 483.956 37.4521C482.993 35.4841 481.38 33.8115 479.105 32.4291C476.83 31.0362 473.865 30.3398 470.215 30.3398C465.898 30.3398 462.492 31.4108 460.003 33.5477C457.507 35.674 456.266 38.3279 456.266 41.5042C456.266 44.2901 457.322 46.5641 459.445 48.3211C461.563 50.0834 464.343 51.2652 467.778 51.8667L477.712 53.7029C483.451 54.7898 488.459 56.7842 492.73 59.6966C497.012 62.6091 499.159 67.115 499.159 73.2038C499.159 77.3984 497.981 81.1181 495.631 84.3682C493.293 87.6184 490.02 90.1457 485.813 91.9449C481.6 93.7494 476.784 94.6463 471.353 94.6463Z" fill="black"/>
<path d="M0 108.247L498.969 108.229" stroke="black" stroke-width="2"/>
</g>
</svg>
