<svg width="497" height="164" viewBox="0 0 497 164" fill="none" xmlns="http://www.w3.org/2000/svg">
<path d="M7.62252 156.784H6.43849C5.91672 156.841 5.47522 157.15 5.11399 157.706C4.75276 158.257 4.57215 158.921 4.57215 159.686C4.57215 160.748 4.96348 161.282 5.75617 161.282C6.23781 161.282 6.69938 161.058 7.14088 160.608V162.564C6.3231 163.385 5.25447 163.801 3.92996 163.801C1.97331 163.801 1 162.89 1 161.08C1 160.074 1.2659 159.157 1.80273 158.336C2.33454 157.527 2.98675 156.925 3.74935 156.537V135.104H7.62252V156.784Z" fill="black"/>
<path d="M28.2063 134C30.6185 134 32.4605 134.636 33.7324 135.895C35.0152 137.16 35.7772 138.865 36.013 141.002H31.7149C31.5833 139.835 31.2105 138.922 30.5965 138.275C29.9825 137.628 29.1328 137.305 28.0528 137.305C27.1756 137.305 26.4575 137.536 25.9038 137.998C25.361 138.449 25.0924 139.101 25.0924 139.962C25.0924 140.904 25.4213 141.643 26.0792 142.181C26.748 142.724 27.9212 143.198 29.5878 143.614C31.8958 144.168 33.5898 145.017 34.6753 146.156C35.7717 147.3 36.32 148.779 36.32 150.593C36.32 152.615 35.5634 154.215 34.0613 155.399C32.5537 156.59 30.7062 157.179 28.5133 157.179C25.9366 157.179 23.8863 156.578 22.3513 155.376C20.8272 154.175 19.9665 152.43 19.7637 150.13H24.0837C24.3029 151.321 24.8073 152.233 25.5967 152.88C26.3972 153.528 27.3511 153.851 28.4475 153.851C29.4233 153.851 30.2457 153.597 30.9035 153.088C31.5724 152.568 31.9123 151.881 31.9123 151.032C31.9123 150.096 31.5888 149.333 30.9474 148.744C30.3005 148.16 29.215 147.675 27.68 147.288C25.3117 146.687 23.5409 145.89 22.3732 144.885C21.2165 143.885 20.6408 142.429 20.6408 140.517C20.6408 138.529 21.37 136.952 22.8337 135.779C24.3084 134.595 26.1011 134 28.2063 134Z" fill="black"/>
<path d="M51.7727 157.179H47.3577V135.104H51.7727V157.179Z" fill="black"/>
<path d="M73.4602 134C75.8724 134 77.7144 134.636 78.9863 135.895C80.2691 137.16 81.0311 138.865 81.2669 141.002H76.9688C76.8372 139.835 76.4644 138.922 75.8504 138.275C75.2364 137.628 74.3867 137.305 73.3067 137.305C72.4295 137.305 71.7114 137.536 71.1577 137.998C70.6149 138.449 70.3463 139.101 70.3463 139.962C70.3463 140.904 70.6752 141.643 71.3331 142.181C72.0019 142.724 73.1751 143.198 74.8417 143.614C77.1497 144.168 78.8437 145.017 79.9292 146.156C81.0256 147.3 81.5739 148.779 81.5739 150.593C81.5739 152.615 80.8173 154.215 79.3152 155.399C77.8076 156.59 75.9601 157.179 73.7672 157.179C71.1906 157.179 69.1402 156.578 67.6052 155.376C66.0811 154.175 65.2204 152.43 65.0176 150.13H69.3376C69.5569 151.321 70.0612 152.233 70.8507 152.88C71.6511 153.528 72.605 153.851 73.7014 153.851C74.6772 153.851 75.4996 153.597 76.1574 153.088C76.8263 152.568 77.1662 151.881 77.1662 151.032C77.1662 150.096 76.8427 149.333 76.2013 148.744C75.5544 148.16 74.4689 147.675 72.9339 147.288C70.5656 146.687 68.7948 145.89 67.6271 144.885C66.4704 143.885 65.8947 142.429 65.8947 140.517C65.8947 138.529 66.6239 136.952 68.0876 135.779C69.5623 134.595 71.355 134 73.4602 134Z" fill="black"/>
<path d="M107.542 159.686C107.542 160.748 107.982 161.282 108.872 161.282C109.414 161.282 109.932 161.058 110.428 160.608V162.564C109.509 163.385 108.309 163.801 106.82 163.801C104.639 163.801 103.551 162.89 103.551 161.08C103.551 160.102 103.844 159.202 104.43 158.381C105.016 157.572 105.738 156.964 106.595 156.559L104.52 150.24H97.2141L95.0268 156.784H90.4041L98.2514 135.104H103.686L111.375 156.784H109.662C109.058 156.841 108.557 157.15 108.151 157.706C107.745 158.257 107.542 158.921 107.542 159.686ZM100.89 138.815L98.319 146.821H103.415L100.89 138.815Z" fill="black"/>
<path d="M144.488 135.104V157.179H140.186V146.966C140.186 143.473 140.209 140.96 140.253 139.432C139.674 141.985 139.005 144.487 138.247 146.943L135.239 157.179H130.558L127.483 146.92C126.691 144.206 126.045 141.716 125.544 139.455C125.588 141 125.611 143.502 125.611 146.966V157.179H121.309V135.104H128.107L132.965 153.126L137.824 135.104H144.488Z" fill="black"/>
<path d="M167.126 134C170.35 134 172.902 135.051 174.784 137.143C176.66 139.24 177.6 142.054 177.6 145.578C177.6 149.09 176.66 151.904 174.784 154.013C172.902 156.127 170.344 157.179 167.104 157.179C163.874 157.179 161.322 156.127 159.446 154.013C157.564 151.904 156.629 149.09 156.629 145.578C156.629 142.054 157.559 139.24 159.424 137.143C161.3 135.051 163.869 134 167.126 134ZM162.659 151.679C163.742 153.129 165.222 153.851 167.104 153.851C168.996 153.851 170.471 153.123 171.527 151.656C172.594 150.194 173.133 148.166 173.133 145.578C173.133 142.978 172.594 140.95 171.527 139.5C170.471 138.038 169.002 137.305 167.126 137.305C165.217 137.305 163.726 138.038 162.659 139.5C161.586 140.95 161.052 142.978 161.052 145.578C161.052 148.183 161.586 150.217 162.659 151.679Z" fill="black"/>
<path d="M208.506 157.179H203.001L194.724 140.416C194.817 142.42 194.87 144.676 194.87 147.195V157.179H190.845V135.104H196.183L204.627 152.187C204.528 150.206 204.481 147.893 204.481 145.248V135.104H208.485L208.506 157.179Z" fill="black"/>
<path d="M226.165 157.179H221.75V135.104H226.165V157.179Z" fill="black"/>
<path d="M257.071 157.179H251.566L243.289 140.416C243.383 142.42 243.435 144.676 243.435 147.195V157.179H239.411V135.104H244.748L253.193 152.187C253.094 150.206 253.047 147.893 253.047 145.248V135.104H257.05L257.071 157.179Z" fill="black"/>
<path d="M287.976 138.562H280.305V157.179H275.778V138.562H268.108V135.104H287.976V138.562Z" fill="black"/>
<path d="M309.457 150.515H301.767L299.464 157.179H294.598L302.858 135.104H308.579L316.673 157.179H311.712L309.457 150.515ZM305.636 138.882L302.93 147.034H308.294L305.636 138.882Z" fill="black"/>
<path d="M366.342 135.104V157.179H361.836V146.966C361.836 143.473 361.859 140.96 361.906 139.432C361.299 141.985 360.598 144.487 359.805 146.943L356.652 157.179H351.749L348.527 146.92C347.698 144.206 347.021 141.716 346.496 139.455C346.543 141 346.566 143.502 346.566 146.966V157.179H342.06V135.104H349.181L354.271 153.126L359.361 135.104H366.342Z" fill="black"/>
<path d="M381.795 157.179H377.38V135.104H381.795V157.179Z" fill="black"/>
<path d="M412.7 138.562H405.03V157.179H400.503V138.562H392.832V135.104H412.7V138.562Z" fill="black"/>
<path d="M432.126 148.637V157.179H427.514V148.637L419.322 135.104H424.559L429.964 144.744L435.201 135.104H440.294L432.126 148.637Z" fill="black"/>
<path d="M462.193 144.698C464.752 145.431 466.031 147.206 466.031 150.011C466.031 151.923 465.494 153.417 464.421 154.499C463.359 155.587 462.08 156.239 460.584 156.468C459.908 156.56 458.985 156.606 457.82 156.606H450.578V134.531H457.696C458.753 134.531 459.614 134.577 460.275 134.668C461.868 134.886 463.101 135.481 463.968 136.454C464.844 137.433 465.288 138.67 465.288 140.164C465.288 142.408 464.256 143.92 462.193 144.698ZM454.56 137.989V143.576H457.551C458.031 143.576 458.506 143.547 458.975 143.484C460.419 143.227 461.141 142.311 461.141 140.737C461.141 139.179 460.388 138.298 458.892 138.08C458.423 138.023 457.943 137.989 457.448 137.989H454.56ZM459.346 153.079C460.073 153.022 460.672 152.724 461.141 152.186C461.621 151.654 461.863 150.944 461.863 150.057C461.863 148.196 461.002 147.171 459.284 146.988C458.8 146.914 458.335 146.874 457.881 146.874H454.56V153.125H458.026C458.655 153.125 459.099 153.114 459.346 153.079Z" fill="black"/>
<path d="M490.081 149.942H482.775L480.587 156.606H475.965L483.812 134.531H489.246L496.936 156.606H492.223L490.081 149.942ZM486.45 138.309L483.88 146.461H488.976L486.45 138.309Z" fill="black"/>
<path d="M1 23.9146H32.5489C37.6365 23.9146 41.8216 24.8747 45.1041 26.789C48.3809 28.7091 50.7609 31.158 52.2325 34.1474C53.7157 37.1367 54.463 40.2985 54.463 43.6212C54.463 46.8578 53.7962 49.6574 52.4625 52.0144C51.1403 54.3771 49.5019 56.2397 47.5416 57.6021C45.5755 58.9703 43.7129 59.8441 41.9538 60.2235V60.8674C44.0234 61.0973 46.3056 61.8562 48.8063 63.1439C51.3185 64.4316 53.5087 66.4091 55.3828 69.0765C57.2684 71.7324 58.2112 75.0897 58.2112 79.1483C58.2112 82.8275 57.3834 86.3687 55.7277 89.7719C54.0721 93.1636 51.4737 95.946 47.9325 98.119C44.3913 100.298 39.9188 101.384 34.5265 101.384H1V23.9146ZM29.2147 57.3262C33.0606 57.3262 36.4006 56.3144 39.2404 54.2908C42.0746 52.2673 43.4945 49.1515 43.4945 44.9319C43.4945 40.8848 42.1263 37.9415 39.4014 36.1019C36.6708 34.2508 33.2733 33.3195 29.2147 33.3195H12.1755V57.3262H29.2147ZM31.7671 91.9794C36.0442 91.9794 39.6773 90.9676 42.6667 88.9441C45.656 86.909 47.1507 83.5288 47.1507 78.8034C47.1507 74.2389 45.656 70.9564 42.6667 68.9616C39.6773 66.9725 36.0442 65.9722 31.7671 65.9722H12.1755V91.9794H31.7671Z" fill="black"/>
<path d="M81.6707 34.1014V57.3262H114.116V66.5241H81.6707V91.1976H118.968V101.384H70.0583V23.9146H118.968V34.1014H81.6707Z" fill="black"/>
<path d="M156.281 90.8756L198.224 34.6532V34.4233H156.281V23.9146H212.044V34.4233L169.986 90.6457V90.8756H212.044V101.384H156.281V90.8756ZM176.195 0L184.496 9.28992H184.933L193.441 0H204.524L189.463 16.6023H180.173L165.226 0H176.195Z" fill="black"/>
<path d="M271.478 80.0221H241.493L234.066 101.384H222.453L251.128 23.9146H261.959L290.748 101.384H279.113L271.478 80.0221ZM268.282 70.9391L256.647 38.4014H256.095L244.689 70.9391H268.282Z" fill="black"/>
<path d="M348.399 91.1976V101.384H301.581V23.9146H313.193L313.101 91.1976H348.399Z" fill="black"/>
<path d="M393.119 102.166C385.651 102.166 379.282 100.453 374.01 97.0153C368.733 93.5833 364.732 88.8636 362.007 82.8504C359.276 76.843 357.914 70.0366 357.914 62.431C357.914 54.8312 359.276 47.9845 362.007 41.8966C364.732 35.8145 368.75 31.0201 374.056 27.5248C379.374 24.0181 385.726 22.259 393.119 22.259C400.414 22.259 406.697 23.9951 411.974 27.4559C417.246 30.9223 421.247 35.6995 423.978 41.7816C426.703 47.8695 428.071 54.791 428.071 62.546C428.071 70.2148 426.703 77.0328 423.978 83.0114C421.247 88.9901 417.246 93.681 411.974 97.0843C406.697 100.476 400.414 102.166 393.119 102.166ZM393.004 91.7495C397.723 91.7495 401.816 90.502 405.283 88.0013C408.744 85.4891 411.4 81.9996 413.239 77.5386C415.09 73.0776 416.022 68.0073 416.022 62.316C416.022 56.6306 415.09 51.5545 413.239 47.0935C411.4 42.6325 408.744 39.1142 405.283 36.5388C401.816 33.9519 397.723 32.6527 393.004 32.6527C388.278 32.6527 384.179 33.9519 380.701 36.5388C377.235 39.1142 374.585 42.6555 372.745 47.1624C370.906 51.6579 369.986 56.7053 369.986 62.316C369.986 67.9268 370.906 72.9627 372.745 77.4237C374.585 81.8847 377.235 85.3914 380.701 87.9323C384.179 90.479 388.278 91.7495 393.004 91.7495Z" fill="black"/>
<path d="M467.599 102.281C461.54 102.281 456.355 101.051 452.032 98.5789C447.72 96.0955 444.478 92.8992 442.305 88.9901C440.126 85.0809 439.04 80.9879 439.04 76.7108V76.1589H451.664V76.7108C451.664 79.0735 452.216 81.419 453.319 83.7472C454.423 86.064 456.194 88.0185 458.631 89.6109C461.069 91.1918 464.127 91.9794 467.806 91.9794C472.313 91.9794 475.981 90.8412 478.821 88.5532C481.655 86.2537 483.075 83.1494 483.075 79.2403C483.075 76.0095 481.982 73.4341 479.809 71.514C477.631 69.5824 474.889 68.289 471.577 67.6279L460.954 65.5353C456.309 64.5695 451.825 62.592 447.502 59.6027C443.179 56.6133 441.017 51.6177 441.017 44.61C441.017 40.103 442.104 36.1594 444.282 32.7677C446.455 29.3817 449.502 26.7833 453.411 24.9724C457.332 23.1673 461.804 22.259 466.817 22.259C472.566 22.259 477.498 23.403 481.626 25.6853C485.765 27.9732 488.881 30.9453 490.985 34.6073C493.1 38.2577 494.158 42.0691 494.158 46.0357V46.4956H481.534V46.1507C481.534 44.1616 481.051 42.0978 480.085 39.9651C479.131 37.8208 477.533 35.9984 475.279 34.4923C473.026 32.9746 470.088 32.2158 466.472 32.2158C462.195 32.2158 458.821 33.3828 456.355 35.711C453.883 38.0277 452.653 40.9193 452.653 44.3801C452.653 47.4154 453.699 49.8931 455.803 51.8074C457.901 53.7275 460.655 55.0152 464.058 55.6705L473.9 57.6711C479.585 58.8553 484.546 61.0283 488.777 64.2016C493.02 67.3749 495.147 72.2843 495.147 78.9183C495.147 83.4886 493.98 87.5414 491.652 91.0826C489.335 94.6238 486.093 97.3774 481.925 99.3378C477.751 101.304 472.98 102.281 467.599 102.281Z" fill="black"/>
<path d="M0 120L496 120" stroke="black" stroke-width="2"/>
</svg>
