<svg width="500" height="177" viewBox="0 0 500 177" fill="none" xmlns="http://www.w3.org/2000/svg">
<path d="M23.3997 169.015H22.1728C21.6173 169.073 21.1427 169.362 20.7608 169.871C20.3904 170.392 20.2052 171.011 20.2052 171.723C20.2052 172.724 20.6103 173.228 21.4321 173.228C21.9414 173.228 22.4333 173.02 22.9136 172.603V174.432C22.0455 175.184 20.9228 175.566 19.5339 175.566C17.4969 175.566 16.4784 174.721 16.4784 173.043C16.4784 172.099 16.7562 171.243 17.3117 170.473C17.8673 169.715 18.5444 169.154 19.3488 168.783V148.737H23.3997V169.015Z" fill="black"/>
<path d="M42.1865 148.32C44.5013 148.32 46.2664 148.899 47.4874 150.057C48.7027 151.214 49.4377 152.765 49.6865 154.709H45.543C45.4157 153.645 45.0627 152.823 44.4782 152.233C43.8879 151.648 43.0777 151.353 42.0476 151.353C41.1969 151.353 40.5025 151.561 39.9643 151.978C39.4377 152.383 39.1773 152.973 39.1773 153.76C39.1773 154.628 39.4898 155.305 40.1263 155.797C40.7745 156.278 41.8972 156.7 43.506 157.07C45.7282 157.58 47.3543 158.361 48.3902 159.408C49.4377 160.444 49.9643 161.787 49.9643 163.436C49.9643 165.276 49.2351 166.735 47.7884 167.811C46.3358 168.893 44.5708 169.432 42.4874 169.432C40.0164 169.432 38.043 168.893 36.5615 167.811C35.0916 166.717 34.2583 165.12 34.0615 163.02H38.205C38.4192 164.102 38.9053 164.935 39.6634 165.52C40.4331 166.11 41.3532 166.399 42.418 166.399C43.3555 166.399 44.1425 166.168 44.7791 165.705C45.4273 165.23 45.7513 164.605 45.7513 163.83C45.7513 162.985 45.4388 162.296 44.8254 161.77C44.2062 161.231 43.1587 160.786 41.6773 160.427C39.4087 159.889 37.7074 159.165 36.5847 158.251C35.4736 157.325 34.918 155.994 34.918 154.246C34.918 152.458 35.6182 151.023 37.0245 149.941C38.4423 148.864 40.1611 148.32 42.1865 148.32Z" fill="black"/>
<path d="M64.8856 169.015H60.8347V148.737H64.8856V169.015Z" fill="black"/>
<path d="M83.6726 148.32C85.9874 148.32 87.7525 148.899 88.9735 150.057C90.1888 151.214 90.9238 152.765 91.1726 154.709H87.0291C86.9018 153.645 86.5488 152.823 85.9643 152.233C85.374 151.648 84.5638 151.353 83.5337 151.353C82.683 151.353 81.9886 151.561 81.4504 151.978C80.9238 152.383 80.6633 152.973 80.6633 153.76C80.6633 154.628 80.9758 155.305 81.6124 155.797C82.2606 156.278 83.3833 156.7 84.9921 157.07C87.2143 157.58 88.8404 158.361 89.8763 159.408C90.9238 160.444 91.4504 161.787 91.4504 163.436C91.4504 165.276 90.7212 166.735 89.2745 167.811C87.8219 168.893 86.0569 169.432 83.9735 169.432C81.5025 169.432 79.5291 168.893 78.0476 167.811C76.5777 166.717 75.7444 165.12 75.5476 163.02H79.6911C79.9052 164.102 80.3914 164.935 81.1495 165.52C81.9191 166.11 82.8393 166.399 83.9041 166.399C84.8416 166.399 85.6286 166.168 86.2652 165.705C86.9133 165.23 87.2374 164.605 87.2374 163.83C87.2374 162.985 86.9249 162.296 86.3115 161.77C85.6923 161.231 84.6448 160.786 83.1633 160.427C80.8948 159.889 79.1934 159.165 78.0708 158.251C76.9596 157.325 76.4041 155.994 76.4041 154.246C76.4041 152.458 77.1043 151.023 78.5106 149.941C79.9284 148.864 81.6471 148.32 83.6726 148.32Z" fill="black"/>
<path d="M116.14 171.723C116.14 172.724 116.545 173.228 117.367 173.228C117.876 173.228 118.368 173.02 118.848 172.603V174.432C117.98 175.184 116.858 175.566 115.469 175.566C113.432 175.566 112.413 174.721 112.413 173.043C112.413 172.117 112.679 171.266 113.223 170.496C113.779 169.738 114.456 169.177 115.261 168.807L113.316 162.904H106.487L104.473 169.015H100.145L107.46 148.737H112.552L119.728 169.015H118.108C117.552 169.073 117.078 169.362 116.696 169.871C116.325 170.392 116.14 171.011 116.14 171.723ZM109.936 152.209L107.529 159.686H112.298L109.936 152.209Z" fill="black"/>
<path d="M151.577 148.737V169.015H147.526V159.64C147.526 156.434 147.538 154.119 147.573 152.695C147.029 155.057 146.404 157.366 145.698 159.617L142.85 169.015H138.429L135.512 159.57C134.772 157.088 134.17 154.802 133.707 152.719C133.736 154.142 133.753 156.445 133.753 159.64V169.015H129.702V148.737H136.114L140.698 165.288L145.281 148.737H151.577Z" fill="black"/>
<path d="M172.488 148.32C175.59 148.32 178.032 149.281 179.826 151.191C181.614 153.106 182.511 155.67 182.511 158.876C182.511 162.07 181.614 164.634 179.826 166.561C178.032 168.477 175.59 169.432 172.488 169.432C169.386 169.432 166.938 168.477 165.15 166.561C163.356 164.634 162.465 162.07 162.465 158.876C162.465 155.67 163.35 153.106 165.127 151.191C166.915 149.281 169.369 148.32 172.488 148.32ZM168.229 164.432C169.259 165.745 170.682 166.399 172.488 166.399C174.293 166.399 175.705 165.739 176.724 164.408C177.743 163.066 178.252 161.226 178.252 158.876C178.252 156.503 177.743 154.657 176.724 153.344C175.705 152.018 174.293 151.353 172.488 151.353C170.665 151.353 169.247 152.018 168.229 153.344C167.21 154.657 166.701 156.503 166.701 158.876C166.701 161.255 167.21 163.106 168.229 164.432Z" fill="black"/>
<path d="M211.396 169.015H205.841L197.484 153.621C197.577 155.462 197.623 157.533 197.623 159.848V169.015H193.572V148.737H198.942L207.484 164.432C207.374 162.614 207.322 160.485 207.322 158.043V148.737H211.35L211.396 169.015Z" fill="black"/>
<path d="M227.472 169.015H223.421V148.737H227.472V169.015Z" fill="black"/>
<path d="M257.347 169.015H251.791L243.435 153.621C243.527 155.462 243.574 157.533 243.574 159.848V169.015H239.523V148.737H244.893L253.435 164.432C253.325 162.614 253.273 160.485 253.273 158.043V148.737H257.301L257.347 169.015Z" fill="black"/>
<path d="M285.252 151.908H278.377V169.015H274.303V151.908H267.428V148.737H285.252V151.908Z" fill="black"/>
<path d="M306.192 162.904H299.364L297.35 169.015H293.021L300.336 148.737H305.428L312.604 169.015H308.183L306.192 162.904ZM302.813 152.209L300.405 159.686H305.174L302.813 152.209Z" fill="black"/>
<path d="M357.677 148.737V169.015H353.626V159.64C353.626 156.434 353.637 154.119 353.672 152.695C353.128 155.057 352.503 157.366 351.797 159.617L348.95 169.015H344.528L341.612 159.57C340.871 157.088 340.269 154.802 339.806 152.719C339.835 154.142 339.852 156.445 339.852 159.64V169.015H335.802V148.737H342.214L346.797 165.288L351.38 148.737H357.677Z" fill="black"/>
<path d="M373.726 169.015H369.675V148.737H373.726V169.015Z" fill="black"/>
<path d="M401.657 151.908H394.782V169.015H390.708V151.908H383.833V148.737H401.657V151.908Z" fill="black"/>
<path d="M420.653 161.168V169.015H416.625V161.168L409.449 148.737H414.032L418.778 157.58L423.361 148.737H427.829L420.653 161.168Z" fill="black"/>
<path d="M449.367 158.089C451.971 158.755 453.279 160.375 453.279 162.95C453.279 164.698 452.729 166.069 451.635 167.07C450.553 168.077 449.251 168.685 447.723 168.899C447.029 168.98 446.085 169.015 444.899 169.015H437.515V148.737H444.783C445.86 148.737 446.733 148.778 447.399 148.853C449.019 149.038 450.275 149.588 451.172 150.496C452.063 151.393 452.515 152.528 452.515 153.899C452.515 155.971 451.461 157.366 449.367 158.089ZM441.566 151.908V157.047H444.621C445.113 157.047 445.599 157.018 446.079 156.955C447.544 156.723 448.279 155.884 448.279 154.432C448.279 152.996 447.515 152.186 445.987 152.001C445.507 151.943 445.015 151.908 444.505 151.908H441.566ZM446.45 165.774C447.191 165.716 447.798 165.444 448.279 164.964C448.77 164.472 449.019 163.818 449.019 162.996C449.019 161.283 448.145 160.346 446.404 160.172C445.906 160.114 445.42 160.08 444.945 160.08H441.566V165.82H445.107C445.755 165.82 446.201 165.809 446.45 165.774Z" fill="black"/>
<path d="M475.334 162.904H468.505L466.491 169.015H462.162L469.477 148.737H474.57L481.746 169.015H477.324L475.334 162.904ZM471.954 152.209L469.547 159.686H474.315L471.954 152.209Z" fill="black"/>
<mask id="mask0_2_459" style="mask-type:luminance" maskUnits="userSpaceOnUse" x="0" y="0" width="500" height="177">
<path d="M500 0H0V176.667H500V0Z" fill="white"/>
</mask>
<g mask="url(#mask0_2_459)">
<path d="M1.76477 24.6509H33.524C38.6456 24.6509 42.8585 25.6173 46.1629 27.5444C49.4615 29.4773 51.8574 31.9425 53.3388 34.9518C54.8319 37.961 55.5842 41.1439 55.5842 44.4888C55.5842 47.7469 54.9129 50.5652 53.5703 52.9379C52.2393 55.3164 50.59 57.1914 48.6166 58.5629C46.6375 59.9402 44.7625 60.8198 42.9916 61.2018V61.8499C45.075 62.0814 47.3724 62.8453 49.8898 64.1416C52.4187 65.4379 54.6236 67.4286 56.5101 70.1138C58.4083 72.7874 59.3574 76.1671 59.3574 80.2527C59.3574 83.9564 58.524 87.5212 56.8574 90.9472C55.1907 94.3615 52.575 97.1624 49.0101 99.3499C45.4453 101.543 40.943 102.637 35.5148 102.637H1.76477V24.6509ZM30.1675 58.2851C34.0391 58.2851 37.4013 57.2666 40.2601 55.2296C43.1132 53.1925 44.5426 50.056 44.5426 45.8083C44.5426 41.7342 43.1652 38.7712 40.4222 36.9194C37.6733 35.056 34.2532 34.1185 30.1675 34.1185H13.0148V58.2851H30.1675ZM32.737 93.1694C37.0425 93.1694 40.7 92.1509 43.7092 90.1138C46.7185 88.0652 48.2231 84.6624 48.2231 79.9055C48.2231 75.3106 46.7185 72.0062 43.7092 69.9981C40.7 67.9958 37.0425 66.9888 32.737 66.9888H13.0148V93.1694H32.737Z" fill="black"/>
<path d="M82.9731 34.9055V58.2851H115.635V67.5444H82.9731V92.3823H120.519V102.637H71.2833V24.6509H120.519V34.9055H82.9731Z" fill="black"/>
<path d="M158.081 92.0583L200.303 35.461V35.2296H158.081V24.6509H214.215V35.2296L171.877 91.8268V92.0583H214.215V102.637H158.081V92.0583ZM178.127 0.576782L186.484 9.92863H186.923L195.488 0.576782H206.646L191.484 17.2897H182.132L167.085 0.576782H178.127Z" fill="black"/>
<path d="M274.046 81.1323H243.861L236.384 102.637H224.694L253.56 24.6509H264.463L293.444 102.637H281.731L274.046 81.1323ZM270.829 71.9888L259.116 39.2342H258.56L247.079 71.9888H270.829Z" fill="black"/>
<path d="M351.479 92.3823V102.637H304.349V24.6509H316.039L315.947 92.3823H351.479Z" fill="black"/>
<path d="M396.497 103.424C388.98 103.424 382.568 101.699 377.261 98.2388C371.949 94.784 367.921 90.0328 365.178 83.9796C362.429 77.9321 361.058 71.0803 361.058 63.424C361.058 55.7735 362.429 48.8812 365.178 42.7527C367.921 36.63 371.966 31.8036 377.308 28.2851C382.661 24.755 389.055 22.9842 396.497 22.9842C403.841 22.9842 410.166 24.7319 415.479 28.2157C420.786 31.7053 424.813 36.5143 427.562 42.637C430.305 48.7654 431.683 55.733 431.683 63.5398C431.683 71.2597 430.305 78.1231 427.562 84.1416C424.813 90.1601 420.786 94.8823 415.479 98.3083C410.166 101.723 403.841 103.424 396.497 103.424ZM396.382 92.9379C401.133 92.9379 405.253 91.6821 408.743 89.1648C412.227 86.6358 414.9 83.1231 416.752 78.6323C418.615 74.1416 419.553 69.0374 419.553 63.3083C419.553 57.5849 418.615 52.4749 416.752 47.9842C414.9 43.4935 412.227 39.9518 408.743 37.3592C405.253 34.755 401.133 33.4472 396.382 33.4472C391.625 33.4472 387.499 34.755 383.997 37.3592C380.508 39.9518 377.84 43.5166 375.988 48.0536C374.136 52.5791 373.21 57.6601 373.21 63.3083C373.21 68.9564 374.136 74.0259 375.988 78.5166C377.84 83.0073 380.508 86.5374 383.997 89.0953C387.499 91.659 391.625 92.9379 396.382 92.9379Z" fill="black"/>
<path d="M471.474 103.54C465.375 103.54 460.155 102.301 455.803 99.8129C451.463 97.3129 448.199 94.0953 446.011 90.1601C443.818 86.2249 442.724 82.1046 442.724 77.799V77.2435H455.433V77.799C455.433 80.1775 455.988 82.5386 457.099 84.8823C458.21 87.2145 459.993 89.1821 462.447 90.7851C464.9 92.3766 467.979 93.1694 471.683 93.1694C476.22 93.1694 479.912 92.0236 482.771 89.7203C485.624 87.4055 487.053 84.2805 487.053 80.3453C487.053 77.093 485.954 74.5004 483.766 72.5675C481.573 70.6231 478.812 69.321 475.479 68.6555L464.785 66.549C460.109 65.5768 455.595 63.586 451.243 60.5768C446.891 57.5675 444.715 52.5386 444.715 45.4842C444.715 40.9472 445.809 36.9773 448.002 33.5629C450.19 30.1543 453.257 27.5386 457.192 25.7157C461.139 23.8985 465.641 22.9842 470.687 22.9842C476.474 22.9842 481.44 24.1358 485.595 26.4333C489.761 28.7365 492.898 31.7284 495.016 35.4148C497.146 39.0895 498.21 42.9263 498.21 46.9194V47.3823H485.502V47.0351C485.502 45.0328 485.016 42.9553 484.044 40.8083C483.083 38.6497 481.474 36.8152 479.206 35.299C476.937 33.7712 473.98 33.0073 470.34 33.0073C466.035 33.0073 462.638 34.1821 460.155 36.5259C457.666 38.858 456.428 41.7689 456.428 45.2527C456.428 48.3083 457.481 50.8025 459.599 52.7296C461.712 54.6624 464.484 55.9587 467.91 56.6185L477.817 58.6323C483.54 59.8245 488.535 62.012 492.794 65.2064C497.065 68.4009 499.206 73.343 499.206 80.0212C499.206 84.6219 498.031 88.7018 495.687 92.2666C493.355 95.8314 490.091 98.6034 485.896 100.577C481.694 102.556 476.891 103.54 471.474 103.54Z" fill="black"/>
<path d="M0.167725 131.493H498.177" stroke="black" stroke-width="2"/>
</g>
</svg>
