<svg width="497" height="172" viewBox="0 0 497 172" fill="none" xmlns="http://www.w3.org/2000/svg">
<path d="M7.62252 164.784H6.43849C5.91672 164.841 5.47522 165.15 5.11399 165.706C4.75276 166.257 4.57215 166.921 4.57215 167.686C4.57215 168.748 4.96348 169.282 5.75617 169.282C6.23781 169.282 6.69938 169.058 7.14088 168.608V170.564C6.3231 171.385 5.25447 171.801 3.92996 171.801C1.97331 171.801 1 170.89 1 169.08C1 168.074 1.2659 167.157 1.80273 166.336C2.33454 165.527 2.98675 164.925 3.74935 164.537V143.104H7.62252V164.784Z" fill="black"/>
<path d="M28.2063 142C30.6185 142 32.4605 142.636 33.7324 143.895C35.0152 145.16 35.7772 146.865 36.013 149.002H31.7149C31.5833 147.835 31.2105 146.922 30.5965 146.275C29.9825 145.628 29.1328 145.305 28.0528 145.305C27.1756 145.305 26.4575 145.536 25.9038 145.998C25.361 146.449 25.0924 147.101 25.0924 147.962C25.0924 148.904 25.4213 149.643 26.0792 150.181C26.748 150.724 27.9212 151.198 29.5878 151.614C31.8958 152.168 33.5898 153.017 34.6753 154.156C35.7717 155.3 36.32 156.779 36.32 158.593C36.32 160.615 35.5634 162.215 34.0613 163.399C32.5537 164.59 30.7062 165.179 28.5133 165.179C25.9366 165.179 23.8863 164.578 22.3513 163.376C20.8272 162.175 19.9665 160.43 19.7637 158.13H24.0837C24.3029 159.321 24.8073 160.233 25.5967 160.88C26.3972 161.528 27.3511 161.851 28.4475 161.851C29.4233 161.851 30.2457 161.597 30.9035 161.088C31.5724 160.568 31.9123 159.881 31.9123 159.032C31.9123 158.096 31.5888 157.333 30.9474 156.744C30.3005 156.16 29.215 155.675 27.68 155.288C25.3117 154.687 23.5409 153.89 22.3732 152.885C21.2165 151.885 20.6408 150.429 20.6408 148.517C20.6408 146.529 21.37 144.952 22.8337 143.779C24.3084 142.595 26.1011 142 28.2063 142Z" fill="black"/>
<path d="M51.7727 165.179H47.3577V143.104H51.7727V165.179Z" fill="black"/>
<path d="M73.4602 142C75.8724 142 77.7144 142.636 78.9863 143.895C80.2691 145.16 81.0311 146.865 81.2669 149.002H76.9688C76.8372 147.835 76.4644 146.922 75.8504 146.275C75.2364 145.628 74.3867 145.305 73.3067 145.305C72.4295 145.305 71.7114 145.536 71.1577 145.998C70.6149 146.449 70.3463 147.101 70.3463 147.962C70.3463 148.904 70.6752 149.643 71.3331 150.181C72.0019 150.724 73.1751 151.198 74.8417 151.614C77.1497 152.168 78.8437 153.017 79.9292 154.156C81.0256 155.3 81.5739 156.779 81.5739 158.593C81.5739 160.615 80.8173 162.215 79.3152 163.399C77.8076 164.59 75.9601 165.179 73.7672 165.179C71.1906 165.179 69.1402 164.578 67.6052 163.376C66.0811 162.175 65.2204 160.43 65.0176 158.13H69.3376C69.5569 159.321 70.0612 160.233 70.8507 160.88C71.6511 161.528 72.605 161.851 73.7014 161.851C74.6772 161.851 75.4996 161.597 76.1574 161.088C76.8263 160.568 77.1662 159.881 77.1662 159.032C77.1662 158.096 76.8427 157.333 76.2013 156.744C75.5544 156.16 74.4689 155.675 72.9339 155.288C70.5656 154.687 68.7948 153.89 67.6271 152.885C66.4704 151.885 65.8947 150.429 65.8947 148.517C65.8947 146.529 66.6239 144.952 68.0876 143.779C69.5623 142.595 71.355 142 73.4602 142Z" fill="black"/>
<path d="M107.542 167.686C107.542 168.748 107.982 169.282 108.872 169.282C109.414 169.282 109.932 169.058 110.428 168.608V170.564C109.509 171.385 108.309 171.801 106.82 171.801C104.639 171.801 103.551 170.89 103.551 169.08C103.551 168.102 103.844 167.202 104.43 166.381C105.016 165.572 105.738 164.964 106.595 164.559L104.52 158.24H97.2141L95.0268 164.784H90.4041L98.2514 143.104H103.686L111.375 164.784H109.662C109.058 164.841 108.557 165.15 108.151 165.706C107.745 166.257 107.542 166.921 107.542 167.686ZM100.89 146.815L98.319 154.821H103.415L100.89 146.815Z" fill="black"/>
<path d="M144.488 143.104V165.179H140.186V154.966C140.186 151.473 140.209 148.96 140.253 147.432C139.674 149.985 139.005 152.487 138.247 154.943L135.239 165.179H130.558L127.483 154.92C126.691 152.206 126.045 149.716 125.544 147.455C125.588 149 125.611 151.502 125.611 154.966V165.179H121.309V143.104H128.107L132.965 161.126L137.824 143.104H144.488Z" fill="black"/>
<path d="M167.126 142C170.35 142 172.902 143.051 174.784 145.143C176.66 147.24 177.6 150.054 177.6 153.578C177.6 157.09 176.66 159.904 174.784 162.013C172.902 164.127 170.344 165.179 167.104 165.179C163.874 165.179 161.322 164.127 159.446 162.013C157.564 159.904 156.629 157.09 156.629 153.578C156.629 150.054 157.559 147.24 159.424 145.143C161.3 143.051 163.869 142 167.126 142ZM162.659 159.679C163.742 161.129 165.222 161.851 167.104 161.851C168.996 161.851 170.471 161.123 171.527 159.656C172.594 158.194 173.133 156.166 173.133 153.578C173.133 150.978 172.594 148.95 171.527 147.5C170.471 146.038 169.002 145.305 167.126 145.305C165.217 145.305 163.726 146.038 162.659 147.5C161.586 148.95 161.052 150.978 161.052 153.578C161.052 156.183 161.586 158.217 162.659 159.679Z" fill="black"/>
<path d="M208.506 165.179H203.001L194.724 148.416C194.817 150.42 194.87 152.676 194.87 155.195V165.179H190.845V143.104H196.183L204.627 160.187C204.528 158.206 204.481 155.893 204.481 153.248V143.104H208.485L208.506 165.179Z" fill="black"/>
<path d="M226.165 165.179H221.75V143.104H226.165V165.179Z" fill="black"/>
<path d="M257.071 165.179H251.566L243.289 148.416C243.383 150.42 243.435 152.676 243.435 155.195V165.179H239.411V143.104H244.748L253.193 160.187C253.094 158.206 253.047 155.893 253.047 153.248V143.104H257.05L257.071 165.179Z" fill="black"/>
<path d="M287.976 146.562H280.305V165.179H275.778V146.562H268.108V143.104H287.976V146.562Z" fill="black"/>
<path d="M309.457 158.515H301.767L299.464 165.179H294.598L302.858 143.104H308.579L316.673 165.179H311.712L309.457 158.515ZM305.636 146.882L302.93 155.034H308.294L305.636 146.882Z" fill="black"/>
<path d="M366.342 143.104V165.179H361.836V154.966C361.836 151.473 361.859 148.96 361.906 147.432C361.299 149.985 360.598 152.487 359.805 154.943L356.652 165.179H351.749L348.527 154.92C347.698 152.206 347.021 149.716 346.496 147.455C346.543 149 346.566 151.502 346.566 154.966V165.179H342.06V143.104H349.181L354.271 161.126L359.361 143.104H366.342Z" fill="black"/>
<path d="M381.795 165.179H377.38V143.104H381.795V165.179Z" fill="black"/>
<path d="M412.7 146.562H405.03V165.179H400.503V146.562H392.832V143.104H412.7V146.562Z" fill="black"/>
<path d="M432.126 156.637V165.179H427.514V156.637L419.322 143.104H424.559L429.964 152.744L435.201 143.104H440.294L432.126 156.637Z" fill="black"/>
<path d="M462.193 152.698C464.752 153.431 466.031 155.206 466.031 158.011C466.031 159.923 465.494 161.417 464.421 162.499C463.359 163.587 462.08 164.239 460.584 164.468C459.908 164.56 458.985 164.606 457.82 164.606H450.578V142.531H457.696C458.753 142.531 459.614 142.577 460.275 142.668C461.868 142.886 463.101 143.481 463.968 144.454C464.844 145.433 465.288 146.67 465.288 148.164C465.288 150.408 464.256 151.92 462.193 152.698ZM454.56 145.989V151.576H457.551C458.031 151.576 458.506 151.547 458.975 151.484C460.419 151.227 461.141 150.311 461.141 148.737C461.141 147.179 460.388 146.298 458.892 146.08C458.423 146.023 457.943 145.989 457.448 145.989H454.56ZM459.346 161.079C460.073 161.022 460.672 160.724 461.141 160.186C461.621 159.654 461.863 158.944 461.863 158.057C461.863 156.196 461.002 155.171 459.284 154.988C458.8 154.914 458.335 154.874 457.881 154.874H454.56V161.125H458.026C458.655 161.125 459.099 161.114 459.346 161.079Z" fill="black"/>
<path d="M490.081 157.942H482.775L480.587 164.606H475.965L483.812 142.531H489.246L496.936 164.606H492.223L490.081 157.942ZM486.45 146.309L483.88 154.461H488.976L486.45 146.309Z" fill="black"/>
<path d="M1 23.9146H32.5489C37.6365 23.9146 41.8216 24.8747 45.1041 26.789C48.3809 28.7091 50.7609 31.158 52.2325 34.1474C53.7157 37.1367 54.463 40.2985 54.463 43.6212C54.463 46.8578 53.7962 49.6574 52.4625 52.0144C51.1403 54.3771 49.5019 56.2397 47.5416 57.6021C45.5755 58.9703 43.7129 59.8441 41.9538 60.2235V60.8674C44.0234 61.0973 46.3056 61.8562 48.8063 63.1439C51.3185 64.4316 53.5087 66.4091 55.3828 69.0765C57.2684 71.7324 58.2112 75.0897 58.2112 79.1483C58.2112 82.8275 57.3834 86.3687 55.7277 89.7719C54.0721 93.1636 51.4737 95.946 47.9325 98.119C44.3913 100.298 39.9188 101.384 34.5265 101.384H1V23.9146ZM29.2147 57.3262C33.0606 57.3262 36.4006 56.3144 39.2404 54.2908C42.0746 52.2673 43.4945 49.1515 43.4945 44.9319C43.4945 40.8848 42.1263 37.9415 39.4014 36.1019C36.6708 34.2508 33.2733 33.3195 29.2147 33.3195H12.1755V57.3262H29.2147ZM31.7671 91.9794C36.0442 91.9794 39.6773 90.9676 42.6667 88.9441C45.656 86.909 47.1507 83.5288 47.1507 78.8034C47.1507 74.2389 45.656 70.9564 42.6667 68.9616C39.6773 66.9725 36.0442 65.9722 31.7671 65.9722H12.1755V91.9794H31.7671Z" fill="black"/>
<path d="M81.6707 34.1014V57.3262H114.116V66.5241H81.6707V91.1976H118.968V101.384H70.0583V23.9146H118.968V34.1014H81.6707Z" fill="black"/>
<path d="M156.281 90.8756L198.224 34.6532V34.4233H156.281V23.9146H212.044V34.4233L169.986 90.6457V90.8756H212.044V101.384H156.281V90.8756ZM176.195 0L184.496 9.28992H184.933L193.441 0H204.524L189.463 16.6023H180.173L165.226 0H176.195Z" fill="black"/>
<path d="M271.478 80.0221H241.493L234.066 101.384H222.453L251.128 23.9146H261.959L290.748 101.384H279.113L271.478 80.0221ZM268.282 70.9391L256.647 38.4014H256.095L244.689 70.9391H268.282Z" fill="black"/>
<path d="M348.399 91.1976V101.384H301.581V23.9146H313.193L313.101 91.1976H348.399Z" fill="black"/>
<path d="M393.119 102.166C385.651 102.166 379.282 100.453 374.01 97.0153C368.733 93.5833 364.732 88.8636 362.007 82.8504C359.276 76.843 357.914 70.0366 357.914 62.431C357.914 54.8312 359.276 47.9845 362.007 41.8966C364.732 35.8145 368.75 31.0201 374.056 27.5248C379.374 24.0181 385.726 22.259 393.119 22.259C400.414 22.259 406.697 23.9951 411.974 27.4559C417.246 30.9223 421.247 35.6995 423.978 41.7816C426.703 47.8695 428.071 54.791 428.071 62.546C428.071 70.2148 426.703 77.0328 423.978 83.0114C421.247 88.9901 417.246 93.681 411.974 97.0843C406.697 100.476 400.414 102.166 393.119 102.166ZM393.004 91.7495C397.723 91.7495 401.816 90.502 405.283 88.0013C408.744 85.4891 411.4 81.9996 413.239 77.5386C415.09 73.0776 416.022 68.0073 416.022 62.316C416.022 56.6306 415.09 51.5545 413.239 47.0935C411.4 42.6325 408.744 39.1142 405.283 36.5388C401.816 33.9519 397.723 32.6527 393.004 32.6527C388.278 32.6527 384.179 33.9519 380.701 36.5388C377.235 39.1142 374.585 42.6555 372.745 47.1624C370.906 51.6579 369.986 56.7053 369.986 62.316C369.986 67.9268 370.906 72.9627 372.745 77.4237C374.585 81.8847 377.235 85.3914 380.701 87.9323C384.179 90.479 388.278 91.7495 393.004 91.7495Z" fill="black"/>
<path d="M467.599 102.281C461.54 102.281 456.355 101.051 452.032 98.5789C447.72 96.0955 444.478 92.8992 442.305 88.9901C440.126 85.0809 439.04 80.9879 439.04 76.7108V76.1589H451.664V76.7108C451.664 79.0735 452.216 81.419 453.319 83.7472C454.423 86.064 456.194 88.0185 458.631 89.6109C461.069 91.1918 464.127 91.9794 467.806 91.9794C472.313 91.9794 475.981 90.8412 478.821 88.5532C481.655 86.2537 483.075 83.1494 483.075 79.2403C483.075 76.0095 481.982 73.4341 479.809 71.514C477.631 69.5824 474.889 68.289 471.577 67.6279L460.954 65.5353C456.309 64.5695 451.825 62.592 447.502 59.6027C443.179 56.6133 441.017 51.6177 441.017 44.61C441.017 40.103 442.104 36.1594 444.282 32.7677C446.455 29.3817 449.502 26.7833 453.411 24.9724C457.332 23.1673 461.804 22.259 466.817 22.259C472.566 22.259 477.498 23.403 481.626 25.6853C485.765 27.9732 488.881 30.9453 490.985 34.6073C493.1 38.2577 494.158 42.0691 494.158 46.0357V46.4956H481.534V46.1507C481.534 44.1616 481.051 42.0978 480.085 39.9651C479.131 37.8208 477.533 35.9984 475.279 34.4923C473.026 32.9746 470.088 32.2158 466.472 32.2158C462.195 32.2158 458.821 33.3828 456.355 35.711C453.883 38.0277 452.653 40.9193 452.653 44.3801C452.653 47.4154 453.699 49.8931 455.803 51.8074C457.901 53.7275 460.655 55.0152 464.058 55.6705L473.9 57.6711C479.585 58.8553 484.546 61.0283 488.777 64.2016C493.02 67.3749 495.147 72.2843 495.147 78.9183C495.147 83.4886 493.98 87.5414 491.652 91.0826C489.335 94.6238 486.093 97.3774 481.925 99.3378C477.751 101.304 472.98 102.281 467.599 102.281Z" fill="black"/>
<path d="M0 122L496 122" stroke="black" stroke-width="2"/>
</svg>
