<svg width="500" height="180" viewBox="0 0 500 180" fill="none" xmlns="http://www.w3.org/2000/svg">
<path d="M8.48148 159.755H7.69444C6.87268 159.905 6.16667 160.333 5.56481 161.028C4.96296 161.734 4.66204 162.59 4.66204 163.597C4.66204 164.199 4.77778 164.616 5.00926 164.847C5.25231 165.09 5.61111 165.218 6.07407 165.218C6.72222 165.218 7.32986 164.998 7.90278 164.569V166.167C7.09838 166.705 6.13194 166.977 5.00926 166.977C4.12963 166.977 3.40046 166.769 2.83333 166.352C2.27778 165.935 2 165.223 2 164.222C2 162.984 2.37037 161.959 3.11111 161.144C3.86343 160.322 4.71412 159.749 5.65741 159.407H5.7037V137.44H8.48148V159.755Z" fill="black"/>
<path d="M29.4466 137C30.9859 137 32.2822 137.289 33.3355 137.856C34.4003 138.429 35.2221 139.216 35.8123 140.218C36.4142 141.207 36.773 142.341 36.9003 143.62H33.9373C33.7984 142.22 33.3239 141.132 32.5253 140.356C31.7209 139.587 30.6156 139.199 29.2151 139.199C28.023 139.199 27.0218 139.477 26.2058 140.032C25.3841 140.588 24.979 141.456 24.979 142.625C24.979 143.829 25.3494 144.743 26.0901 145.356C26.8308 145.958 28.0577 146.462 29.7707 146.861C32.2244 147.417 34.0589 148.238 35.2799 149.315C36.5126 150.397 37.1318 151.884 37.1318 153.782C37.1318 155.096 36.7903 156.23 36.1133 157.185C35.4304 158.146 34.516 158.892 33.3586 159.431C32.2128 159.951 30.9165 160.218 29.4697 160.218C27.016 160.218 25.0369 159.627 23.5438 158.435C22.0623 157.249 21.2058 155.576 20.9744 153.412H23.9373C24.2614 154.882 24.9096 156.016 25.8818 156.815C26.8656 157.619 28.0866 158.019 29.5392 158.019C30.8008 158.019 31.8887 157.689 32.8031 157.023C33.7116 156.363 34.1688 155.449 34.1688 154.292C34.1688 152.938 33.7406 151.902 32.8957 151.19C32.0623 150.484 30.6619 149.894 28.7058 149.431C27.3748 149.141 26.2116 148.748 25.2105 148.25C24.2035 147.758 23.4165 147.11 22.8494 146.306C22.2764 145.507 21.9929 144.494 21.9929 143.273C21.9929 141.977 22.3227 140.86 22.9883 139.917C23.6653 138.979 24.5681 138.262 25.6966 137.764C26.8366 137.255 28.0866 137 29.4466 137Z" fill="black"/>
<path d="M52.5069 159.755H49.7291V137.44H52.5069V159.755Z" fill="black"/>
<path d="M73.4719 137C75.0113 137 76.3076 137.289 77.3608 137.856C78.4256 138.429 79.2474 139.216 79.8377 140.218C80.4395 141.207 80.7983 142.341 80.9256 143.62H77.9627C77.8238 142.22 77.3492 141.132 76.5506 140.356C75.7462 139.587 74.6409 139.199 73.2404 139.199C72.0483 139.199 71.0471 139.477 70.2312 140.032C69.4094 140.588 69.0043 141.456 69.0043 142.625C69.0043 143.829 69.3747 144.743 70.1154 145.356C70.8562 145.958 72.083 146.462 73.796 146.861C76.2497 147.417 78.0842 148.238 79.3053 149.315C80.5379 150.397 81.1571 151.884 81.1571 153.782C81.1571 155.096 80.8157 156.23 80.1386 157.185C79.4557 158.146 78.5414 158.892 77.384 159.431C76.2381 159.951 74.9418 160.218 73.4951 160.218C71.0414 160.218 69.0622 159.627 67.5691 158.435C66.0877 157.249 65.2312 155.576 64.9997 153.412H67.9627C68.2867 154.882 68.9349 156.016 69.9071 156.815C70.8909 157.619 72.112 158.019 73.5645 158.019C74.8261 158.019 75.914 157.689 76.8284 157.023C77.737 156.363 78.1941 155.449 78.1941 154.292C78.1941 152.938 77.7659 151.902 76.921 151.19C76.0877 150.484 74.6872 149.894 72.7312 149.431C71.4002 149.141 70.237 148.748 69.2358 148.25C68.2289 147.758 67.4418 147.11 66.8747 146.306C66.3018 145.507 66.0182 144.494 66.0182 143.273C66.0182 141.977 66.3481 140.86 67.0136 139.917C67.6907 138.979 68.5934 138.262 69.7219 137.764C70.862 137.255 72.112 137 73.4719 137Z" fill="black"/>
<path d="M106.81 163.597C106.81 164.199 106.926 164.616 107.157 164.847C107.4 165.09 107.765 165.218 108.245 165.218C108.876 165.218 109.478 164.998 110.051 164.569V166.167C109.246 166.705 108.28 166.977 107.157 166.977C106.278 166.977 105.56 166.769 105.004 166.352C104.449 165.935 104.171 165.223 104.171 164.222C104.171 162.984 104.541 161.959 105.282 161.144C106.023 160.322 106.856 159.749 107.782 159.407L105.259 151.861H97.0415L94.4257 159.755H91.4628L99.472 137.44H103.222L110.93 159.755H109.842C109.021 159.905 108.315 160.333 107.713 161.028C107.111 161.734 106.81 162.59 106.81 163.597ZM97.8285 149.593H104.518L101.278 139.639L97.8285 149.593Z" fill="black"/>
<path d="M144.95 137.44V159.755H142.172V148.273C142.172 146.873 142.172 145.438 142.172 143.968C142.184 142.503 142.201 141.167 142.219 139.963C141.86 141.167 141.438 142.509 140.946 143.991C140.465 145.472 139.985 146.896 139.51 148.25L135.575 159.755H132.08L128.075 148.181C127.612 146.838 127.138 145.443 126.663 143.991C126.2 142.544 125.784 141.225 125.413 140.032C125.46 141.236 125.483 142.573 125.483 144.037C125.483 145.49 125.483 146.902 125.483 148.273V159.755H122.705V137.44H127.288L133.885 157.394L140.46 137.44H144.95Z" fill="black"/>
<path d="M167.817 137C170.085 137 172.007 137.498 173.581 138.481C175.155 139.471 176.341 140.837 177.146 142.579C177.962 144.309 178.372 146.317 178.372 148.597C178.372 150.866 177.962 152.874 177.146 154.616C176.341 156.363 175.155 157.735 173.581 158.736C172.007 159.726 170.085 160.218 167.817 160.218C165.548 160.218 163.633 159.726 162.076 158.736C160.514 157.735 159.327 156.363 158.511 154.616C157.69 152.874 157.284 150.866 157.284 148.597C157.284 146.317 157.69 144.309 158.511 142.579C159.327 140.837 160.514 139.471 162.076 138.481C163.633 137.498 165.548 137 167.817 137ZM167.817 158.019C170.161 158.019 171.983 157.174 173.28 155.472C174.588 153.777 175.247 151.485 175.247 148.597C175.247 145.681 174.588 143.389 173.28 141.722C171.983 140.044 170.161 139.199 167.817 139.199C165.467 139.199 163.639 140.044 162.331 141.722C161.034 143.389 160.386 145.681 160.386 148.597C160.386 151.485 161.034 153.777 162.331 155.472C163.639 157.174 165.467 158.019 167.817 158.019Z" fill="black"/>
<path d="M208.571 159.755H204.312L193.803 140.148C193.832 141.479 193.855 142.891 193.872 144.384C193.884 145.883 193.895 147.289 193.895 148.597V159.755H191.117V137.44H195.377L205.886 157.046C205.869 155.721 205.845 154.309 205.817 152.81C205.799 151.317 205.793 149.911 205.793 148.597V137.44H208.502L208.571 159.755Z" fill="black"/>
<path d="M225.401 159.755H222.623V137.44H225.401V159.755Z" fill="black"/>
<path d="M256.898 159.755H252.639L242.13 140.148C242.159 141.479 242.182 142.891 242.199 144.384C242.211 145.883 242.222 147.289 242.222 148.597V159.755H239.445V137.44H243.704L254.213 157.046C254.196 155.721 254.173 154.309 254.144 152.81C254.126 151.317 254.121 149.911 254.121 148.597V137.44H256.829L256.898 159.755Z" fill="black"/>
<path d="M287.501 139.708H279.538V159.755H276.76V139.708H268.797V137.44H287.501V139.708Z" fill="black"/>
<path d="M310.532 151.861H302.314L299.699 159.755H296.736L304.745 137.44H308.495L316.203 159.755H313.194L310.532 151.861ZM303.101 149.593H309.791L306.551 139.639L303.101 149.593Z" fill="black"/>
<path d="M365.492 137.44V159.755H362.714V148.273C362.714 146.873 362.714 145.438 362.714 143.968C362.726 142.503 362.743 141.167 362.761 139.963C362.402 141.167 361.979 142.509 361.487 143.991C361.007 145.472 360.527 146.896 360.052 148.25L356.117 159.755H352.622L348.617 148.181C348.154 146.838 347.68 145.443 347.205 143.991C346.742 142.544 346.325 141.225 345.955 140.032C346.001 141.236 346.024 142.573 346.024 144.037C346.024 145.49 346.024 146.902 346.024 148.273V159.755H343.247V137.44H347.83L354.427 157.394L361.001 137.44H365.492Z" fill="black"/>
<path d="M382.317 159.755H379.539V137.44H382.317V159.755Z" fill="black"/>
<path d="M412.912 139.708H404.949V159.755H402.171V139.708H394.208V137.44H412.912V139.708Z" fill="black"/>
<path d="M432.493 150.958V159.755H429.693V150.958L421.822 137.44H425.017L431.22 148.273L437.239 137.44H440.364L432.493 150.958Z" fill="black"/>
<path d="M462.693 147.88C464.157 148.238 465.286 148.829 466.073 149.662C466.871 150.484 467.276 151.653 467.276 153.181C467.276 154.541 466.999 155.669 466.443 156.56C465.899 157.457 465.193 158.152 464.313 158.644C463.445 159.124 462.519 159.442 461.536 159.593C460.992 159.685 460.506 159.743 460.077 159.755C459.661 159.755 459.198 159.755 458.688 159.755H451.512V137.44H458.063C458.602 137.44 459.088 137.451 459.522 137.463C459.95 137.463 460.436 137.503 460.98 137.579C462.751 137.81 464.111 138.377 465.054 139.269C466.009 140.166 466.489 141.41 466.489 142.995C466.489 144.338 466.142 145.397 465.448 146.167C464.753 146.925 463.833 147.498 462.693 147.88ZM454.29 139.708V147.046H458.596C458.885 147.046 459.174 147.041 459.452 147.023C459.742 146.994 460.043 146.954 460.355 146.907C461.512 146.74 462.323 146.329 462.786 145.681C463.26 145.032 463.503 144.216 463.503 143.227C463.503 142.133 463.185 141.317 462.554 140.773C461.918 140.218 461.096 139.888 460.077 139.778C459.799 139.731 459.499 139.708 459.174 139.708C458.85 139.708 458.555 139.708 458.295 139.708H454.29ZM460.656 157.417C461.732 157.313 462.612 156.931 463.295 156.282C463.972 155.623 464.313 154.685 464.313 153.481C464.313 152.11 463.972 151.132 463.295 150.542C462.629 149.957 461.756 149.587 460.679 149.431C460.32 149.402 459.996 149.378 459.707 149.361C459.429 149.332 459.163 149.315 458.92 149.315H454.29V157.486H459.105C459.365 157.486 459.637 157.486 459.915 157.486C460.193 157.475 460.436 157.451 460.656 157.417Z" fill="black"/>
<path d="M491.579 151.861H483.362L480.746 159.755H477.783L485.792 137.44H489.542L497.251 159.755H494.241L491.579 151.861ZM484.149 149.593H490.839L487.598 139.639L484.149 149.593Z" fill="black"/>
<mask id="mask0_2_344" style="mask-type:luminance" maskUnits="userSpaceOnUse" x="0" y="0" width="500" height="180">
<path d="M500 0H0V180H500V0Z" fill="white"/>
</mask>
<g mask="url(#mask0_2_344)">
<path d="M1.76465 24.2806H33.5239C38.6454 24.2806 42.8584 25.247 46.1628 27.1741C49.4614 29.1069 51.8572 31.5722 53.3387 34.5815C54.8318 37.5907 55.5841 40.7736 55.5841 44.1185C55.5841 47.3766 54.9128 50.1949 53.5702 52.5676C52.2392 54.9461 50.5899 56.8211 48.6165 58.1926C46.6373 59.5699 44.7623 60.4495 42.9915 60.8315V61.4796C45.0748 61.7111 47.3723 62.475 49.8897 63.7713C52.4186 65.0676 54.6234 67.0583 56.51 69.7435C58.4082 72.4171 59.3572 75.7968 59.3572 79.8824C59.3572 83.5861 58.5239 87.1509 56.8572 90.5769C55.1906 93.9912 52.5748 96.7921 49.01 98.9796C45.4452 101.173 40.9429 102.267 35.5147 102.267H1.76465V24.2806ZM30.1674 57.9148C34.039 57.9148 37.4012 56.8963 40.26 54.8593C43.113 52.8222 44.5424 49.6856 44.5424 45.438C44.5424 41.3639 43.1651 38.4009 40.4221 36.5491C37.6732 34.6856 34.2531 33.7481 30.1674 33.7481H13.0146V57.9148H30.1674ZM32.7369 92.7991C37.0424 92.7991 40.6998 91.7806 43.7091 89.7435C46.7184 87.6949 48.223 84.2921 48.223 79.5352C48.223 74.9403 46.7184 71.6359 43.7091 69.6278C40.6998 67.6255 37.0424 66.6185 32.7369 66.6185H13.0146V92.7991H32.7369Z" fill="black"/>
<path d="M82.9732 34.5352V57.9148H115.635V67.1741H82.9732V92.012H120.519V102.267H71.2834V24.2806H120.519V34.5352H82.9732Z" fill="black"/>
<path d="M158.081 91.688L200.303 35.0907V34.8593H158.081V24.2806H214.215V34.8593L171.877 91.4565V91.688H214.215V102.267H158.081V91.688ZM178.127 0.206477L186.483 9.55833H186.923L195.488 0.206477H206.646L191.483 16.9194H182.132L167.085 0.206477H178.127Z" fill="black"/>
<path d="M274.046 80.762H243.861L236.384 102.267H224.694L253.56 24.2806H264.463L293.444 102.267H281.731L274.046 80.762ZM270.829 71.6185L259.116 38.8639H258.56L247.079 71.6185H270.829Z" fill="black"/>
<path d="M351.479 92.012V102.267H304.349V24.2806H316.039L315.947 92.012H351.479Z" fill="black"/>
<path d="M396.498 103.054C388.98 103.054 382.568 101.329 377.262 97.8685C371.949 94.4137 367.921 89.6625 365.178 83.6093C362.429 77.5618 361.058 70.71 361.058 63.0537C361.058 55.4032 362.429 48.5109 365.178 42.3824C367.921 36.2597 371.966 31.4333 377.308 27.9148C382.661 24.3847 389.056 22.6139 396.498 22.6139C403.841 22.6139 410.167 24.3616 415.479 27.8454C420.786 31.335 424.814 36.144 427.562 42.2667C430.306 48.3951 431.683 55.3627 431.683 63.1694C431.683 70.8894 430.306 77.7528 427.562 83.7713C424.814 89.7898 420.786 94.512 415.479 97.938C410.167 101.352 403.841 103.054 396.498 103.054ZM396.382 92.5676C401.133 92.5676 405.253 91.3118 408.743 88.7944C412.227 86.2655 414.9 82.7528 416.752 78.262C418.616 73.7713 419.553 68.6671 419.553 62.938C419.553 57.2146 418.616 52.1046 416.752 47.6139C414.9 43.1231 412.227 39.5815 408.743 36.9889C405.253 34.3847 401.133 33.0769 396.382 33.0769C391.625 33.0769 387.499 34.3847 383.998 36.9889C380.508 39.5815 377.84 43.1463 375.988 47.6833C374.137 52.2088 373.211 57.2898 373.211 62.938C373.211 68.5861 374.137 73.6556 375.988 78.1463C377.84 82.637 380.508 86.1671 383.998 88.725C387.499 91.2887 391.625 92.5676 396.382 92.5676Z" fill="black"/>
<path d="M471.474 103.169C465.375 103.169 460.155 101.931 455.803 99.4426C451.463 96.9426 448.199 93.725 446.011 89.7898C443.818 85.8546 442.724 81.7343 442.724 77.4287V76.8732H455.433V77.4287C455.433 79.8072 455.988 82.1683 457.099 84.512C458.21 86.8442 459.993 88.8118 462.447 90.4148C464.9 92.0063 467.979 92.7991 471.683 92.7991C476.22 92.7991 479.912 91.6532 482.771 89.35C485.624 87.0352 487.053 83.9102 487.053 79.975C487.053 76.7227 485.954 74.1301 483.766 72.1972C481.573 70.2528 478.812 68.9507 475.479 68.2852L464.785 66.1787C460.109 65.2065 455.595 63.2157 451.243 60.2065C446.891 57.1972 444.715 52.1683 444.715 45.1139C444.715 40.5769 445.809 36.6069 448.002 33.1926C450.19 29.784 453.257 27.1683 457.192 25.3454C461.139 23.5282 465.641 22.6139 470.687 22.6139C476.474 22.6139 481.44 23.7655 485.595 26.063C489.761 28.3662 492.898 31.3581 495.016 35.0444C497.146 38.7192 498.21 42.556 498.21 46.5491V47.012H485.502V46.6648C485.502 44.6625 485.016 42.585 484.044 40.438C483.083 38.2794 481.474 36.4449 479.206 34.9287C476.937 33.4009 473.98 32.637 470.34 32.637C466.035 32.637 462.638 33.8118 460.155 36.1556C457.666 38.4877 456.428 41.3986 456.428 44.8824C456.428 47.938 457.481 50.4322 459.599 52.3593C461.712 54.2921 464.484 55.5884 467.91 56.2482L477.817 58.262C483.54 59.4542 488.535 61.6417 492.794 64.8361C497.065 68.0306 499.206 72.9727 499.206 79.6509C499.206 84.2516 498.031 88.3315 495.687 91.8963C493.355 95.4611 490.091 98.2331 485.896 100.206C481.694 102.186 476.891 103.169 471.474 103.169Z" fill="black"/>
<path d="M1 120L499 120" stroke="black" stroke-width="2"/>
</g>
</svg>
