<svg width="500" height="180" viewBox="0 0 500 180" fill="none" xmlns="http://www.w3.org/2000/svg">
<path d="M8.83004 172.895H7.64601C7.12424 172.951 6.68274 173.26 6.32151 173.817C5.96028 174.368 5.77966 175.031 5.77966 175.796C5.77966 176.859 6.17099 177.393 6.96369 177.393C7.44533 177.393 7.9069 177.168 8.3484 176.718V178.675C7.53062 179.496 6.46198 179.912 5.13748 179.912C3.18083 179.912 2.20752 179.001 2.20752 177.19C2.20752 176.184 2.47342 175.267 3.01025 174.447C3.54206 173.637 4.19427 173.035 4.95687 172.647V151.214H8.83004V172.895Z" fill="black"/>
<path d="M29.4138 150.11C31.826 150.11 33.668 150.746 34.9399 152.005C36.2227 153.271 36.9847 154.975 37.2205 157.113H32.9224C32.7908 155.946 32.4181 155.033 31.8041 154.386C31.19 153.739 30.3403 153.415 29.2603 153.415C28.3831 153.415 27.665 153.646 27.1113 154.108C26.5685 154.559 26.2999 155.212 26.2999 156.073C26.2999 157.014 26.6288 157.754 27.2867 158.291C27.9555 158.834 29.1287 159.308 30.7953 159.724C33.1033 160.279 34.7973 161.128 35.8828 162.266C36.9793 163.41 37.5275 164.889 37.5275 166.703C37.5275 168.725 36.7709 170.325 35.2688 171.51C33.7612 172.7 31.9137 173.289 29.7208 173.289C27.1442 173.289 25.0938 172.688 23.5588 171.487C22.0347 170.285 21.174 168.54 20.9712 166.241H25.2912C25.5105 167.431 26.0148 168.344 26.8043 168.991C27.6047 169.638 28.5586 169.961 29.655 169.961C30.6309 169.961 31.4532 169.707 32.1111 169.199C32.7799 168.679 33.1198 167.991 33.1198 167.142C33.1198 166.206 32.7963 165.444 32.1549 164.854C31.508 164.271 30.4225 163.785 28.8875 163.398C26.5192 162.797 24.7484 162 23.5807 160.995C22.424 159.995 21.8483 158.54 21.8483 156.627C21.8483 154.64 22.5775 153.063 24.0412 151.89C25.5159 150.705 27.3086 150.11 29.4138 150.11Z" fill="black"/>
<path d="M52.9802 173.289H48.5652V151.214H52.9802V173.289Z" fill="black"/>
<path d="M74.6677 150.11C77.0799 150.11 78.9219 150.746 80.1938 152.005C81.4766 153.271 82.2386 154.975 82.4744 157.113H78.1763C78.0448 155.946 77.672 155.033 77.058 154.386C76.4439 153.739 75.5942 153.415 74.5142 153.415C73.6371 153.415 72.9189 153.646 72.3652 154.108C71.8224 154.559 71.5538 155.212 71.5538 156.073C71.5538 157.014 71.8827 157.754 72.5406 158.291C73.2094 158.834 74.3826 159.308 76.0492 159.724C78.3572 160.279 80.0512 161.128 81.1367 162.266C82.2332 163.41 82.7814 164.889 82.7814 166.703C82.7814 168.725 82.0248 170.325 80.5227 171.51C79.0151 172.7 77.1676 173.289 74.9747 173.289C72.3981 173.289 70.3477 172.688 68.8127 171.487C67.2886 170.285 66.4279 168.54 66.2251 166.241H70.5451C70.7644 167.431 71.2687 168.344 72.0582 168.991C72.8586 169.638 73.8125 169.961 74.9089 169.961C75.8848 169.961 76.7071 169.707 77.365 169.199C78.0338 168.679 78.3737 167.991 78.3737 167.142C78.3737 166.206 78.0502 165.444 77.4088 164.854C76.7619 164.271 75.6764 163.785 74.1414 163.398C71.7731 162.797 70.0023 162 68.8346 160.995C67.6779 159.995 67.1023 158.54 67.1023 156.627C67.1023 154.64 67.8314 153.063 69.2951 151.89C70.7699 150.705 72.5625 150.11 74.6677 150.11Z" fill="black"/>
<path d="M108.749 175.796C108.749 176.859 109.189 177.393 110.08 177.393C110.621 177.393 111.14 177.168 111.636 176.718V178.675C110.717 179.496 109.516 179.912 108.028 179.912C105.846 179.912 104.758 179.001 104.758 177.19C104.758 176.212 105.051 175.312 105.638 174.492C106.224 173.682 106.945 173.075 107.802 172.67L105.728 166.35H98.4216L96.2343 172.895H91.6116L99.4589 151.214H104.893L112.583 172.895H110.869C110.266 172.951 109.764 173.26 109.358 173.817C108.952 174.368 108.749 175.031 108.749 175.796ZM102.097 154.925L99.5265 162.932H104.623L102.097 154.925Z" fill="black"/>
<path d="M145.695 151.214V173.289H141.394V163.076C141.394 159.584 141.416 157.071 141.461 155.542C140.881 158.095 140.213 160.597 139.455 163.053L136.446 173.289H131.766L128.69 163.03C127.899 160.317 127.253 157.826 126.751 155.565C126.796 157.111 126.818 159.612 126.818 163.076V173.289H122.517V151.214H129.314L134.173 169.236L139.032 151.214H145.695Z" fill="black"/>
<path d="M168.333 150.11C171.557 150.11 174.11 151.162 175.991 153.253C177.867 155.35 178.808 158.164 178.808 161.688C178.808 165.201 177.867 168.014 175.991 170.123C174.11 172.238 171.552 173.289 168.311 173.289C165.082 173.289 162.529 172.238 160.653 170.123C158.772 168.014 157.837 165.201 157.837 161.688C157.837 158.164 158.766 155.35 160.631 153.253C162.507 151.162 165.077 150.11 168.333 150.11ZM163.866 167.789C164.95 169.239 166.43 169.961 168.311 169.961C170.204 169.961 171.678 169.233 172.734 167.766C173.802 166.304 174.341 164.276 174.341 161.688C174.341 159.088 173.802 157.061 172.734 155.61C171.678 154.149 170.209 153.415 168.333 153.415C166.424 153.415 164.933 154.149 163.866 155.61C162.793 157.061 162.26 159.088 162.26 161.688C162.26 164.294 162.793 166.327 163.866 167.789Z" fill="black"/>
<path d="M209.713 173.289H204.209L195.931 156.527C196.025 158.53 196.077 160.786 196.077 163.305V173.289H192.053V151.214H197.391L205.835 168.297C205.736 166.316 205.689 164.003 205.689 161.359V151.214H209.692L209.713 173.289Z" fill="black"/>
<path d="M227.373 173.289H222.958V151.214H227.373V173.289Z" fill="black"/>
<path d="M258.278 173.289H252.774L244.496 156.527C244.59 158.53 244.642 160.786 244.642 163.305V173.289H240.618V151.214H245.956L254.4 168.297C254.301 166.316 254.254 164.003 254.254 161.359V151.214H258.257L258.278 173.289Z" fill="black"/>
<path d="M289.183 154.672H281.513V173.289H276.986V154.672H269.316V151.214H289.183V154.672Z" fill="black"/>
<path d="M310.665 166.625H302.974L300.672 173.289H295.806L304.066 151.214H309.787L317.881 173.289H312.92L310.665 166.625ZM306.843 154.993L304.137 163.145H309.502L306.843 154.993Z" fill="black"/>
<path d="M367.55 151.214V173.289H363.043V163.076C363.043 159.584 363.067 157.071 363.113 155.542C362.506 158.095 361.806 160.597 361.012 163.053L357.86 173.289H352.957L349.735 163.03C348.906 160.317 348.229 157.826 347.703 155.565C347.75 157.111 347.773 159.612 347.773 163.076V173.289H343.267V151.214H350.388L355.478 169.236L360.568 151.214H367.55Z" fill="black"/>
<path d="M383.002 173.289H378.587V151.214H383.002V173.289Z" fill="black"/>
<path d="M413.907 154.672H406.237V173.289H401.71V154.672H394.04V151.214H413.907V154.672Z" fill="black"/>
<path d="M433.334 164.748V173.289H428.721V164.748L420.53 151.214H425.767L431.172 160.855L436.408 151.214H441.501L433.334 164.748Z" fill="black"/>
<path d="M464.154 161.381C466.712 162.114 467.991 163.889 467.991 166.694C467.991 168.606 467.455 170.1 466.382 171.182C465.319 172.27 464.04 172.923 462.545 173.152C461.869 173.243 460.946 173.289 459.78 173.289H452.539V151.214H459.656C460.714 151.214 461.575 151.26 462.235 151.352C463.829 151.569 465.062 152.164 465.928 153.138C466.805 154.117 467.248 155.353 467.248 156.847C467.248 159.092 466.217 160.603 464.154 161.381ZM456.52 154.672V160.259H459.512C459.991 160.259 460.466 160.231 460.935 160.168C462.38 159.91 463.102 158.994 463.102 157.42C463.102 155.863 462.349 154.981 460.853 154.764C460.383 154.706 459.904 154.672 459.409 154.672H456.52ZM461.307 169.763C462.034 169.705 462.632 169.408 463.102 168.87C463.581 168.337 463.824 167.627 463.824 166.74C463.824 164.879 462.962 163.855 461.245 163.671C460.76 163.597 460.296 163.557 459.842 163.557H456.52V169.808H459.986C460.616 169.808 461.059 169.797 461.307 169.763Z" fill="black"/>
<path d="M492.041 166.625H484.735L482.548 173.289H477.925L485.772 151.214H491.207L498.896 173.289H494.183L492.041 166.625ZM488.411 154.993L485.84 163.145H490.936L488.411 154.993Z" fill="black"/>
<mask id="mask0_2_573" style="mask-type:luminance" maskUnits="userSpaceOnUse" x="0" y="0" width="500" height="180">
<path d="M500 0H0V179.912H500V0Z" fill="white"/>
</mask>
<g mask="url(#mask0_2_573)">
<path d="M1.75293 24.4876H33.3019C38.3895 24.4876 42.5745 25.4476 45.8571 27.362C49.1338 29.282 51.5138 31.731 52.9855 34.7203C54.4686 37.7097 55.216 40.8714 55.216 44.1942C55.216 47.4307 54.5491 50.2303 53.2154 52.5873C51.8932 54.95 50.2548 56.8126 48.2945 58.1751C46.3284 59.5433 44.4659 60.4171 42.7068 60.7965V61.4403C44.7763 61.6703 47.0585 62.4291 49.5592 63.7168C52.0714 65.0045 54.2617 66.9821 56.1358 69.6495C58.0213 72.3054 58.9641 75.6626 58.9641 79.7212C58.9641 83.4004 58.1363 86.9416 56.4807 90.3449C54.825 93.7366 52.2266 96.519 48.6854 98.692C45.1442 100.871 40.6717 101.957 35.2794 101.957H1.75293V24.4876ZM29.9676 57.8991C33.8135 57.8991 37.1535 56.8874 39.9934 54.8638C42.8275 52.8403 44.2474 49.7245 44.2474 45.5049C44.2474 41.4578 42.8792 38.5145 40.1543 36.6749C37.4237 34.8238 34.0262 33.8925 29.9676 33.8925H12.9284V57.8991H29.9676ZM32.52 92.5524C36.7971 92.5524 40.4303 91.5406 43.4196 89.517C46.4089 87.482 47.9036 84.1018 47.9036 79.3763C47.9036 74.8118 46.4089 71.5293 43.4196 69.5345C40.4303 67.5455 36.7971 66.5452 32.52 66.5452H12.9284V92.5524H32.52Z" fill="black"/>
<path d="M82.4237 34.6743V57.8991H114.869V67.0971H82.4237V91.7705H119.721V101.957H70.8113V24.4876H119.721V34.6743H82.4237Z" fill="black"/>
<path d="M157.034 91.4486L198.977 35.2262V34.9963H157.034V24.4876H212.796V34.9963L170.739 91.2187V91.4486H212.796V101.957H157.034V91.4486ZM176.947 0.572962L185.249 9.86288H185.686L194.194 0.572962H205.277L190.216 17.1752H180.926L165.979 0.572962H176.947Z" fill="black"/>
<path d="M272.231 80.595H242.246L234.819 101.957H223.206L251.881 24.4876H262.711L291.501 101.957H279.866L272.231 80.595ZM269.035 71.5121L257.4 38.9744H256.848L245.442 71.5121H269.035Z" fill="black"/>
<path d="M349.151 91.7705V101.957H302.334V24.4876H313.946L313.854 91.7705H349.151Z" fill="black"/>
<path d="M393.872 102.739C386.404 102.739 380.034 101.026 374.763 97.5882C369.486 94.1563 365.484 89.4366 362.76 83.4234C360.029 77.416 358.667 70.6095 358.667 63.004C358.667 55.4042 360.029 48.5575 362.76 42.4696C365.484 36.3874 369.503 31.593 374.809 28.0978C380.126 24.5911 386.479 22.832 393.872 22.832C401.167 22.832 407.45 24.5681 412.727 28.0288C417.999 31.4953 422 36.2725 424.731 42.3546C427.456 48.4425 428.824 55.3639 428.824 63.119C428.824 70.7877 427.456 77.6057 424.731 83.5844C422 89.563 417.999 94.254 412.727 97.6572C407.45 101.049 401.167 102.739 393.872 102.739ZM393.757 92.3224C398.476 92.3224 402.569 91.0749 406.036 88.5743C409.497 86.0621 412.153 82.5726 413.992 78.1116C415.843 73.6506 416.774 68.5802 416.774 62.889C416.774 57.2035 415.843 52.1274 413.992 47.6664C412.153 43.2054 409.497 39.6872 406.036 37.1118C402.569 34.5249 398.476 33.2257 393.757 33.2257C389.031 33.2257 384.932 34.5249 381.454 37.1118C377.988 39.6872 375.338 43.2284 373.498 47.7354C371.659 52.2309 370.739 57.2783 370.739 62.889C370.739 68.4998 371.659 73.5356 373.498 77.9966C375.338 82.4576 377.988 85.9643 381.454 88.5053C384.932 91.052 389.031 92.3224 393.757 92.3224Z" fill="black"/>
<path d="M468.352 102.854C462.293 102.854 457.108 101.624 452.785 99.1519C448.473 96.6684 445.231 93.4722 443.058 89.563C440.879 85.6539 439.792 81.5608 439.792 77.2838V76.7319H452.417V77.2838C452.417 79.6465 452.969 81.992 454.072 84.3202C455.176 86.6369 456.947 88.5915 459.384 90.1839C461.822 91.7648 464.88 92.5524 468.559 92.5524C473.066 92.5524 476.734 91.4141 479.574 89.1261C482.408 86.8266 483.828 83.7223 483.828 79.8132C483.828 76.5824 482.735 74.007 480.562 72.0869C478.384 70.1554 475.641 68.8619 472.33 68.2008L461.707 66.1083C457.062 65.1425 452.578 63.1649 448.255 60.1756C443.932 57.1863 441.77 52.1907 441.77 45.183C441.77 40.676 442.857 36.7324 445.035 33.3406C447.208 29.9546 450.255 27.3562 454.164 25.5454C458.085 23.7403 462.557 22.832 467.57 22.832C473.319 22.832 478.251 23.976 482.379 26.2582C486.518 28.5462 489.634 31.5183 491.738 35.1802C493.853 38.8306 494.911 42.642 494.911 46.6087V47.0686H482.287V46.7236C482.287 44.7346 481.804 42.6708 480.838 40.538C479.884 38.3937 478.286 36.5714 476.032 35.0652C473.779 33.5476 470.841 32.7888 467.225 32.7888C462.948 32.7888 459.574 33.9557 457.108 36.284C454.636 38.6007 453.405 41.4923 453.405 44.953C453.405 47.9883 454.452 50.466 456.556 52.3804C458.654 54.3004 461.408 55.5881 464.811 56.2435L474.653 58.244C480.338 59.4283 485.299 61.6013 489.53 64.7746C493.773 67.9479 495.9 72.8573 495.9 79.4913C495.9 84.0615 494.733 88.1144 492.405 91.6556C490.088 95.1968 486.846 97.9504 482.678 99.9107C478.504 101.877 473.733 102.854 468.352 102.854Z" fill="black"/>
<path d="M1.10376 129.139L496.689 129.139" stroke="black" stroke-width="2"/>
</g>
</svg>
