<?xml version="1.0" encoding="iso-8859-1"?>
<!-- Uploaded to: SVG Repo, www.svgrepo.com, Generator: SVG Repo Mixer Tools -->
<svg fill="#082b1dcc" height="800px" width="800px" version="1.1" id="Layer_1" xmlns="http://www.w3.org/2000/svg" xmlns:xlink="http://www.w3.org/1999/xlink" 
	 viewBox="0 0 512.001 512.001" xml:space="preserve">
<g>
	<g>
		<path d="M177.203,38.144h-17.038c-4.412,0-7.986,3.575-7.986,7.986c0,4.412,3.575,7.986,7.986,7.986h17.038
			c4.412,0,7.986-3.575,7.986-7.986C185.189,41.719,181.614,38.144,177.203,38.144z"/>
	</g>
</g>
<g>
	<g>
		<path d="M194.241,438.526h-51.113c-4.412,0-7.986,3.575-7.986,7.986v34.075c0,4.412,3.575,7.986,7.986,7.986h51.113
			c4.412,0,7.986-3.575,7.986-7.986v-34.075C202.227,442.101,198.651,438.526,194.241,438.526z M186.254,472.601h-35.14v-18.102
			h35.14V472.601z"/>
	</g>
</g>
<g>
	<g>
		<path d="M264.52,302.225H77.108c-4.412,0-7.986,3.575-7.986,7.986c0,4.412,3.575,7.986,7.986,7.986H264.52
			c4.412,0,7.986-3.575,7.986-7.986C272.507,305.8,268.932,302.225,264.52,302.225z"/>
	</g>
</g>
<g>
	<g>
		<path d="M226.186,344.819H77.108c-4.412,0-7.986,3.575-7.986,7.986c0,4.412,3.575,7.986,7.986,7.986h149.078
			c4.412,0,7.986-3.575,7.986-7.986C234.172,348.394,230.598,344.819,226.186,344.819z"/>
	</g>
</g>
<g>
	<g>
		<path d="M162.295,208.519H77.108c-4.412,0-7.986,3.575-7.986,7.986c0,4.412,3.575,7.986,7.986,7.986h85.188
			c4.412,0,7.986-3.575,7.986-7.986C170.282,212.094,166.707,208.519,162.295,208.519z"/>
	</g>
</g>
<g>
	<g>
		<path d="M162.295,157.406H77.108c-4.412,0-7.986,3.575-7.986,7.986c0,4.412,3.575,7.986,7.986,7.986h85.188
			c4.412,0,7.986-3.575,7.986-7.986C170.282,160.981,166.707,157.406,162.295,157.406z"/>
	</g>
</g>
<g>
	<g>
		<path d="M461.367,49.039c-3.099-3.136-8.156-3.169-11.294-0.067c-3.137,3.1-3.168,8.157-0.067,11.294
			c19.722,19.961,30.147,43.827,30.147,69.018c0,62.48-65.204,113.31-145.351,113.31c-21.156,0-41.559-3.477-60.64-10.332
			c-1.867-0.671-3.919-0.623-5.753,0.137l-65.981,27.302l26.027-44.616c1.936-3.319,1.234-7.545-1.67-10.061
			c-24.075-20.851-37.335-47.75-37.335-75.739C189.449,66.804,254.652,15.973,334.8,15.973c34.195,0,67.428,9.47,93.575,26.665
			c3.688,2.424,8.637,1.399,11.062-2.285c2.422-3.685,1.4-8.637-2.285-11.062C408.428,10.404,372.078,0,334.8,0
			c-13.816,0-27.37,1.39-40.417,4.072c-0.016,0-0.031-0.002-0.047-0.002H55.811c-22.019,0-39.932,17.913-39.932,39.932v302.416
			c0,4.412,3.575,7.986,7.986,7.986s7.986-3.575,7.986-7.986V80.739h153.306c-7.66,15.205-11.681,31.613-11.681,48.546
			c0,30.695,13.413,60.06,37.919,83.341l-34.702,59.488c-1.727,2.96-1.373,6.693,0.882,9.276c1.549,1.776,3.759,2.734,6.018,2.734
			c1.027,0,2.063-0.198,3.051-0.607l85.053-35.193c11.596,3.948,23.615,6.758,35.948,8.426v156.22H31.851v-20.764
			c0-4.412-3.575-7.986-7.986-7.986c-4.412,0-7.986,3.575-7.986,7.986v79.863c0,22.019,17.913,39.932,39.932,39.932h227.877
			c22.019,0,39.932-17.913,39.932-39.932V258.258c3.705,0.201,7.432,0.31,11.181,0.31c42.749,0,83.015-13.229,113.382-37.249
			c30.917-24.456,47.943-57.141,47.943-92.034C496.124,99.802,484.105,72.053,461.367,49.039z M31.852,64.765V44
			c0-13.211,10.749-23.959,23.959-23.959h192.554c-9.618,4.9-18.653,10.648-26.945,17.208c-10.505,8.31-19.401,17.572-26.576,27.545
			c-0.2-0.014-0.399-0.03-0.603-0.03H31.852z M307.647,472.068c0,13.212-10.749,23.959-23.959,23.959H55.811
			c-13.211,0-23.959-10.749-23.959-23.959v-43.126h275.795V472.068z"/>
	</g>
</g>
<g>
	<g>
		<path d="M336.93,36.205c-13.798,0-25.024,11.226-25.024,25.024c0,13.798,11.226,25.024,25.024,25.024s25.024-11.226,25.024-25.024
			C361.954,47.43,350.728,36.205,336.93,36.205z M336.93,70.28c-4.991,0-9.051-4.06-9.051-9.051c0-4.991,4.06-9.051,9.051-9.051
			c4.991,0,9.051,4.06,9.051,9.051C345.981,66.22,341.92,70.28,336.93,70.28z"/>
	</g>
</g>
<g>
	<g>
		<path d="M337.995,93.706h-2.13c-13.211,0-23.959,10.749-23.959,23.959v83.058c0,13.211,10.749,23.959,23.959,23.959h2.13
			c13.21,0,23.959-10.749,23.959-23.959v-83.058C361.954,104.455,351.205,93.706,337.995,93.706z M345.981,200.723
			c0,4.404-3.582,7.986-7.986,7.986h-2.13c-4.404,0-7.986-3.582-7.986-7.986v-83.058c0-4.404,3.582-7.986,7.986-7.986h2.13
			c4.403,0,7.986,3.582,7.986,7.986V200.723z"/>
	</g>
</g>
</svg>