<svg width="500" height="176" viewBox="0 0 500 176" fill="none" xmlns="http://www.w3.org/2000/svg">
<path d="M30.8796 156.278H30.1852C29.4271 156.417 28.7731 156.799 28.2176 157.435C27.6736 158.066 27.4074 158.847 27.4074 159.773C27.4074 160.329 27.5116 160.711 27.7315 160.931C27.9456 161.145 28.2697 161.255 28.7037 161.255C29.2882 161.255 29.838 161.052 30.3472 160.653V162.088C29.6181 162.58 28.75 162.829 27.7315 162.829C26.9271 162.829 26.2731 162.644 25.7639 162.273C25.2546 161.903 25 161.255 25 160.329C25 159.218 25.3414 158.28 26.0185 157.528C26.6956 156.787 27.4653 156.266 28.3333 155.954H28.3565V136H30.8796V156.278Z" fill="black"></path>
<path d="M49.932 136C51.3324 136 52.513 136.266 53.4736 136.787C54.4459 137.296 55.1982 138.008 55.7422 138.917C56.2803 139.831 56.6044 140.861 56.7144 142.019H54.006C53.8961 140.757 53.4736 139.767 52.7329 139.056C51.9922 138.35 50.9852 137.991 49.7236 137.991C48.6415 137.991 47.7329 138.245 46.9922 138.755C46.2514 139.264 45.881 140.051 45.881 141.116C45.881 142.215 46.2109 143.037 46.8764 143.593C47.5535 144.148 48.6646 144.605 50.2097 144.958C52.4435 145.468 54.1218 146.22 55.2329 147.204C56.3556 148.176 56.9227 149.53 56.9227 151.255C56.9227 152.458 56.6102 153.5 55.9968 154.38C55.3776 155.248 54.5442 155.919 53.4968 156.394C52.4435 156.868 51.263 157.111 49.9551 157.111C47.7155 157.111 45.9158 156.573 44.5616 155.491C43.219 154.414 42.4378 152.892 42.2236 150.931H44.932C45.2213 152.262 45.8174 153.286 46.7144 154.009C47.6056 154.738 48.7109 155.097 50.0246 155.097C51.182 155.097 52.1658 154.808 52.9875 154.218C53.8035 153.616 54.2144 152.782 54.2144 151.718C54.2144 150.485 53.8266 149.553 53.057 148.917C52.2989 148.269 51.0315 147.736 49.2607 147.319C48.057 147.042 46.9979 146.683 46.0894 146.231C45.175 145.786 44.4574 145.201 43.9366 144.472C43.4273 143.749 43.1727 142.823 43.1727 141.694C43.1727 140.525 43.4736 139.513 44.0755 138.662C44.6773 137.817 45.4933 137.157 46.5292 136.694C47.5593 136.231 48.6935 136 49.932 136Z" fill="black"></path>
<path d="M70.8674 156.278H68.3442V136H70.8674V156.278Z" fill="black"></path>
<path d="M89.9197 136C91.3202 136 92.5007 136.266 93.4614 136.787C94.4336 137.296 95.1859 138.008 95.7299 138.917C96.2681 139.831 96.5922 140.861 96.7021 142.019H93.9938C93.8838 140.757 93.4614 139.767 92.7206 139.056C91.9799 138.35 90.9729 137.991 89.7114 137.991C88.6292 137.991 87.7206 138.245 86.9799 138.755C86.2391 139.264 85.8688 140.051 85.8688 141.116C85.8688 142.215 86.1986 143.037 86.8641 143.593C87.5412 144.148 88.6523 144.605 90.1975 144.958C92.4313 145.468 94.1095 146.22 95.2206 147.204C96.3433 148.176 96.9104 149.53 96.9104 151.255C96.9104 152.458 96.5979 153.5 95.9845 154.38C95.3653 155.248 94.532 155.919 93.4845 156.394C92.4313 156.868 91.2507 157.111 89.9428 157.111C87.7033 157.111 85.9035 156.573 84.5493 155.491C83.2067 154.414 82.4255 152.892 82.2114 150.931H84.9197C85.2091 152.262 85.8051 153.286 86.7021 154.009C87.5933 154.738 88.6986 155.097 90.0123 155.097C91.1697 155.097 92.1535 154.808 92.9753 154.218C93.7912 153.616 94.2021 152.782 94.2021 151.718C94.2021 150.485 93.8144 149.553 93.0447 148.917C92.2866 148.269 91.0192 147.736 89.2484 147.319C88.0447 147.042 86.9857 146.683 86.0771 146.231C85.1628 145.786 84.4452 145.201 83.9243 144.472C83.4151 143.749 83.1604 142.823 83.1604 141.694C83.1604 140.525 83.4614 139.513 84.0632 138.662C84.6651 137.817 85.481 137.157 86.5169 136.694C87.547 136.231 88.6813 136 89.9197 136Z" fill="black"></path>
<path d="M120.207 159.773C120.207 160.329 120.311 160.711 120.531 160.931C120.745 161.145 121.069 161.255 121.503 161.255C122.088 161.255 122.638 161.052 123.147 160.653V162.088C122.418 162.58 121.55 162.829 120.531 162.829C119.727 162.829 119.073 162.644 118.563 162.273C118.054 161.903 117.8 161.255 117.8 160.329C117.8 159.218 118.135 158.28 118.818 157.528C119.495 156.787 120.253 156.266 121.087 155.954L118.795 149.102H111.341L108.957 156.278H106.249L113.54 136H116.943L123.934 156.278H122.962C122.221 156.417 121.573 156.799 121.017 157.435C120.473 158.066 120.207 158.847 120.207 159.773ZM112.036 147.042H118.124L115.184 137.991L112.036 147.042Z" fill="black"></path>
<path d="M154.858 136V156.278H152.335V145.838C152.335 144.576 152.335 143.28 152.335 141.949C152.347 140.606 152.364 139.391 152.381 138.292C152.04 139.391 151.646 140.606 151.201 141.949C150.767 143.292 150.333 144.582 149.905 145.815L146.317 156.278H143.145L139.511 145.745C139.094 144.542 138.666 143.28 138.238 141.949C137.804 140.624 137.428 139.42 137.104 138.338C137.133 139.437 137.15 140.647 137.15 141.972C137.15 143.303 137.15 144.588 137.15 145.838V156.278H134.627V136H138.793L144.789 154.125L150.761 136H154.858Z" fill="black"></path>
<path d="M175.622 136C177.671 136 179.407 136.457 180.831 137.366C182.266 138.263 183.354 139.495 184.094 141.069C184.835 142.644 185.206 144.472 185.206 146.556C185.206 148.61 184.835 150.433 184.094 152.019C183.354 153.61 182.266 154.86 180.831 155.769C179.407 156.666 177.671 157.111 175.622 157.111C173.55 157.111 171.809 156.666 170.391 155.769C168.967 154.86 167.891 153.61 167.15 152.019C166.409 150.433 166.039 148.61 166.039 146.556C166.039 144.472 166.409 142.644 167.15 141.069C167.891 139.495 168.967 138.263 170.391 137.366C171.809 136.457 173.55 136 175.622 136ZM175.622 155.097C177.752 155.097 179.407 154.333 180.599 152.806C181.785 151.266 182.381 149.183 182.381 146.556C182.381 143.905 181.785 141.81 180.599 140.282C179.407 138.755 177.752 137.991 175.622 137.991C173.475 137.991 171.809 138.755 170.622 140.282C169.447 141.81 168.863 143.905 168.863 146.556C168.863 149.183 169.447 151.266 170.622 152.806C171.809 154.333 173.475 155.097 175.622 155.097Z" fill="black"></path>
<path d="M212.643 156.278H208.754L199.194 138.454C199.24 139.657 199.263 140.942 199.263 142.296C199.275 143.656 199.287 144.935 199.287 146.139V156.278H196.763V136H200.652L210.189 153.801C210.172 152.615 210.155 151.341 210.143 149.981C210.126 148.61 210.12 147.331 210.12 146.139V136H212.574L212.643 156.278Z" fill="black"></path>
<path d="M227.902 156.278H225.379V136H227.902V156.278Z" fill="black"></path>
<path d="M256.538 156.278H252.649L243.089 138.454C243.135 139.657 243.158 140.942 243.158 142.296C243.17 143.656 243.181 144.935 243.181 146.139V156.278H240.658V136H244.547L254.084 153.801C254.067 152.615 254.049 151.341 254.038 149.981C254.02 148.61 254.015 147.331 254.015 146.139V136H256.468L256.538 156.278Z" fill="black"></path>
<path d="M284.32 138.06H277.098V156.278H274.574V138.06H267.329V136H284.32V138.06Z" fill="black"></path>
<path d="M305.238 149.102H297.784L295.4 156.278H292.692L299.984 136H303.386L310.377 156.278H307.646L305.238 149.102ZM298.479 147.042H304.567L301.627 137.991L298.479 147.042Z" fill="black"></path>
<path d="M355.171 136V156.278H352.648V145.838C352.648 144.576 352.648 143.28 352.648 141.949C352.659 140.606 352.677 139.391 352.694 138.292C352.353 139.391 351.959 140.606 351.513 141.949C351.079 143.292 350.645 144.582 350.217 145.815L346.629 156.278H343.458L339.824 145.745C339.407 144.542 338.979 143.28 338.55 141.949C338.116 140.624 337.74 139.42 337.416 138.338C337.445 139.437 337.462 140.647 337.462 141.972C337.462 143.303 337.462 144.588 337.462 145.838V156.278H334.939V136H339.106L345.101 154.125L351.074 136H355.171Z" fill="black"></path>
<path d="M370.425 156.278H367.902V136H370.425V156.278Z" fill="black"></path>
<path d="M398.228 138.06H391.005V156.278H388.482V138.06H381.237V136H398.228V138.06Z" fill="black"></path>
<path d="M415.998 148.292V156.278H413.475V148.292L406.299 136H409.216L414.864 145.838L420.327 136H423.174L415.998 148.292Z" fill="black"></path>
<path d="M443.436 145.491C444.779 145.803 445.809 146.336 446.538 147.088C447.262 147.846 447.626 148.917 447.626 150.306C447.626 151.544 447.372 152.568 446.862 153.384C446.365 154.206 445.716 154.837 444.918 155.282C444.131 155.716 443.286 156 442.395 156.139C441.897 156.22 441.457 156.266 441.075 156.278C440.687 156.278 440.265 156.278 439.802 156.278H433.274V136H439.247C439.738 136 440.178 136.012 440.566 136.023C440.948 136.023 441.388 136.058 441.885 136.116C443.488 136.336 444.721 136.851 445.589 137.667C446.451 138.471 446.885 139.6 446.885 141.046C446.885 142.267 446.567 143.222 445.936 143.917C445.317 144.611 444.484 145.138 443.436 145.491ZM435.797 138.06V144.727H439.709C439.987 144.727 440.248 144.721 440.497 144.704C440.757 144.675 441.035 144.646 441.33 144.611C442.36 144.461 443.095 144.09 443.529 143.5C443.957 142.898 444.177 142.152 444.177 141.255C444.177 140.253 443.882 139.507 443.297 139.009C442.725 138.5 441.984 138.199 441.075 138.106C440.809 138.078 440.531 138.06 440.242 138.06C439.947 138.06 439.686 138.06 439.455 138.06H435.797ZM441.584 154.171C442.568 154.067 443.373 153.72 443.992 153.13C444.605 152.528 444.918 151.683 444.918 150.583C444.918 149.322 444.605 148.425 443.992 147.898C443.39 147.377 442.603 147.042 441.631 146.903C441.289 146.856 440.988 146.828 440.728 146.81C440.479 146.799 440.242 146.787 440.01 146.787H435.797V154.218H440.172C440.415 154.218 440.664 154.218 440.913 154.218C441.174 154.206 441.399 154.189 441.584 154.171Z" fill="black"></path>
<path d="M469.68 149.102H462.226L459.842 156.278H457.133L464.425 136H467.828L474.818 156.278H472.087L469.68 149.102ZM462.92 147.042H469.008L466.068 137.991L462.92 147.042Z" fill="black"></path>
<mask id="mask0_2_230" style="mask-type:luminance" maskUnits="userSpaceOnUse" x="0" y="0" width="500" height="176">
<path d="M500 0H0V175.556H500V0Z" fill="white"></path>
</mask>
<g mask="url(#mask0_2_230)">
<path d="M1.76469 24.6509H33.524C38.6455 24.6509 42.8584 25.6174 46.1628 27.5444C49.4615 29.4773 51.8573 31.9426 53.3388 34.9519C54.8318 37.9611 55.5841 41.144 55.5841 44.4889C55.5841 47.747 54.9128 50.5653 53.5703 52.938C52.2392 55.3164 50.5899 57.1914 48.6165 58.563C46.6374 59.9403 44.7624 60.8199 42.9915 61.2019V61.85C45.0749 62.0815 47.3723 62.8454 49.8897 64.1417C52.4186 65.438 54.6235 67.4287 56.5101 70.1139C58.4082 72.7875 59.3573 76.1671 59.3573 80.2528C59.3573 83.9565 58.524 87.5213 56.8573 90.9472C55.1906 94.3616 52.5749 97.1625 49.0101 99.35C45.4453 101.543 40.9429 102.637 35.5147 102.637H1.76469V24.6509ZM30.1675 58.2852C34.039 58.2852 37.4013 57.2667 40.2601 55.2296C43.1131 53.1926 44.5425 50.056 44.5425 45.8083C44.5425 41.7343 43.1652 38.7713 40.4221 36.9194C37.6733 35.056 34.2531 34.1185 30.1675 34.1185H13.0147V58.2852H30.1675ZM32.7369 93.1695C37.0425 93.1695 40.6999 92.1509 43.7091 90.1139C46.7184 88.0653 48.223 84.6625 48.223 79.9056C48.223 75.3107 46.7184 72.0063 43.7091 69.9982C40.6999 67.9958 37.0425 66.9889 32.7369 66.9889H13.0147V93.1695H32.7369Z" fill="black"></path>
<path d="M82.9732 34.9056V58.2852H115.635V67.5445H82.9732V92.3824H120.519V102.637H71.2834V24.6509H120.519V34.9056H82.9732Z" fill="black"></path>
<path d="M158.081 92.0583L200.303 35.4611V35.2296H158.081V24.6509H214.215V35.2296L171.877 91.8269V92.0583H214.215V102.637H158.081V92.0583ZM178.127 0.576851L186.483 9.9287H186.923L195.488 0.576851H206.645L191.483 17.2898H182.132L167.085 0.576851H178.127Z" fill="black"></path>
<path d="M274.046 81.1324H243.861L236.384 102.637H224.694L253.56 24.6509H264.463L293.444 102.637H281.731L274.046 81.1324ZM270.829 71.9889L259.116 39.2343H258.56L247.079 71.9889H270.829Z" fill="black"></path>
<path d="M351.479 92.3824V102.637H304.349V24.6509H316.039L315.947 92.3824H351.479Z" fill="black"></path>
<path d="M396.498 103.424C388.98 103.424 382.568 101.7 377.262 98.2389C371.949 94.784 367.921 90.0329 365.178 83.9796C362.429 77.9322 361.058 71.0803 361.058 63.4241C361.058 55.7736 362.429 48.8813 365.178 42.7528C367.921 36.6301 371.966 31.8037 377.308 28.2852C382.661 24.7551 389.055 22.9843 396.498 22.9843C403.841 22.9843 410.167 24.7319 415.479 28.2157C420.786 31.7053 424.814 36.5144 427.562 42.637C430.305 48.7655 431.683 55.7331 431.683 63.5398C431.683 71.2597 430.305 78.1232 427.562 84.1417C424.814 90.1602 420.786 94.8824 415.479 98.3083C410.167 101.723 403.841 103.424 396.498 103.424ZM396.382 92.938C401.133 92.938 405.253 91.6822 408.743 89.1648C412.227 86.6359 414.9 83.1232 416.752 78.6324C418.616 74.1417 419.553 69.0375 419.553 63.3083C419.553 57.585 418.616 52.475 416.752 47.9843C414.9 43.4935 412.227 39.9519 408.743 37.3593C405.253 34.7551 401.133 33.4472 396.382 33.4472C391.625 33.4472 387.499 34.7551 383.998 37.3593C380.508 39.9519 377.84 43.5167 375.988 48.0537C374.137 52.5792 373.211 57.6602 373.211 63.3083C373.211 68.9565 374.137 74.0259 375.988 78.5167C377.84 83.0074 380.508 86.5375 383.998 89.0954C387.499 91.659 391.625 92.938 396.382 92.938Z" fill="black"></path>
<path d="M471.474 103.54C465.375 103.54 460.155 102.301 455.803 99.813C451.463 97.313 448.199 94.0954 446.011 90.1602C443.818 86.225 442.724 82.1046 442.724 77.7991V77.2435H455.433V77.7991C455.433 80.1776 455.988 82.5387 457.099 84.8824C458.21 87.2146 459.993 89.1822 462.447 90.7852C464.9 92.3766 467.979 93.1695 471.683 93.1695C476.22 93.1695 479.912 92.0236 482.771 89.7204C485.624 87.4056 487.053 84.2806 487.053 80.3454C487.053 77.0931 485.954 74.5005 483.766 72.5676C481.573 70.6232 478.812 69.3211 475.479 68.6556L464.785 66.5491C460.109 65.5769 455.595 63.5861 451.243 60.5769C446.891 57.5676 444.715 52.5387 444.715 45.4843C444.715 40.9472 445.809 36.9773 448.002 33.563C450.19 30.1544 453.257 27.5387 457.192 25.7157C461.139 23.8986 465.641 22.9843 470.687 22.9843C476.474 22.9843 481.44 24.1359 485.595 26.4333C489.761 28.7366 492.898 31.7285 495.016 35.4148C497.146 39.0896 498.21 42.9264 498.21 46.9194V47.3824H485.502V47.0352C485.502 45.0329 485.016 42.9553 484.044 40.8083C483.083 38.6498 481.474 36.8153 479.206 35.2991C476.937 33.7713 473.98 33.0074 470.34 33.0074C466.035 33.0074 462.638 34.1822 460.155 36.5259C457.666 38.8581 456.428 41.769 456.428 45.2528C456.428 48.3083 457.481 50.8026 459.599 52.7296C461.712 54.6625 464.484 55.9588 467.91 56.6185L477.817 58.6324C483.54 59.8245 488.535 62.012 492.794 65.2065C497.065 68.4009 499.206 73.3431 499.206 80.0213C499.206 84.622 498.031 88.7019 495.687 92.2667C493.355 95.8315 490.091 98.6035 485.896 100.577C481.694 102.556 476.891 103.54 471.474 103.54Z" fill="black"></path>
<path d="M0 120H498.009" stroke="black" stroke-width="2"></path>
</g>
</svg>